<svg xmlns="http://www.w3.org/2000/svg" height="608" width="1080"><rect width="1080" height="608" rx="1" ry="1" fill="#dbe9f9" paint-order="markers fill stroke"/><g style="line-height:1.25;-inkscape-font-specification:'Red Hat Display, Heavy';text-align:center"><path d="M342.858 147.498h5.773v-8.76l9.733-14.733h-6.276l-6.175 9.632-6.142-9.632h-6.646l9.733 14.733zm39.032-11.747c0-6.78-5.503-12.115-12.551-12.115s-12.553 5.336-12.553 12.115c0 6.78 5.505 12.116 12.553 12.116 7.048 0 12.552-5.336 12.552-12.116zm-5.94 0c0 3.894-2.853 6.813-6.611 6.813-3.76 0-6.612-2.92-6.612-6.813s2.853-6.813 6.612-6.813c3.758 0 6.611 2.92 6.611 6.813zm30.038 1.511v-13.257h-5.773v13.257c0 3.188-1.913 5.235-4.9 5.235s-4.933-2.047-4.933-5.235v-13.257h-5.773v13.257c0 6.477 4.162 10.572 10.673 10.572 6.477 0 10.706-4.162 10.706-10.572zm3.558 10.236h5.772v-8.558h4.397l4.43 8.558h6.444l-5.135-9.397c2.651-1.208 4.396-3.658 4.396-6.612 0-4.363-3.456-7.484-8.29-7.484h-12.014zm11.478-18.56c1.778 0 2.987 1.074 2.987 2.652 0 1.577-1.209 2.651-2.987 2.651h-5.706v-5.303zm41.986 6.679v-1.678h-12.586v5h6.343c-.671 2.182-2.853 3.693-5.571 3.693-3.86 0-6.746-2.954-6.746-6.88 0-3.894 2.785-6.814 6.544-6.814 2.35 0 4.363 1.007 5.907 2.954l4.061-3.658c-2.248-2.853-5.974-4.598-9.968-4.598-7.014 0-12.485 5.302-12.485 12.115 0 6.813 5.504 12.116 12.586 12.116 6.88 0 11.914-5.168 11.914-12.25zm.704-6.511h7.686v18.392h5.772v-18.392h7.686v-5.101h-21.144zm23.695 18.392h5.772v-10.773l9.431 10.773h7.652l-11.478-12.451 10.874-11.042h-6.98l-9.499 10.27v-10.27h-5.772zm28.829 0h6.008l2.181-5.672h9.163l2.148 5.672h6.242l-9.498-23.493h-6.611zm9.935-10.27l2.886-7.518 2.82 7.518zm17.519 10.27h5.772v-8.424h6.612c4.565 0 7.988-3.188 7.988-7.45 0-4.397-3.356-7.62-7.988-7.62h-12.384zm11.713-18.56c1.678 0 2.82 1.108 2.82 2.719 0 1.577-1.142 2.651-2.82 2.651h-5.94v-5.37zm11.612 18.56h5.773v-8.424h6.612c4.564 0 7.987-3.188 7.987-7.45 0-4.397-3.356-7.62-7.987-7.62h-12.385zm11.713-18.56c1.678 0 2.82 1.108 2.82 2.719 0 1.577-1.142 2.651-2.82 2.651h-5.94v-5.37zm11.613 18.56H608.5v-5.101h-12.385v-18.392h-5.772zm21.379 0h5.772v-23.493h-5.772zm21.647-5.001c-3.927 0-6.88-2.92-6.88-6.746 0-3.893 2.886-6.813 6.678-6.813 2.383 0 4.43 1.04 6.075 3.122l3.893-3.826c-2.148-2.786-6.074-4.598-9.968-4.598-7.115 0-12.619 5.269-12.619 12.115 0 6.813 5.47 12.083 12.62 12.083 3.758 0 7.618-1.78 9.8-4.531l-3.793-3.726c-1.577 1.947-3.524 2.92-5.806 2.92zm9.867 5.001h6.008l2.181-5.672h9.162l2.148 5.672h6.243l-9.498-23.493h-6.612zm9.934-10.27l2.887-7.518 2.819 7.518zm11.478-8.122h7.686v18.392h5.773v-18.392h7.685v-5.101h-21.144zm23.695 18.392h5.772v-23.493h-5.772zm33.931-11.747c0-6.78-5.504-12.115-12.552-12.115s-12.552 5.336-12.552 12.115c0 6.78 5.504 12.116 12.552 12.116s12.552-5.336 12.552-12.116zm-5.94 0c0 3.894-2.853 6.813-6.612 6.813-3.76 0-6.612-2.92-6.612-6.813s2.853-6.813 6.612-6.813 6.611 2.92 6.611 6.813zm8.994-11.746v23.493h5.437v-14.163l11.008 14.163h5.102v-23.493h-5.437v13.626l-10.673-13.626z" style="text-align:center" aria-label="YOUR GTK APPLICATION" font-weight="900" font-size="33.562" font-family="Red Hat Display" letter-spacing="0" word-spacing="0" text-anchor="middle"/></g><path d="M212 260c-17.728 0-32 14.272-32 32v316h720V292c0-17.728-14.272-32-32-32H212z" fill="#99c1f1" paint-order="markers fill stroke"/><g style="line-height:1.25;-inkscape-font-specification:'Red Hat Display, Heavy';text-align:center"><path d="M513.704 324.334v-1.678H501.12v5.001h6.343c-.671 2.182-2.853 3.692-5.571 3.692-3.86 0-6.746-2.954-6.746-6.88 0-3.893 2.785-6.813 6.544-6.813 2.35 0 4.363 1.007 5.907 2.953l4.061-3.658c-2.249-2.853-5.974-4.598-9.968-4.598-7.014 0-12.485 5.303-12.485 12.116s5.504 12.116 12.586 12.116c6.88 0 11.914-5.169 11.914-12.25zm.706-6.51h7.685v18.391h5.772v-18.391h7.686v-5.102H514.41zm23.694 18.391h5.772v-10.773l9.431 10.773h7.652l-11.478-12.451 10.874-11.042h-6.98l-9.499 10.27v-10.27h-5.772zm48.631-23.493h-6.343l-12.318 13.895v4.396h13.224v5.202h5.437v-5.202h2.92v-4.53h-2.92zm-12.452 13.76l7.015-7.887v7.887z" style="text-align:center" aria-label="GTK 4" font-weight="900" font-size="33.562" font-family="Red Hat Display" letter-spacing="0" word-spacing="0" text-anchor="middle" fill="#3b86e2"/></g><path d="M72 385c-17.728 0-32 14.272-32 32v191h240V417c0-17.728-14.272-32-32-32H72zm250 0c-17.728 0-32 14.272-32 32v191h240V417c0-17.728-14.272-32-32-32H322zm250 0c-17.728 0-32 14.272-32 32v191h240V417c0-17.728-14.272-32-32-32H572zm250 0c-17.728 0-32 14.272-32 32v191h240V417c0-17.728-14.272-32-32-32H822z" fill="#3b86e2" paint-order="markers fill stroke"/><g style="line-height:1.25;-inkscape-font-specification:'Red Hat Display, Heavy';text-align:center"><path d="M102.082 461.626h5.773v-8.424h6.611c4.565 0 7.988-3.189 7.988-7.451 0-4.397-3.356-7.619-7.988-7.619h-12.384zm11.713-18.56c1.678 0 2.82 1.107 2.82 2.718 0 1.578-1.142 2.652-2.82 2.652h-5.94v-5.37zm5.739 18.56h6.008l2.181-5.672h9.162l2.148 5.672h6.243l-9.498-23.494h-6.612zm9.934-10.27l2.887-7.518 2.819 7.518zm17.52-13.224v23.494h5.437v-14.164l11.008 14.164h5.101v-23.494h-5.437v13.626l-10.672-13.626zm49.1 11.613v-1.678h-12.585v5h6.343c-.671 2.182-2.853 3.692-5.571 3.692-3.86 0-6.746-2.953-6.746-6.88 0-3.893 2.785-6.813 6.544-6.813 2.35 0 4.363 1.007 5.907 2.953l4.061-3.658c-2.249-2.853-5.974-4.598-9.968-4.598-7.014 0-12.485 5.303-12.485 12.116s5.504 12.116 12.586 12.116c6.88 0 11.914-5.169 11.914-12.25zm27.32.134c0-6.78-5.504-12.116-12.552-12.116s-12.553 5.336-12.553 12.116c0 6.78 5.505 12.116 12.553 12.116 7.048 0 12.552-5.337 12.552-12.116zm-5.94 0c0 3.893-2.854 6.813-6.612 6.813-3.76 0-6.612-2.92-6.612-6.813s2.853-6.813 6.612-6.813c3.758 0 6.611 2.92 6.611 6.813z" style="text-align:center" aria-label="PANGO" font-weight="900" font-size="33.562" font-family="Red Hat Display" letter-spacing="0" word-spacing="0" text-anchor="middle" fill="#fff"/></g><g style="line-height:1.25;-inkscape-font-specification:'Red Hat Display, Heavy';text-align:center"><path d="M401.535 449.745v-1.678H388.95v5h6.343c-.672 2.182-2.853 3.692-5.572 3.692-3.86 0-6.745-2.953-6.745-6.88 0-3.893 2.785-6.813 6.544-6.813 2.35 0 4.363 1.007 5.907 2.953l4.06-3.658c-2.248-2.853-5.973-4.598-9.967-4.598-7.014 0-12.485 5.303-12.485 12.116s5.504 12.116 12.586 12.116c6.88 0 11.914-5.169 11.914-12.25zm1.108 8.289c2.92 2.484 6.813 3.927 10.605 3.927 6.377 0 10.304-2.953 10.304-7.72 0-3.624-2.383-5.94-6.914-6.678l-4.866-.805c-1.98-.336-2.786-.907-2.786-2.081 0-1.276 1.443-2.047 3.792-2.047 2.484 0 4.733.872 7.216 2.785l3.054-4.262c-2.584-2.081-6.376-3.356-9.867-3.356-6.007 0-9.632 2.752-9.632 7.316 0 3.457 2.114 5.773 5.94 6.444l5.169.906c2.35.403 3.255 1.04 3.255 2.35 0 1.443-1.577 2.282-4.228 2.282-2.719 0-4.968-.94-7.82-3.256zm23.56 3.592h5.773v-10.774l9.43 10.774h7.653l-11.478-12.452 10.874-11.042h-6.981l-9.498 10.27v-10.27h-5.773z" style="text-align:center" aria-label="GSK" font-weight="900" font-size="33.562" font-family="Red Hat Display" letter-spacing="0" word-spacing="0" text-anchor="middle" fill="#fff"/></g><g style="line-height:1.25;-inkscape-font-specification:'Red Hat Display, Heavy';text-align:center"><path d="M649.84 449.745v-1.678h-12.585v5h6.343c-.671 2.182-2.853 3.692-5.571 3.692-3.86 0-6.746-2.953-6.746-6.88 0-3.893 2.785-6.813 6.544-6.813 2.35 0 4.363 1.007 5.907 2.953l4.061-3.658c-2.249-2.853-5.974-4.598-9.968-4.598-7.014 0-12.485 5.303-12.485 12.116s5.504 12.116 12.586 12.116c6.88 0 11.914-5.169 11.914-12.25zm3.054 11.881h9.532c6.947 0 12.418-5.169 12.418-11.68 0-6.612-5.47-11.814-12.418-11.814h-9.532zm9.398-18.392c3.692 0 6.578 2.953 6.578 6.712 0 3.692-2.886 6.578-6.578 6.578h-3.625v-13.29zm15.606 18.392h5.773v-10.774l9.43 10.774h7.653l-11.479-12.452 10.874-11.042h-6.98l-9.498 10.27v-10.27h-5.773z" style="text-align:center" aria-label="GDK" font-weight="900" font-size="33.562" font-family="Red Hat Display" letter-spacing="0" word-spacing="0" text-anchor="middle" fill="#fff"/></g><g style="line-height:1.25;-inkscape-font-specification:'Red Hat Display, Heavy';text-align:center"><path d="M897.222 449.745v-1.678h-12.585v5h6.343c-.671 2.182-2.853 3.692-5.571 3.692-3.86 0-6.746-2.953-6.746-6.88 0-3.893 2.785-6.813 6.544-6.813 2.35 0 4.363 1.007 5.907 2.953l4.061-3.658c-2.248-2.853-5.974-4.598-9.968-4.598-7.014 0-12.485 5.303-12.485 12.116s5.505 12.116 12.586 12.116c6.88 0 11.914-5.169 11.914-12.25zm3.055 11.881h18.157v-5.102h-12.385v-18.392h-5.772zm21.378 0h5.773v-23.494h-5.773zm9.666-23.494v23.494h12.217c4.967 0 8.323-2.786 8.323-6.914 0-2.148-1.342-4.028-3.423-5.135 1.644-1.175 2.685-2.886 2.685-4.833 0-3.893-3.357-6.612-8.156-6.612zm11.277 4.732c1.678 0 2.752.907 2.752 2.316 0 1.41-1.074 2.316-2.752 2.316h-5.504v-4.632zm.503 14.03h-6.007v-4.968h6.007c1.78 0 2.92.973 2.92 2.484 0 1.51-1.14 2.483-2.92 2.483z" style="text-align:center" aria-label="GLIB" font-weight="900" font-size="33.562" font-family="Red Hat Display" letter-spacing="0" word-spacing="0" text-anchor="middle" fill="#fff"/></g><path d="M32 510c-17.728 0-32 14.272-32 32v66c0 .78.038 1.55.092 2.314h354.816A32.78 32.78 0 00355 608v-66c0-17.728-14.272-32-32-32H32zm365 0c-17.728 0-32 14.272-32 32v66c0 .78.038 1.55.092 2.314h349.816A32.78 32.78 0 00715 608v-66c0-17.728-14.272-32-32-32H397zm360 0c-17.728 0-32 14.272-32 32v66c0 .78.038 1.55.092 2.314h354.816A32.69 32.69 0 001080 608v-66c0-17.728-14.272-32-32-32H757z" fill="#0b192a" paint-order="markers fill stroke"/><g style="line-height:1.25;-inkscape-font-specification:'Red Hat Display, Heavy';text-align:center"><path d="M140.828 570.761c-3.926 0-6.88-2.92-6.88-6.745 0-3.894 2.886-6.813 6.679-6.813 2.383 0 4.43 1.04 6.075 3.12l3.893-3.825c-2.148-2.786-6.075-4.598-9.968-4.598-7.115 0-12.62 5.269-12.62 12.116 0 6.813 5.471 12.082 12.62 12.082 3.759 0 7.618-1.779 9.8-4.531l-3.793-3.725c-1.577 1.946-3.523 2.92-5.806 2.92zm9.867 5.001h6.008l2.182-5.672h9.162l2.148 5.672h6.242l-9.498-23.493h-6.611zm9.935-10.27l2.886-7.518 2.82 7.518zm17.519 10.27h5.773V552.27h-5.773zm9.666 0h5.772v-8.558h4.397l4.43 8.558h6.444l-5.135-9.397c2.651-1.208 4.397-3.658 4.397-6.612 0-4.363-3.457-7.484-8.29-7.484h-12.015zm11.478-18.56c1.779 0 2.987 1.075 2.987 2.652 0 1.577-1.208 2.651-2.987 2.651h-5.706v-5.302zm36.045 6.814c0-6.78-5.504-12.116-12.552-12.116s-12.552 5.336-12.552 12.116c0 6.78 5.504 12.115 12.552 12.115s12.552-5.336 12.552-12.115zm-5.94 0c0 3.893-2.853 6.813-6.612 6.813s-6.612-2.92-6.612-6.813c0-3.894 2.853-6.813 6.612-6.813s6.612 2.92 6.612 6.813z" style="text-align:center" aria-label="CAIRO" font-weight="900" font-size="33.562" font-family="Red Hat Display" letter-spacing="0" word-spacing="0" text-anchor="middle" fill="#fff"/></g><g style="line-height:1.25;-inkscape-font-specification:'Red Hat Display, Heavy';text-align:center"><path d="M497.393 564.016c0-6.78-5.504-12.116-12.552-12.116s-12.552 5.336-12.552 12.116c0 6.78 5.504 12.115 12.552 12.115s12.552-5.336 12.552-12.115zm-5.94 0c0 3.893-2.853 6.813-6.612 6.813s-6.611-2.92-6.611-6.813c0-3.894 2.852-6.813 6.611-6.813 3.76 0 6.612 2.92 6.612 6.813zm8.726 18.828h5.437v-8.022c1.342.772 2.886 1.175 4.53 1.175 5.17 0 9.23-3.994 9.23-9.095 0-5.101-3.994-9.129-9.061-9.129-1.746 0-3.39.537-4.766 1.544v-1.309h-5.37zm9.196-20.44c2.618 0 4.665 1.947 4.665 4.498 0 2.55-2.014 4.497-4.665 4.497-1.477 0-2.82-.503-3.759-1.376v-6.209c.973-.94 2.249-1.41 3.759-1.41zm28.997 11.009l-3.59-3.188c-.84.872-2.082 1.342-3.558 1.342-2.048 0-3.659-1.141-4.363-2.82h12.652v-1.342c0-5.605-3.759-9.699-8.96-9.699-5.203 0-9.264 4.027-9.264 9.196 0 5.168 4.23 9.196 9.666 9.196 2.954 0 5.169-.806 7.417-2.685zm-7.92-11.277c1.745 0 3.154 1.108 3.725 2.82h-7.417c.537-1.78 1.88-2.82 3.692-2.82zm11.612 13.626h5.437v-12.015c.738-.906 1.812-1.41 3.188-1.41 1.947 0 3.222 1.276 3.222 3.222v10.203h5.437v-10.94c0-4.196-2.92-7.15-7.081-7.15-1.813 0-3.457.537-4.766 1.544v-1.208h-5.437zm44.436-11.881v-1.678h-12.586v5.001h6.343c-.671 2.181-2.852 3.692-5.571 3.692-3.86 0-6.746-2.954-6.746-6.88 0-3.894 2.786-6.813 6.545-6.813 2.349 0 4.363 1.006 5.907 2.953l4.06-3.658c-2.248-2.853-5.974-4.598-9.967-4.598-7.015 0-12.485 5.303-12.485 12.116s5.504 12.115 12.585 12.115c6.88 0 11.915-5.168 11.915-12.25zm3.054 11.881h18.157v-5.101h-12.385v-18.392h-5.772z" style="text-align:center" aria-label="OpenGL" font-weight="900" font-size="33.562" font-family="Red Hat Display" letter-spacing="0" word-spacing="0" text-anchor="middle" fill="#fff"/></g><g style="line-height:1.25;-inkscape-font-specification:'Red Hat Display, Heavy';text-align:center"><path d="M850.018 575.762l4.161-14.968 4.129 14.968h6.108l5.235-23.493h-5.739l-2.852 14.499-4.095-14.5h-5.403l-4.095 14.5-2.853-14.5h-5.94l5.236 23.494zm26.412.302c1.914 0 3.458-.402 4.901-1.376v1.074h5.37v-11.377c0-4.263-2.853-6.713-7.786-6.713-2.719 0-5.404.638-8.29 1.947l1.946 3.994c2.316-.973 3.96-1.41 5.37-1.41 2.249 0 3.39.873 3.39 2.652v.872a16.15 16.15 0 00-4.027-.503c-4.632 0-7.317 1.946-7.317 5.336 0 3.256 2.651 5.504 6.444 5.504zm-1.274-5.605c0-1.107 1.074-1.745 2.953-1.745 1.108 0 2.182.134 3.222.403v2.282c-.94.57-2.08.84-3.39.84-1.745 0-2.785-.672-2.785-1.78zm19.499 5.571c-.604 1.511-1.812 2.283-3.524 2.283-.705 0-1.175-.034-1.678-.134v4.631c.537.134 1.376.202 2.249.202 4.262 0 6.578-1.712 8.558-6.344l7.954-18.66h-5.873l-4.565 11.176-3.927-11.176h-6.007l6.813 17.99zm20.607-24.936l-5.437 1.175v23.493h5.437zm9.028 24.97c1.913 0 3.457-.402 4.9-1.376v1.074h5.37v-11.377c0-4.263-2.853-6.713-7.786-6.713-2.719 0-5.404.638-8.29 1.947l1.946 3.994c2.316-.973 3.96-1.41 5.37-1.41 2.249 0 3.39.873 3.39 2.652v.872a16.15 16.15 0 00-4.027-.503c-4.632 0-7.317 1.946-7.317 5.336 0 3.256 2.651 5.504 6.444 5.504zm-1.275-5.605c0-1.107 1.074-1.745 2.953-1.745 1.108 0 2.182.134 3.222.403v2.282c-.94.57-2.08.84-3.39.84-1.745 0-2.785-.672-2.785-1.78zm14.767 5.303h5.437v-12.015c.738-.906 1.812-1.41 3.188-1.41 1.947 0 3.222 1.276 3.222 3.222v10.203h5.437v-10.94c0-4.196-2.92-7.15-7.081-7.15-1.813 0-3.457.537-4.766 1.544v-1.208h-5.437zm33.528 0h5.37v-24.668l-5.437 1.175v6.679c-1.343-.772-2.886-1.175-4.531-1.175-5.169 0-9.23 3.994-9.23 9.095 0 5.102 3.994 9.13 9.062 9.13 1.745 0 3.39-.538 4.766-1.545zm-8.491-8.894c0-2.55 2.014-4.497 4.665-4.497 1.477 0 2.82.503 3.759 1.376v6.209c-.973.94-2.249 1.41-3.76 1.41-2.617 0-4.664-1.947-4.664-4.498z" style="text-align:center" aria-label="Wayland" font-weight="900" font-size="33.562" font-family="Red Hat Display" letter-spacing="0" word-spacing="0" text-anchor="middle" fill="#fff"/></g></svg>