<svg xmlns="http://www.w3.org/2000/svg" xmlns:xlink="http://www.w3.org/1999/xlink" height="608" width="1080"><defs><linearGradient xlink:href="#a" id="c" x1="203.261" y1="784" x2="203.261" y2="800" gradientUnits="userSpaceOnUse" gradientTransform="translate(6.525 -960.942) scale(1.91768)"/><linearGradient id="a"><stop offset="0" stop-color="#9a9996"/><stop offset=".7" stop-color="#adaba8"/><stop offset="1" stop-color="#60605c"/></linearGradient><clipPath clipPathUnits="userSpaceOnUse" id="b"><path d="M672 272v32a16 16 135 01-16 16h-64a16 16 135 00-16 16v32a16 16 135 01-16 16h-32a16 16 135 00-16 16v32a16 16 135 01-16 16h-96a16 16 135 00-16 16v32a16 16 135 01-16 16h-32a16 16 45 01-16-16v-96a16 16 45 00-16-16h-96a16 16 135 00-16 16v96a16 16 135 01-16 16h-32a16 16 135 00-16 16v32a16 16 45 0016 16h32a16 16 45 0116 16v96a16 16 45 0016 16h160a16 16 135 0016-16v-96a16 16 135 0116-16h352a16 16 45 0116 16v96a16 16 45 0016 16h96a16 16 135 0016-16v-96a16 16 135 0116-16h32a16 16 135 0016-16V400a16 16 45 00-16-16h-32a16 16 45 01-16-16v-96a16 16 45 00-16-16H688a16 16 135 00-16 16z" fill="#c061cb" stroke-width="6.859" stroke-linecap="round" paint-order="markers fill stroke"/></clipPath></defs><g clip-path="url(#b)" transform="matrix(-1.1846 0 0 1.1846 1177.223 -260.334)" opacity=".15" stroke-width=".844" paint-order="markers fill stroke"><path fill="#3c3a3f" d="M160 384h192v128H160z"/><path fill="#5e5c64" d="M128 512h64v96h-64z"/><path fill="#48474c" d="M192 480h224v224H192z"/><path fill="#6a6871" d="M384 448h192v64H384z"/><path fill="#5e5c64" d="M384 512h128v64H384zm192 0h-64v64h64z"/><path fill="#4a484f" d="M576 352h-96v96h96z"/><path fill="#65636b" d="M960 384H768v192h192z"/><path fill="#5e5c64" d="M928 256H768v128h160z"/><path fill="#4b4a50" d="M768 256H640v64h128z"/><path fill="#4a484f" d="M928 576H736v128h192z"/><path fill="#55545b" d="M768 320H576v288h192z"/></g><rect width="214.78" height="222.357" x="14.052" y="370.03" rx="24.052" ry="22.722" transform="skewX(15) scale(1 .96593)" fill="#77767b" paint-order="markers fill stroke"/><rect width="214.78" height="222.357" x="18.32" y="368.995" rx="24.052" ry="22.722" transform="skewX(15) scale(1 .96593)" fill="#deddda" paint-order="markers fill stroke"/><path d="M154.188 371.762c-7.733 0-11.28 4.97-9.755 10.658l43.617 162.782c1.524 5.688 7.737 10.662 15.467 10.662h152.034c7.73 0 11.278-4.974 9.754-10.662L321.688 382.42c-1.524-5.688-7.734-10.658-15.467-10.658z" fill="#3584e4" paint-order="markers fill stroke"/><g stroke-width="3.109"><path style="marker:none" d="M248.073 427.224a5.103 3.907 41.185 00-2.032.598l-18.894 12.905a5.103 3.907 41.185 00-1.196 3.866l6.915 25.81a5.103 3.907 41.185 003.269 3.867l25.81 12.905a5.103 3.907 41.185 004.464 0l18.894-12.905a5.103 3.907 41.185 001.196-3.867l-6.916-25.81a5.103 3.907 41.185 00-3.268-3.866l-25.81-12.905a5.103 3.907 41.185 00-2.432-.598z" fill="#fff"/><path style="marker:none" d="M276.114 442.598l-20.187 13.788-27.577-13.788 20.188-13.788z" fill="#98c1f1"/><path style="marker:none" d="M264.88 485.4l20-13.476-7.331-27.471-19.984 13.649z" fill="#33d17a"/><path d="M262.49 485.314l-27.223-13.477-7.39-27.47 27.298 13.649z" style="marker:none" fill="#e01b24"/></g><path d="M175.28 542.519v15.341c0 8.5 6.843 15.342 15.342 15.342h322.17c8.5 0 15.342-6.843 15.342-15.342v-15.34H190.622z" fill="url(#c)" paint-order="markers fill stroke"/><path d="M162.323 542.519l4.202 15.341c2.245 8.198 15.598 15.342 24.097 15.342h107.39c8.5 0 15.342-7.782 15.342-15.342v-15.34H190.622z" fill="#77767b" paint-order="markers fill stroke"/><g aria-label="macOS" style="line-height:1.25;-inkscape-font-specification:'SF Pro Display, Bold';font-variant-ligatures:normal;font-variant-caps:normal;font-variant-numeric:normal;font-variant-east-asian:normal;text-align:end" font-weight="700" font-size="61" font-family="SF Pro Display" letter-spacing="0" word-spacing="0" stroke-width=".739" color="#000"><path style="line-height:1.25;-inkscape-font-specification:'SF Pro Display, Bold';font-variant-ligatures:normal;font-variant-position:normal;font-variant-caps:normal;font-variant-numeric:normal;font-variant-alternates:normal;font-variant-east-asian:normal;font-feature-settings:normal;font-variation-settings:normal;text-indent:0;text-align:start;text-decoration-line:none;text-decoration-style:solid;text-decoration-color:#000;text-transform:none;text-orientation:mixed;white-space:normal;shape-padding:0;shape-margin:0;inline-size:0;isolation:auto;mix-blend-mode:normal;solid-color:#000;solid-opacity:1" d="M531.476 358.841v-51.69h13.597v9.355h.29c1.093-3.15 2.957-5.658 5.593-7.522 2.636-1.864 5.69-2.797 9.161-2.797 3.73 0 6.847.933 9.355 2.797 2.507 1.832 4.194 4.436 5.062 7.811h.29c1.157-3.246 3.166-5.818 6.027-7.715 2.893-1.928 6.236-2.893 10.03-2.893 5.078 0 9.16 1.592 12.246 4.774 3.119 3.182 4.678 7.377 4.678 12.585v35.295h-14.08v-31.775c0-2.99-.723-5.272-2.17-6.847-1.446-1.608-3.536-2.411-6.268-2.411-2.668 0-4.822.884-6.461 2.652-1.608 1.768-2.411 4.098-2.411 6.991v31.39h-13.55v-32.21c0-2.764-.739-4.918-2.217-6.46-1.479-1.576-3.52-2.363-6.124-2.363-2.668 0-4.838.916-6.51 2.748-1.639 1.833-2.458 4.195-2.458 7.088v31.197z" overflow="visible"/><path style="line-height:1.25;-inkscape-font-specification:'SF Pro Display, Bold';font-variant-ligatures:normal;font-variant-position:normal;font-variant-caps:normal;font-variant-numeric:normal;font-variant-alternates:normal;font-variant-east-asian:normal;font-feature-settings:normal;font-variation-settings:normal;text-indent:0;text-align:start;text-decoration-line:none;text-decoration-style:solid;text-decoration-color:#000;text-transform:none;text-orientation:mixed;white-space:normal;shape-padding:0;shape-margin:0;inline-size:0;isolation:auto;mix-blend-mode:normal;solid-color:#000;solid-opacity:1" d="M560.118 305.59c-3.579 0-6.77.97-9.508 2.906-2.216 1.567-3.772 3.702-4.938 6.146v-8.088h-14.795v52.885h15.278v-31.795c0-2.779.769-4.97 2.302-6.684l.003-.004c1.565-1.712 3.535-2.551 6.065-2.551 2.483 0 4.329.728 5.688 2.175v.003h.003c1.355 1.414 2.052 3.391 2.052 6.049v32.807h14.747V327.45c0-2.78.756-4.936 2.25-6.583 1.53-1.65 3.485-2.463 6.021-2.463 2.615 0 4.503.745 5.824 2.213l.003.003.003.004c1.32 1.436 2.011 3.547 2.011 6.44v32.374h15.275v-35.893c0-5.325-1.614-9.703-4.844-13.001-3.2-3.3-7.475-4.955-12.679-4.955-3.894 0-7.367.996-10.36 2.991-2.682 1.778-4.555 4.232-5.793 7.159-.962-3.013-2.533-5.505-4.898-7.235-2.621-1.949-5.881-2.915-9.71-2.915zm0 1.195c3.629 0 6.602.899 8.995 2.678l.003.004h.004c2.392 1.748 3.994 4.211 4.834 7.477l.117.45h1.176l.14-.4c1.117-3.134 3.034-5.583 5.795-7.414v-.003c2.793-1.862 6.005-2.792 9.697-2.792 4.954 0 8.847 1.527 11.819 4.591v.003h.003c3.004 3.066 4.506 7.079 4.506 12.167v34.698h-12.884v-31.179c0-3.084-.752-5.533-2.324-7.247-1.572-1.746-3.863-2.608-6.713-2.608-2.8 0-5.15.956-6.899 2.842l-.003.004v.003c-1.717 1.888-2.568 4.388-2.568 7.392v30.793h-12.353v-31.612c0-2.871-.782-5.202-2.384-6.874-1.598-1.7-3.833-2.548-6.554-2.548-2.805 0-5.175.994-6.953 2.943v.004h-.003c-1.744 1.948-2.612 4.48-2.612 7.487v30.6h-12.884V307.75h12.403v9.355h1.313l.139-.404c1.056-3.044 2.837-5.433 5.375-7.228 2.535-1.793 5.45-2.688 8.815-2.688zm76.569 42.702c3.118 0 5.754-.9 7.908-2.7 2.186-1.833 3.278-4.131 3.278-6.895v-3.761l-10.897.675c-2.636.192-4.677.851-6.123 1.977-1.415 1.125-2.122 2.603-2.122 4.436 0 1.928.723 3.455 2.17 4.58 1.446 1.125 3.375 1.688 5.786 1.688zm-4.629 10.174c-4.982 0-9.113-1.463-12.392-4.388s-4.918-6.686-4.918-11.283c0-4.693 1.736-8.374 5.207-11.042 3.472-2.668 8.439-4.195 14.9-4.58l13.018-.772v-3.423c0-2.38-.787-4.244-2.362-5.594-1.543-1.35-3.649-2.025-6.317-2.025-2.571 0-4.677.579-6.316 1.736-1.607 1.157-2.588 2.716-2.942 4.677h-12.874c.258-5.079 2.427-9.161 6.51-12.247 4.082-3.118 9.499-4.677 16.25-4.677 6.621 0 11.925 1.575 15.91 4.725 3.987 3.15 5.98 7.33 5.98 12.537v35.536h-13.597v-7.908h-.29c-1.414 2.7-3.568 4.838-6.46 6.413-2.894 1.543-5.996 2.315-9.307 2.315z" overflow="visible"/><path style="line-height:1.25;-inkscape-font-specification:'SF Pro Display, Bold';font-variant-ligatures:normal;font-variant-position:normal;font-variant-caps:normal;font-variant-numeric:normal;font-variant-alternates:normal;font-variant-east-asian:normal;font-feature-settings:normal;font-variation-settings:normal;text-indent:0;text-align:start;text-decoration-line:none;text-decoration-style:solid;text-decoration-color:#000;text-transform:none;text-orientation:mixed;white-space:normal;shape-padding:0;shape-margin:0;inline-size:0;isolation:auto;mix-blend-mode:normal;solid-color:#000;solid-opacity:1" d="M639.82 305.445c-6.842 0-12.403 1.585-16.611 4.8-4.202 3.176-6.48 7.46-6.745 12.69l-.031.63h14.003l.089-.493c.33-1.826 1.21-3.221 2.703-4.297 1.519-1.07 3.488-1.622 5.967-1.622 2.567 0 4.507.64 5.922 1.878h.003l.003.003c1.443 1.237 2.153 2.891 2.153 5.138v2.862l-12.457.736c-6.537.39-11.625 1.936-15.227 4.705-3.606 2.771-5.442 6.675-5.442 11.515 0 4.74 1.724 8.702 5.12 11.73 3.39 3.026 7.689 4.538 12.789 4.538 3.403 0 6.61-.797 9.586-2.384h.003l.004-.003c2.534-1.38 4.417-3.288 5.865-5.524v7.092h14.794v-36.133c0-5.36-2.095-9.758-6.207-13.008s-9.566-4.853-16.283-4.853zm0 1.195c6.528 0 11.681 1.547 15.54 4.597 3.861 3.05 5.752 7.014 5.752 12.069v34.938h-12.4v-7.908h-1.25l-.167.32c-1.359 2.593-3.413 4.639-6.216 6.165-2.808 1.497-5.804 2.242-9.02 2.242-4.866 0-8.827-1.412-11.993-4.237-3.163-2.822-4.72-6.381-4.72-10.836 0-4.545 1.635-8.002 4.973-10.567 3.34-2.567 8.187-4.076 14.572-4.458l13.58-.806v-3.987c0-2.509-.862-4.58-2.567-6.042-1.672-1.463-3.94-2.175-6.71-2.175-2.66 0-4.902.604-6.661 1.846l-.004.003c-1.572 1.132-2.538 2.71-2.994 4.566h-11.711c.4-4.6 2.334-8.321 6.108-11.174h.004c3.956-3.021 9.226-4.556 15.885-4.556zm8.651 28.854l-11.534.715h-.003c-2.713.198-4.878.88-6.45 2.103l-.003.003c-1.539 1.223-2.35 2.918-2.35 4.904 0 2.078.826 3.826 2.403 5.052 1.574 1.224 3.65 1.815 6.153 1.815 3.233 0 6.028-.948 8.29-2.839v-.003c2.3-1.928 3.494-4.43 3.494-7.351zm-1.195 1.272v3.127c0 2.606-.994 4.697-3.067 6.434-2.044 1.708-4.52 2.56-7.522 2.56-2.318 0-4.1-.535-5.42-1.561-1.315-1.023-1.937-2.328-1.937-4.107 0-1.679.603-2.942 1.894-3.968 1.32-1.026 3.238-1.663 5.795-1.85l-.006.003zm70.464-10.376h-13.066c-.418-2.796-1.527-5.046-3.327-6.75-1.768-1.704-4.067-2.555-6.895-2.555-3.504 0-6.269 1.414-8.294 4.243-1.993 2.796-2.99 6.67-2.99 11.62 0 5.047.997 8.969 2.99 11.765 2.025 2.797 4.806 4.195 8.342 4.195 2.797 0 5.079-.787 6.847-2.362 1.768-1.608 2.877-3.826 3.327-6.654h13.115c-.354 6.107-2.652 10.977-6.895 14.61-4.243 3.632-9.756 5.448-16.539 5.448-7.843 0-14.047-2.395-18.612-7.184-4.564-4.822-6.847-11.428-6.847-19.818 0-8.261 2.283-14.803 6.847-19.624 4.597-4.854 10.769-7.281 18.516-7.281 6.879 0 12.424 1.896 16.635 5.69 4.243 3.793 6.525 8.679 6.847 14.658z" overflow="visible"/><path style="line-height:1.25;-inkscape-font-specification:'SF Pro Display, Bold';font-variant-ligatures:normal;font-variant-position:normal;font-variant-caps:normal;font-variant-numeric:normal;font-variant-alternates:normal;font-variant-east-asian:normal;font-feature-settings:normal;font-variation-settings:normal;text-indent:0;text-align:start;text-decoration-line:none;text-decoration-style:solid;text-decoration-color:#000;text-transform:none;text-orientation:mixed;white-space:normal;shape-padding:0;shape-margin:0;inline-size:0;isolation:auto;mix-blend-mode:normal;solid-color:#000;solid-opacity:1" d="M694.257 305.445c-7.871 0-14.236 2.492-18.948 7.468-4.682 4.945-7.01 11.665-7.01 20.036 0 8.499 2.326 15.282 7.01 20.23 4.682 4.913 11.081 7.37 19.046 7.37 6.89 0 12.566-1.859 16.929-5.594 4.362-3.734 6.74-8.79 7.101-15.028l.038-.635h-14.26l-.079.506c-.433 2.726-1.482 4.798-3.14 6.304-1.65 1.47-3.76 2.207-6.443 2.207-3.378 0-5.93-1.283-7.857-3.946-1.893-2.658-2.877-6.448-2.877-11.414 0-4.868.982-8.611 2.877-11.272l.003-.003c1.93-2.693 4.462-3.99 7.803-3.99 2.709 0 4.829.794 6.482 2.387h.003v.003c1.699 1.608 2.744 3.716 3.146 6.406l.076.51h14.216l-.035-.63c-.329-6.113-2.69-11.18-7.045-15.072-4.331-3.902-10.046-5.843-17.035-5.843zm0 1.195c6.77 0 12.146 1.851 16.236 5.536l.004.003c3.967 3.547 6.048 8.087 6.494 13.612h-11.879c-.495-2.652-1.574-4.9-3.352-6.583-1.882-1.814-4.36-2.722-7.31-2.722-3.664 0-6.657 1.531-8.777 4.493h-.003v.003c-2.09 2.932-3.099 6.937-3.099 11.967 0 5.126 1.007 9.175 3.099 12.11l.003.003v.004c2.122 2.93 5.134 4.442 8.828 4.442 2.909 0 5.359-.838 7.244-2.517h.003v-.003c1.758-1.599 2.837-3.822 3.358-6.498h11.935c-.474 5.643-2.574 10.167-6.535 13.558-4.124 3.53-9.475 5.306-16.15 5.306-7.721 0-13.731-2.336-18.178-7-4.445-4.697-6.684-11.123-6.684-19.405 0-8.15 2.237-14.516 6.684-19.214 4.482-4.732 10.457-7.095 18.08-7.095zM732.64 297.75c6.043-6.462 14.224-9.692 24.543-9.692 10.319 0 18.483 3.23 24.494 9.691 6.044 6.461 9.065 15.237 9.065 26.327 0 11.058-3.021 19.818-9.065 26.279-6.043 6.46-14.208 9.692-24.494 9.692-10.319 0-18.5-3.231-24.543-9.692-6.011-6.461-9.017-15.221-9.017-26.279 0-11.09 3.006-19.866 9.017-26.327zm38.14 8.92c-3.375-4.308-7.907-6.462-13.597-6.462-5.69 0-10.238 2.154-13.646 6.462-3.375 4.307-5.063 10.11-5.063 17.406 0 7.265 1.688 13.051 5.063 17.358 3.376 4.276 7.924 6.413 13.646 6.413 5.69 0 10.222-2.137 13.597-6.413 3.376-4.307 5.063-10.093 5.063-17.358 0-7.297-1.687-13.099-5.063-17.406z" overflow="visible"/><path style="line-height:1.25;-inkscape-font-specification:'SF Pro Display, Bold';font-variant-ligatures:normal;font-variant-position:normal;font-variant-caps:normal;font-variant-numeric:normal;font-variant-alternates:normal;font-variant-east-asian:normal;font-feature-settings:normal;font-variation-settings:normal;text-indent:0;text-align:start;text-decoration-line:none;text-decoration-style:solid;text-decoration-color:#000;text-transform:none;text-orientation:mixed;white-space:normal;shape-padding:0;shape-margin:0;inline-size:0;isolation:auto;mix-blend-mode:normal;solid-color:#000;solid-opacity:1" d="M757.184 287.46c-10.444 0-18.822 3.296-24.982 9.881-6.127 6.586-9.175 15.538-9.175 26.736 0 11.166 3.048 20.1 9.175 26.686 6.16 6.585 14.538 9.88 24.982 9.88 10.411 0 18.772-3.295 24.93-9.88 6.16-6.586 9.227-15.519 9.227-26.686 0-11.199-3.067-20.15-9.227-26.736-6.127-6.586-14.487-9.88-24.93-9.88zm0 1.195c10.193 0 18.16 3.166 24.055 9.502h.003c5.927 6.336 8.904 14.939 8.904 25.92 0 10.95-2.977 19.533-8.904 25.87-5.928 6.338-13.897 9.501-24.058 9.501-10.194 0-18.179-3.164-24.106-9.5-5.895-6.338-8.856-14.921-8.856-25.87 0-10.983 2.961-19.585 8.856-25.921 5.927-6.337 13.912-9.502 24.106-9.502zm0 10.956c-5.841 0-10.607 2.253-14.115 6.687h-.003v.004c-3.476 4.436-5.188 10.386-5.188 17.775 0 7.358 1.712 13.29 5.188 17.725v.004h.003c3.477 4.404 8.244 6.64 14.115 6.64 5.84 0 10.59-2.237 14.067-6.64v-.004c3.475-4.436 5.191-10.367 5.191-17.725 0-7.389-1.715-13.339-5.191-17.775-3.476-4.436-8.227-6.69-14.067-6.69zm0 1.195c5.538 0 9.85 2.053 13.124 6.232 3.274 4.179 4.936 9.834 4.936 17.04 0 7.17-1.66 12.806-4.933 16.984-3.273 4.147-7.588 6.188-13.127 6.188-5.572 0-9.902-2.04-13.176-6.184v-.004c-3.273-4.178-4.935-9.814-4.935-16.985 0-7.203 1.66-12.858 4.932-17.036l.003-.003c3.307-4.178 7.639-6.232 13.176-6.232z" overflow="visible"/><g><path style="line-height:1.25;-inkscape-font-specification:'SF Pro Display, Bold';font-variant-ligatures:normal;font-variant-position:normal;font-variant-caps:normal;font-variant-numeric:normal;font-variant-alternates:normal;font-variant-east-asian:normal;font-feature-settings:normal;font-variation-settings:normal;text-indent:0;text-align:start;text-decoration-line:none;text-decoration-style:solid;text-decoration-color:#000;text-transform:none;text-orientation:mixed;white-space:normal;shape-padding:0;shape-margin:0;inline-size:0;isolation:auto;mix-blend-mode:normal;solid-color:#000;solid-opacity:1" d="M797.493 339.024h14.031c.322 2.828 1.816 5.127 4.484 6.895 2.7 1.736 5.996 2.603 9.885 2.603 3.858 0 6.992-.82 9.403-2.459 2.443-1.671 3.664-3.793 3.664-6.364 0-2.25-.9-4.067-2.7-5.449-1.8-1.382-4.806-2.54-9.017-3.472l-9.065-1.977c-12.761-2.732-19.142-9.21-19.142-19.431 0-6.365 2.475-11.508 7.425-15.43 4.983-3.922 11.38-5.882 19.191-5.882 8.036 0 14.45 1.912 19.239 5.737 4.79 3.794 7.249 8.856 7.377 15.189h-13.645c-.225-2.925-1.527-5.224-3.906-6.895-2.347-1.704-5.352-2.556-9.017-2.556-3.6 0-6.51.788-8.727 2.363-2.186 1.575-3.279 3.648-3.279 6.22 0 2.122.884 3.841 2.652 5.16 1.8 1.317 4.71 2.442 8.727 3.375l8.438 1.784c6.976 1.478 12.055 3.793 15.237 6.943 3.183 3.118 4.774 7.33 4.774 12.633 0 6.75-2.54 12.119-7.619 16.105-5.078 3.954-11.941 5.93-20.589 5.93-8.39 0-15.076-1.864-20.058-5.593-4.95-3.76-7.538-8.904-7.763-15.43z" overflow="visible"/><path style="line-height:1.25;-inkscape-font-specification:'SF Pro Display, Bold';font-variant-ligatures:normal;font-variant-position:normal;font-variant-caps:normal;font-variant-numeric:normal;font-variant-alternates:normal;font-variant-east-asian:normal;font-feature-settings:normal;font-variation-settings:normal;text-indent:0;text-align:start;text-decoration-line:none;text-decoration-style:solid;text-decoration-color:#000;text-transform:none;text-orientation:mixed;white-space:normal;shape-padding:0;shape-margin:0;inline-size:0;isolation:auto;mix-blend-mode:normal;solid-color:#000;solid-opacity:1" d="M825.653 287.46c-7.912 0-14.46 1.995-19.563 6.01-5.073 4.02-7.651 9.379-7.651 15.898 0 5.236 1.657 9.594 4.958 12.945 3.3 3.35 8.2 5.69 14.655 7.073l9.061 1.976c4.168.923 7.11 2.076 8.784 3.361 1.676 1.287 2.466 2.886 2.466 4.977 0 2.381-1.082 4.277-3.405 5.868-2.288 1.556-5.293 2.355-9.065 2.355-3.8 0-6.971-.842-9.561-2.507-2.551-1.692-3.91-3.803-4.212-6.46l-.063-.53h-15.183l.022.62c.23 6.672 2.92 12.025 8 15.884l.002.003c5.112 3.826 11.938 5.71 20.416 5.71 8.738 0 15.748-2 20.957-6.054l.003-.004c5.208-4.087 7.848-9.673 7.848-16.574 0-5.422-1.65-9.822-4.952-13.058-3.304-3.271-8.492-5.612-15.534-7.105l-8.426-1.78-.013-.003c-3.966-.921-6.81-2.04-8.493-3.27-1.644-1.225-2.412-2.723-2.412-4.679 0-2.402.968-4.25 3.029-5.735 2.093-1.485 4.868-2.248 8.379-2.248 3.572 0 6.44.824 8.666 2.44l.004.004h.003c2.251 1.582 3.438 3.68 3.652 6.453l.044.553h14.81l-.013-.61c-.132-6.48-2.689-11.753-7.601-15.644l-.003-.004c-4.917-3.925-11.48-5.865-19.61-5.865zm0 1.195c7.94 0 14.204 1.883 18.866 5.606v.004c4.503 3.565 6.808 8.24 7.08 14.12h-12.544c-.366-2.797-1.652-5.135-3.987-6.779-2.466-1.79-5.61-2.671-9.368-2.671-3.688 0-6.732.809-9.074 2.472v.003h-.004c-2.31 1.666-3.525 3.965-3.525 6.707 0 2.287 1.002 4.227 2.893 5.637v.003h.003c1.917 1.404 4.886 2.533 8.945 3.475l.006.003 8.442 1.787v-.003c6.91 1.464 11.883 3.755 14.943 6.785v.003c3.061 3 4.594 7.02 4.594 12.205 0 6.6-2.439 11.75-7.389 15.635-4.949 3.85-11.666 5.802-20.22 5.802-8.298 0-14.842-1.84-19.695-5.47l-.006-.004c-4.653-3.537-7.078-8.291-7.44-14.354h12.945c.473 2.743 1.957 5.073 4.559 6.798h.003l.007.003c2.81 1.806 6.228 2.7 10.206 2.7 3.942 0 7.205-.841 9.738-2.564h.004c2.56-1.752 3.923-4.097 3.923-6.858 0-2.41-1.01-4.448-2.934-5.925-1.927-1.48-4.997-2.638-9.251-3.58l-9.068-1.979c-6.306-1.35-10.978-3.614-14.058-6.74-3.08-3.127-4.613-7.12-4.613-12.107 0-6.21 2.371-11.135 7.197-14.959 4.863-3.827 11.11-5.754 18.822-5.754z" overflow="visible"/></g></g></svg>