<svg xmlns="http://www.w3.org/2000/svg" xmlns:xlink="http://www.w3.org/1999/xlink" height="608" width="1080"><defs><linearGradient xlink:href="#a" id="c" x1="203.261" y1="784" x2="203.261" y2="800" gradientUnits="userSpaceOnUse" gradientTransform="translate(-37.654 -96.233) scale(1.1846)"/><linearGradient id="a"><stop offset="0" stop-color="#9a9996"/><stop offset=".7" stop-color="#adaba8"/><stop offset="1" stop-color="#60605c"/></linearGradient><clipPath clipPathUnits="userSpaceOnUse" id="b"><path d="M672 272v32a16 16 135 01-16 16h-64a16 16 135 00-16 16v32a16 16 135 01-16 16h-32a16 16 135 00-16 16v32a16 16 135 01-16 16h-96a16 16 135 00-16 16v32a16 16 135 01-16 16h-32a16 16 45 01-16-16v-96a16 16 45 00-16-16h-96a16 16 135 00-16 16v96a16 16 135 01-16 16h-32a16 16 135 00-16 16v32a16 16 45 0016 16h32a16 16 45 0116 16v96a16 16 45 0016 16h160a16 16 135 0016-16v-96a16 16 135 0116-16h352a16 16 45 0116 16v96a16 16 45 0016 16h96a16 16 135 0016-16v-96a16 16 135 0116-16h32a16 16 135 0016-16V400a16 16 45 00-16-16h-32a16 16 45 01-16-16v-96a16 16 45 00-16-16H688a16 16 135 00-16 16z" fill="#c061cb" stroke-width="6.859" stroke-linecap="round" paint-order="markers fill stroke"/></clipPath></defs><g clip-path="url(#b)" transform="matrix(-1.1846 0 0 1.1846 1177.223 -260.334)" opacity=".15" stroke-width=".844" paint-order="markers fill stroke"><path fill="#3c3a3f" d="M160 384h192v128H160z"/><path fill="#5e5c64" d="M128 512h64v96h-64z"/><path fill="#48474c" d="M192 480h224v224H192z"/><path fill="#6a6871" d="M384 448h192v64H384z"/><path fill="#5e5c64" d="M384 512h128v64H384zm192 0h-64v64h64z"/><path fill="#4a484f" d="M576 352h-96v96h96z"/><path fill="#65636b" d="M960 384H768v192h192z"/><path fill="#5e5c64" d="M928 256H768v128h160z"/><path fill="#4b4a50" d="M768 256H640v64h128z"/><path fill="#4a484f" d="M928 576H736v128h192z"/><path fill="#55545b" d="M768 320H576v288h192z"/></g><g transform="translate(67.48 -805.157) scale(1.61884)"><rect width="132.675" height="137.355" x="-166.273" y="743.487" rx="14.858" ry="14.036" transform="skewX(15) scale(1 .96593)" fill="#77767b" paint-order="markers fill stroke"/><rect width="132.675" height="137.355" x="-163.636" y="742.848" rx="14.858" ry="14.036" transform="skewX(15) scale(1 .96593)" fill="#deddda" paint-order="markers fill stroke"/><path d="M53.561 727.012c-4.777 0-6.967 3.07-6.026 6.584L74.48 834.15c.941 3.514 4.78 6.586 9.555 6.586h93.914c4.776 0 6.967-3.072 6.026-6.586L157.03 733.596c-.941-3.514-4.777-6.584-9.554-6.584z" fill="#3584e4" paint-order="markers fill stroke"/><g stroke-width="3.109"><path style="marker:none" d="M111.557 761.272a3.152 2.413 41.185 00-1.256.37l-11.671 7.971a3.152 2.413 41.185 00-.739 2.389l4.272 15.943a3.152 2.413 41.185 002.019 2.389l15.943 7.971a3.152 2.413 41.185 002.758 0l11.671-7.971a3.152 2.413 41.185 00.74-2.389l-4.273-15.943a3.152 2.413 41.185 00-2.019-2.389l-15.943-7.972a3.152 2.413 41.185 00-1.502-.37z" fill="#fff"/><path style="marker:none" d="M128.878 770.77l-12.47 8.517-17.034-8.518 12.47-8.517z" fill="#98c1f1"/><path style="marker:none" d="M121.938 797.209l12.355-8.325-4.528-16.97-12.345 8.432z" fill="#33d17a"/><path d="M120.462 797.156l-16.816-8.325-4.565-16.97 16.863 8.432z" style="marker:none" fill="#e01b24"/></g><path d="M66.591 832.492v9.477a9.456 9.456 0 009.477 9.477H275.08a9.456 9.456 0 009.477-9.477v-9.477H76.068z" fill="url(#c)" paint-order="markers fill stroke"/><path d="M58.587 832.492l2.595 9.477c1.387 5.064 9.636 9.477 14.886 9.477h66.337c5.25 0 9.477-4.807 9.477-9.477v-9.477H76.068z" fill="#77767b" paint-order="markers fill stroke"/></g><path d="M859.076 300.204V139.878L674.921 166.74v133.464h184.155M661.949 168.633l-133.73 19.508v112.063h133.73v-131.57M528.22 313.176v113.485l133.729 19.732V313.176h-133.73M674.92 448.31l184.156 27.17V313.175H674.921V448.31" fill="#2f71f1"/></svg>