<svg xmlns="http://www.w3.org/2000/svg" xmlns:xlink="http://www.w3.org/1999/xlink" height="608" width="1080"><defs><linearGradient xlink:href="#a" id="c" x1="203.261" y1="784" x2="203.261" y2="800" gradientUnits="userSpaceOnUse" gradientTransform="translate(6.525 -960.942) scale(1.91768)"/><linearGradient id="a"><stop offset="0" stop-color="#9a9996"/><stop offset=".7" stop-color="#adaba8"/><stop offset="1" stop-color="#60605c"/></linearGradient><clipPath clipPathUnits="userSpaceOnUse" id="b"><path d="M672 272v32a16 16 135 01-16 16h-64a16 16 135 00-16 16v32a16 16 135 01-16 16h-32a16 16 135 00-16 16v32a16 16 135 01-16 16h-96a16 16 135 00-16 16v32a16 16 135 01-16 16h-32a16 16 45 01-16-16v-96a16 16 45 00-16-16h-96a16 16 135 00-16 16v96a16 16 135 01-16 16h-32a16 16 135 00-16 16v32a16 16 45 0016 16h32a16 16 45 0116 16v96a16 16 45 0016 16h160a16 16 135 0016-16v-96a16 16 135 0116-16h352a16 16 45 0116 16v96a16 16 45 0016 16h96a16 16 135 0016-16v-96a16 16 135 0116-16h32a16 16 135 0016-16V400a16 16 45 00-16-16h-32a16 16 45 01-16-16v-96a16 16 45 00-16-16H688a16 16 135 00-16 16z" fill="#c061cb" stroke-width="6.859" stroke-linecap="round" paint-order="markers fill stroke"/></clipPath></defs><g clip-path="url(#b)" transform="matrix(-1.1846 0 0 1.1846 1177.223 -260.334)" opacity=".15" stroke-width=".844" paint-order="markers fill stroke"><path fill="#3c3a3f" d="M160 384h192v128H160z"/><path fill="#5e5c64" d="M128 512h64v96h-64z"/><path fill="#48474c" d="M192 480h224v224H192z"/><path fill="#6a6871" d="M384 448h192v64H384z"/><path fill="#5e5c64" d="M384 512h128v64H384zm192 0h-64v64h64z"/><path fill="#4a484f" d="M576 352h-96v96h96z"/><path fill="#65636b" d="M960 384H768v192h192z"/><path fill="#5e5c64" d="M928 256H768v128h160z"/><path fill="#4b4a50" d="M768 256H640v64h128z"/><path fill="#4a484f" d="M928 576H736v128h192z"/><path fill="#55545b" d="M768 320H576v288h192z"/></g><rect width="214.78" height="222.357" x="14.052" y="370.03" rx="24.052" ry="22.722" transform="skewX(15) scale(1 .96593)" fill="#77767b" paint-order="markers fill stroke"/><rect width="214.78" height="222.357" x="18.32" y="368.995" rx="24.052" ry="22.722" transform="skewX(15) scale(1 .96593)" fill="#deddda" paint-order="markers fill stroke"/><path d="M154.188 371.762c-7.733 0-11.28 4.97-9.755 10.658l43.617 162.782c1.524 5.688 7.737 10.662 15.467 10.662h152.034c7.73 0 11.278-4.974 9.754-10.662L321.688 382.42c-1.524-5.688-7.734-10.658-15.467-10.658z" fill="#3584e4" paint-order="markers fill stroke"/><g stroke-width="3.109"><path style="marker:none" d="M248.073 427.224a5.103 3.907 41.185 00-2.032.598l-18.894 12.905a5.103 3.907 41.185 00-1.196 3.866l6.915 25.81a5.103 3.907 41.185 003.269 3.867l25.81 12.905a5.103 3.907 41.185 004.464 0l18.894-12.905a5.103 3.907 41.185 001.196-3.867l-6.916-25.81a5.103 3.907 41.185 00-3.268-3.866l-25.81-12.905a5.103 3.907 41.185 00-2.432-.598z" fill="#fff"/><path style="marker:none" d="M276.114 442.598l-20.187 13.788-27.577-13.788 20.188-13.788z" fill="#98c1f1"/><path style="marker:none" d="M264.88 485.4l20-13.476-7.331-27.471-19.984 13.649z" fill="#33d17a"/><path d="M262.49 485.314l-27.223-13.477-7.39-27.47 27.298 13.649z" style="marker:none" fill="#e01b24"/></g><path d="M175.28 542.519v15.341c0 8.5 6.843 15.342 15.342 15.342h322.17c8.5 0 15.342-6.843 15.342-15.342v-15.34H190.622z" fill="url(#c)" paint-order="markers fill stroke"/><path d="M162.323 542.519l4.202 15.341c2.245 8.198 15.598 15.342 24.097 15.342h107.39c8.5 0 15.342-7.782 15.342-15.342v-15.34H190.622z" fill="#77767b" paint-order="markers fill stroke"/><g transform="translate(-133.27 -73.792) scale(1.167)"><circle cx="710.744" cy="302.811" r="137.447" fill="#fff"/><path d="M709.905 163.504c-76.834 0-139.205 62.347-139.205 139.182 0 76.834 62.37 139.205 139.205 139.205 76.835 0 139.182-62.37 139.182-139.205 0-76.835-62.347-139.182-139.182-139.182zm-1.148 24.904c7.148 0 14.332.371 19.258 1.124 38.306 6.293 71.971 33.534 86.336 69.926 9.85 24.762 10.54 52.387 2.057 78.107-3.693 11.218-12.595 27.774-14.784 27.774-2.189-.137-16.836-22.704-19.162-29.544-1.231-3.558-2.737-15.475-3.42-28.062-2.737-44.873-4.618-58.567-24.067-78.514-20.005-19.719-49.72-26.125-75.117-13.133-9.987 4.925-23.655 18.19-28.444 27.63-7.387 14.64-8.082 20.255-7.535 68.276l.407 44.041-3.685 5.335c-2.052 2.873-6.17 8.08-9.042 11.363l-5.335 6.148-6.411-8.205c-8.62-10.808-17.803-30.091-20.813-43.635-2.873-12.997-3.132-37.354-.67-49.257 9.577-44.463 47.195-80.726 91.384-88.25 4.789-.753 11.895-1.124 19.043-1.124zm15.167 84.71c4.104-.137 6.685.838 9.832 3.3 8.482 7.252 10.53 23.122 4.784 37.487l-2.176 5.598 4.234 4.785c4.925 5.746 4.793 4.937 2.057 14.377-3.01 10.124-1.904 14.494 7.536 31.458 8.892 15.734 14.228 28.18 13.133 30.095-1.368 2.189-21.347 9.718-31.745 11.77-13.134 2.736-40.635 1.913-53.084-1.507-9.03-2.6-21.065-8.204-31.052-14.497l-6.435-4.115 3.014-6.411c1.642-3.557 4.79-9.32 6.842-13.014 4.789-8.072 6.98-8.208 21.483-.957 11.902 6.02 18.045 6.852 25.023 3.158 7.935-4.105 36.53-23.68 36.53-25.047 0-2.873-6.009-1.093-23.11 6.842-22.026 10.124-25.331 10.405-36.96 2.607-4.515-3.01-8.325-6.158-8.325-6.842 0-1.641.255-1.632 9.832 1.651 5.746 1.915 9.987 2.461 13.133 1.914 5.883-1.095 42.556-16.843 45.43-19.306 4.104-3.967-4.655-1.905-22.44 5.072-26.951 10.671-29.83 10.543-48.3-1.77-8.619-5.746-9.975-7.273-9.975-10.694 0-2.6 1.238-4.783 3.564-6.698l3.684-2.87-2.87-6.556c-8.483-19.563-2.876-37.223 11.626-37.223 8.619 0 13.133 6.305 14.09 19.712l.694 9.426h19.139l.406-4.641c.82-12.04 2.051-16.558 5.335-20.526 4.377-5.062 7.546-6.579 15.07-6.579zm-2.105 16.554c-.904.061-1.963.309-3.374.694-3.283.82-6.435 7.377-6.435 13.396 0 4.515.405 5.083 7.656 8.23 4.24 1.915 8.208 3.137 8.755 2.727 2.326-1.368 4.386-10.533 3.565-15.048-.548-2.599-2.47-5.893-4.522-7.535-2.445-1.881-3.657-2.6-5.645-2.464zm-54.616 1.77c-1.513.105-3.006.799-4.306 2.2-4.104 4.379-3.978 13.544.263 18.47l3.302 3.707 4.928-3.708c4.24-3.283 5.047-4.64 5.047-9.019 0-6.977-4.693-11.964-9.234-11.65z" fill="#241f31"/></g></svg>