<svg xmlns="http://www.w3.org/2000/svg" width="256" height="256"><g opacity=".428"><path fill="#f6f5f4" d="M0 0h64v64H0zM0 64h64v64H0z"/><path fill="#9a9996" d="M0 128h64v64H0z"/><path fill="#f6f5f4" d="M0 192h64v64H0zM64 0h64v64H64z"/><path fill="#deddda" d="M64 64h64v64H64z"/><path fill="#f6f5f4" d="M64 128h64v64H64z"/><path fill="#deddda" d="M64 192h64v64H64z"/><path fill="#f6f5f4" d="M128 0h64v64h-64zM128 64h64v64h-64z"/><path fill="#deddda" d="M128 128h64v64h-64z"/><path fill="#f6f5f4" d="M128 192h64v64h-64z"/><path fill="#9a9996" d="M192 0h64v64h-64z"/><path fill="#f6f5f4" d="M192 64h64v64h-64zM192 128h64v64h-64zM192 192h64v64h-64z"/><path fill="#fff" d="M64 64h32v32H64z"/><path fill="#deddda" d="M144 80h32v32h-32zM80 16h32v32H80z"/><path fill="#c0bfbc" d="M80 16h16v16H80z"/><path fill="#deddda" d="M112 48h16v16h-16z"/><path fill="#c0bfbc" d="M32 80h32v32H32z"/></g></svg>