<svg xmlns="http://www.w3.org/2000/svg" height="256" width="256"><g opacity=".428"><path fill="#deddda" fill-opacity=".427" d="M0 0h64v64H0z"/><path fill="#c0bfbc" d="M0 64h64v64H0z"/><path style="font-variation-settings:normal" fill="#f6f5f4" d="M0 128h64v64H0z"/><path fill="#f6f5f4" d="M0 192h64v64H0zM64 0h64v64H64z"/><path style="font-variation-settings:normal" fill="#fff" d="M64 64h64v64H64z"/><path fill="#deddda" d="M64 128h64v64H64z"/><path style="font-variation-settings:normal" fill="#f6f5f4" d="M64 192h64v64H64z"/><path fill="#deddda" d="M128 0h64v64h-64z"/><path fill="#f6f5f4" d="M128 64h64v64h-64z"/><path style="font-variation-settings:normal" fill="#f6f5f4" d="M128 128h64v64h-64z"/><path fill="#deddda" fill-opacity=".427" d="M128 192h64v64h-64z"/><path style="font-variation-settings:normal" fill="#f6f5f4" d="M192 0h64v64h-64z"/><path fill="#77767b" d="M192 64h64v64h-64z"/><path fill="#f6f5f4" d="M192 128h64v64h-64z"/><path fill="#deddda" fill-opacity=".427" d="M192 192h64v64h-64z"/><path fill="#5e5c64" d="M192 96h32v32h-32z"/><path fill="#9a9996" d="M224 80h16v16h-16z"/><path fill="#fff" d="M96 32h32v32H96z"/><path fill="#deddda" d="M80 16h16v16H80z"/><path fill="#f6f5f4" d="M64 128h32v32H64z"/><path fill="#c0bfbc" fill-opacity=".23" d="M80 144h32v32H80z"/></g></svg>