<svg xmlns="http://www.w3.org/2000/svg" width="256" height="256"><g opacity=".428"><path fill="#deddda" fill-opacity=".427" d="M0 0h64v64H0z"/><path fill="#f6f5f4" d="M0 64h64v64H0z"/><path style="font-variation-settings:normal" fill="#f6f5f4" d="M0 128h64v64H0z"/><path fill="#deddda" d="M0 192h64v64H0z"/><path fill="#f6f5f4" d="M64 0h64v64H64z"/><path style="font-variation-settings:normal" fill="#fff" d="M64 64h64v64H64z"/><path fill="#f6f5f4" d="M64 128h64v64H64z"/><path style="font-variation-settings:normal" fill="#f6f5f4" d="M64 192h64v64H64z"/><path fill="#f6f5f4" d="M128 0h64v64h-64zM128 64h64v64h-64z"/><path style="font-variation-settings:normal" fill="#deddda" d="M128 128h64v64h-64z"/><path fill="#dedcda" fill-opacity=".427" d="M128 192h64v64h-64z"/><path style="font-variation-settings:normal" fill="#deddda" d="M192 0h64v64h-64z"/><path fill="#f6f5f4" d="M192 64h64v64h-64zM192 128h64v64h-64z"/><path fill="#deddda" fill-opacity=".427" d="M192 192h64v64h-64z"/><path style="font-variation-settings:normal" fill="#deddda" d="M96 64h32v32H96zM224 96h32v32h-32zM96 224h32v32H96z"/></g></svg>