<svg id="integrations" xmlns="http://www.w3.org/2000/svg" viewBox="0 0 1430 800"><style>.st0{fill:none;stroke:#e5e7ea;stroke-width:3;stroke-linecap:round;stroke-miterlimit:10}</style><circle class="st0" cx="1404.4" cy="488" r="5"/><path class="st0" d="M138.4 371.3H57.6M161.2 391v99.5c0 10.4 8.4 18.8 18.8 18.8h39c10.4 0 18.8-8.4 18.8-18.8V390c0-10.4 8.4-18.8 18.8-18.8h8m1055.7 211V441c0-10.4-8.4-18.8-18.8-18.8h-45.6c-10.4 0-18.8-8.4-18.8-18.8v-9.8M1429 665.5h-89.4c-10.4 0-18.8-8.4-18.8-18.8V624M161.2 349.2v-69.8c0-10.4-8.4-18.8-18.8-18.8H108c-10.4 0-18.8-8.4-18.8-18.8v-4.3"/><path class="st0" d="M89.2 535.6v-77.7c0-10.4 8.4-18.8 18.8-18.8h34.4c10.4 0 18.8-8.4 18.8-18.8V416m1138.1-171.7l-76.3-.2c-10.4 0-18.8-8.5-18.7-18.8l.1-27.1c0-10.4-8.4-18.8-18.7-18.8h-4.3m-85.5 162.1l.2-143.3c0-10.4 8.5-18.8 18.8-18.7l24.1.1M0 34.8h11.5c10.4 0 18.8 8.4 18.8 18.8v51.7c0 10.4 8.4 18.8 18.8 18.8h93.4c10.4 0 18.8 8.4 18.8 18.8v207.4m1180.6-106h14.3c10.4 0 18.7 8.4 18.8 18.7v115.7c0 10.4 8.4 18.8 18.8 18.8h35.3M31.3 321.2v14.3c0 10.4-8.4 18.8-18.8 18.8H0"/><path class="st0" d="M1237.1 352.4v-14c0-10.4-8.4-18.8-18.8-18.8h-103.7c-10.4 0-18.8 8.4-18.8 18.8v14M90.3 193.8c0-10.4-8.4-18.8-18.8-18.8H49.9c-10.4 0-18.8 8.4-18.8 18.8v86.5"/><path class="st0" d="M90.3 193.8c0-10.4-8.4-18.8-18.8-18.8H49.9c-10.4 0-18.8 8.4-18.8 18.8v86.5M1320.3 441V264.8m-178.6 54.8c10.4 0 18.8-8.4 18.8-18.8V200.4"/><path d="M1106.3 386.6h-21.7c-1.7 0-3-1.3-3-3v-21.7c0-1.7 1.3-3 3-3h21.7c1.7 0 3 1.3 3 3v21.7c0 1.6-1.3 3-3 3z" stroke="#fb8532" fill="none" stroke-width="3" stroke-linecap="round" stroke-miterlimit="10"/><path d="M296.3 385.1h-21.7c-1.7 0-3-1.3-3-3v-21.7c0-1.7 1.3-3 3-3h21.7c1.7 0 3 1.3 3 3v21.7c0 1.7-1.3 3-3 3z" stroke="#34d058" fill="none" stroke-width="3" stroke-linecap="round" stroke-miterlimit="10"/><path class="st0" d="M464.8 97.9h-21.7c-1.7 0-3-1.3-3-3V73.1c0-1.7 1.3-3 3-3h21.7c1.7 0 3 1.3 3 3v21.7c0 1.7-1.3 3.1-3 3.1zM172.1 385.1h-21.7c-1.7 0-3-1.3-3-3v-21.7c0-1.7 1.3-3 3-3h21.7c1.7 0 3 1.3 3 3v21.7c0 1.7-1.4 3-3 3zm-129.9-70H20.5c-1.7 0-3-1.3-3-3v-21.7c0-1.7 1.3-3 3-3h21.7c1.7 0 3 1.3 3 3v21.7c0 1.7-1.3 3-3 3z"/><path d="M100.1 230.1H78.4c-1.7 0-3-1.3-3-3v-21.7c0-1.7 1.3-3 3-3h21.7c1.7 0 3 1.3 3 3v21.7c0 1.7-1.4 3-3 3z" stroke="#2088ff" fill="none" stroke-width="3" stroke-linecap="round" stroke-miterlimit="10"/><path d="M100.1 571.5H78.4c-1.7 0-3-1.3-3-3v-21.7c0-1.7 1.3-3 3-3h21.7c1.7 0 3 1.3 3 3v21.7c0 1.6-1.4 3-3 3z" stroke="#ffd33d" fill="none" stroke-width="3" stroke-linecap="round" stroke-miterlimit="10"/><path class="st0" d="M1171.4 193.3h-21.7c-1.7 0-3-1.3-3-3v-21.7c0-1.7 1.3-3 3-3h21.7c1.7 0 3 1.3 3 3v21.7c0 1.7-1.4 3-3 3z"/><path d="M1331.2 617.1h-21.7c-1.7 0-3-1.3-3-3v-21.7c0-1.7 1.3-3 3-3h21.7c1.7 0 3 1.3 3 3v21.7c0 1.7-1.4 3-3 3z" stroke="#ea4a5a" fill="none" stroke-width="3" stroke-linecap="round" stroke-miterlimit="10"/><path d="M1331.2 258.1h-21.7c-1.7 0-3-1.3-3-3v-21.7c0-1.7 1.3-3 3-3h21.7c1.7 0 3 1.3 3 3v21.7c0 1.7-1.4 3-3 3z" stroke="#8a64d2" fill="none" stroke-width="3" stroke-linecap="round" stroke-miterlimit="10"/><path class="st0" d="M1248 386.6h-21.7c-1.7 0-3-1.3-3-3v-21.7c0-1.7 1.3-3 3-3h21.7c1.7 0 3 1.3 3 3v21.7c0 1.6-1.3 3-3 3zm-1128.9 4.3H81.3m118.4-19.6h-16.5m-71.6 137.3H102m-23.3 0H60.6m3.5 39.2H22.9M75.1 587H29.8m207 0h-91.3m20.3-19.6h-51.5m-54.5 0H47.4m149.9 0H185M1141.7 300h-17.3m135.9 0h-79m175.8 58.8h-25.2m97.1 20h-37.3m37.3-19.6h-21.6M1216 280.4h-23.7m52 0h-12.2m-1113 90.9c-10.4 0-18.8 8.4-18.8 18.7M801 103.6h-37.8m156 0h-105m-66.9 0h-61.4M821 123.2h-40.1m67.8 0h-10.8m-703.5-19.6h-16.6m302.7 0H377m61 19.6h-39.9m85.6 0h-13.8m635.7-19.6h-49.9m92.8 0h-26.1m109.7 0h-54.7m30.5 19.6h-24.1m-44.7 0h-43.7M821 64.4h-31.2m-413.3 0h-20.8m419.1 0h-10.9M801 84c-10.4 0-18.8 8.4-18.8 18.8m378.3-58.6V158M887.2 5.6c0 10.4 8.4 18.8 18.8 18.8h235.8c10.4 0 18.8 8.4 18.8 18.8m112 426.4h-52.5m37.6 19.7h47.8m30.9 0h58.8m-13.7 19.6h-36.2m10.9 19.6h-13.9m-40.1-58.9h-13.9m-8.1 137.1h10.6m10.6 19.6H1227m157.2 0h-30.3m-57.8 19.6h-33.2m99.3 0h-23.8m90.3 0H1378m-177.1-365.5l19.5 19.6m138.8 208.8l19.6-19.5M148.2 280.4h-18.8m95.8 0h-54m29.6-19.8h-21.5M145.5 241h-34.8m120.8-98.1h-52.2m-31.6 0h-31m66.5-19.7h-12M94.8 84H78.2m25.5 19.5H48.3m354.9 1c0 10.4 8.4 18.8 18.8 18.8m693.8-.1c10.4 0 18.8-8.4 18.8-18.8"/><path class="st0" d="M480.3 84h388.1c10.4 0 18.8-8.4 18.8-18.8V.1M337.3 0v65.2c0 10.3 8.4 18.7 18.7 18.8h71.2"/><path class="st0" d="M337.3 0v65.2c0 10.3 8.4 18.7 18.7 18.8h71.2m26.8 26.7v74.1c0 10.4-8.4 18.8-18.8 18.8h-131c-10.4 0-18.8 8.4-18.8 18.8v127.2m-196.3 230l.1 55.7c0 10.3-8.4 18.7-18.8 18.7H0"/><circle class="st0" cx="1237.1" cy="103.6" r="5"/><circle class="st0" cx="1214" cy="469.6" r="5"/><circle class="st0" cx="230.1" cy="280.3" r="5"/><circle class="st0" cx="55.5" cy="508.9" r="5"/></svg>