<svg id="Layer_4" data-name="Layer 4" xmlns="http://www.w3.org/2000/svg" viewBox="0 0 1430 800"><defs><style>.cls-1{fill:none;stroke:#e5e7ea;stroke-linecap:round;stroke-miterlimit:10;stroke-width:3px}</style></defs><path class="cls-1" d="M115.69 301.35v28.52a18.78 18.78 0 0 1-18.78 18.78 18.78 18.78 0 0 1-18.78-18.78v-29.46a18.78 18.78 0 0 0-18.78-18.78H-1.83m0 385.23l115.91.14a18.78 18.78 0 0 1 18.73 18.82l-.08 14.08"/><path class="cls-1" d="M-2.27 321.4H127a18.78 18.78 0 0 1 18.78 18.78v55.64a18.78 18.78 0 0 0 18.78 18.78h41.28m1225.94-96.33h-83.38a18.78 18.78 0 0 1-18.78-18.78v-68.92a18.72 18.72 0 0 0-18.62-18.78h-14.42M141.52 506.67H97.6a18.78 18.78 0 0 0-18.78 18.78v57.93a18.72 18.72 0 0 1-18.65 18.78h-62M1431.78 136.9H1288a18.78 18.78 0 0 1-18.78-18.78v-11.7M-1.22 193h190.13a18.78 18.78 0 0 0 18.78-18.78v-19.86"/><circle class="cls-1" cx="1269.18" cy="101.61" r="4.81"/><circle class="cls-1" cx="207.69" cy="149.3" r="4.81"/><circle class="cls-1" cx="134.54" cy="94.49" r="4.81"/><path class="cls-1" d="M-1.83 94.49h130.28"/><circle class="cls-1" cx="1298.34" cy="424.07" r="4.81"/><circle class="cls-1" cx="1296.75" cy="502.14" r="4.81"/><path class="cls-1" d="M1431.78 424.07h-127.34"/><circle class="cls-1" cx="110.89" cy="455.67" r="4.81"/><circle class="cls-1" cx="1291.74" cy="211.79" r="4.81"/><circle class="cls-1" cx="1195.46" cy="245.66" r="4.81"/><path class="cls-1" d="M-1.83 455.67h107.91"/><circle class="cls-1" cx="107.44" cy="258.67" r="4.81"/><circle class="cls-1" cx="210.64" cy="414.59" r="4.81"/><circle class="cls-1" cx="147.78" cy="506.67" r="4.81"/><path class="cls-1" d="M1272 642.34h34a18.78 18.78 0 0 1 18.78 18.78V719a18.72 18.72 0 0 0 18.65 18.78h89.38"/><circle class="cls-1" cx="1265.79" cy="642.34" r="4.81"/><circle class="cls-1" cx="132.81" cy="704.75" r="4.81"/><circle class="cls-1" cx="115.69" cy="296.05" r="4.81"/><path class="cls-1" d="M-.47 258.67h103.1"/><circle class="cls-1" cx="107.44" cy="568.28" r="4.81"/><path class="cls-1" d="M-1.83 568.28h104.46m1330.15 3.09h-117.25a18.78 18.78 0 0 1-18.78-18.78V507"/><path class="cls-1" d="M1431.78 545.13h-215.41a18.78 18.78 0 0 0-18.78 18.78v19.87"/><circle class="cls-1" cx="1197.59" cy="588.84" r="4.81"/><circle class="cls-1" cx="1342.01" cy="178.25" r="4.81"/><path class="cls-1" d="M1432.45 178.25h-85.63m-151.36 72.22v18.24a18.78 18.78 0 0 0 18.78 18.78h217.54"/></svg>