<svg xmlns="http://www.w3.org/2000/svg" width="1000" height="800"><defs><clipPath clipPathUnits="userSpaceOnUse" id="a"><circle r="19.711" cy="77.264" cx="239.051" style="marker:none" fill="#9141ac" stroke-width=".529" stroke-linecap="round"/></clipPath></defs><path style="line-height:normal;font-variant-ligatures:normal;font-variant-position:normal;font-variant-caps:normal;font-variant-numeric:normal;font-variant-alternates:normal;font-feature-settings:normal;text-indent:0;text-align:start;text-decoration-line:none;text-decoration-style:solid;text-decoration-color:#000;text-transform:none;text-orientation:mixed;white-space:normal;shape-padding:0;isolation:auto;mix-blend-mode:normal;solid-color:#000;solid-opacity:1" d="M775.379 62.033c20.875-.295 41.74 8.089 56.606 22.746 14.866 14.658 23.544 35.403 23.544 56.28 0 20.877-8.678 41.622-23.544 56.28-14.867 14.657-35.731 23.041-56.606 22.746a10.735 10.735 0 00-.153-.002H634.023a10.735 10.735 0 00-1.465 21.367c17.132 2.363 33.41 10.535 45.54 22.864 12.13 12.328 20.035 28.737 22.119 45.906 2.084 17.17-1.668 34.993-10.496 49.865-8.828 14.872-22.679 26.703-38.749 33.095a10.735 10.735 0 003.968 20.708h236.075a10.735 10.735 0 00.152-.002c20.875-.295 41.74 8.089 56.606 22.746 14.866 14.658 23.544 35.403 23.544 56.28 0 20.877-8.678 41.622-23.544 56.28-14.866 14.657-35.73 23.041-56.606 22.746a10.735 10.735 0 00-.152-.002h-46.37a10.735 10.735 0 00-3.355 20.93c17.731 5.837 33.239 18.18 42.904 34.15 9.664 15.971 13.407 35.437 10.353 53.852-3.054 18.416-12.88 35.63-27.183 47.625-14.303 11.995-32.966 18.672-51.632 18.472a10.735 10.735 0 00-.114 0H283.35a10.735 10.735 0 00-.153.002c-20.875.295-41.739-8.089-56.605-22.746-14.867-14.658-23.544-35.403-23.544-56.28 0-20.877 8.677-41.622 23.544-56.28 14.866-14.657 35.73-23.041 56.605-22.746a10.735 10.735 0 00.153.002h46.37a10.735 10.735 0 003.348-20.934c-30.628-10.053-53.383-40.496-54.351-72.716-.969-32.221 19.917-63.978 49.886-75.852a10.735 10.735 0 00-3.954-20.712H88.574a10.735 10.735 0 00-.152.001c-20.876.296-41.74-8.088-56.606-22.746-14.867-14.658-23.544-35.402-23.544-56.28 0-20.877 8.677-41.622 23.544-56.28 14.866-14.657 35.73-23.04 56.606-22.746a10.735 10.735 0 00.152.002h141.203a10.735 10.735 0 001.529-21.36c-19.578-2.816-37.95-13.293-50.344-28.708-12.393-15.416-18.678-35.61-17.222-55.335 1.455-19.726 10.637-38.78 25.158-52.209 14.522-13.43 34.234-21.095 54.013-21.007a10.735 10.735 0 00.048 0h532.267a10.735 10.735 0 00.153-.002z" color="#000" font-weight="400" font-family="sans-serif" overflow="visible" fill="#f6f5f4"/><g transform="matrix(3.68693 0 0 3.68693 177.28 -139.91)"><rect ry="2.884" rx="2.884" y="84.667" x="47.625" height="58.208" width="95.25" style="marker:none"/><rect style="marker:none" width="95.25" height="58.208" x="47.625" y="145.256" rx="2.884" ry="2.884" fill-opacity=".102"/><rect ry="2.884" rx="2.884" y="144.198" x="47.625" height="58.208" width="95.25" style="marker:none" fill="#deddda"/><rect style="marker:none" width="95.25" height="58.208" x="47.625" y="142.875" rx="2.884" ry="2.884" fill="#fff"/><rect ry="1.958" rx="1.958" y="148.167" x="52.917" height="29.104" width="84.667" style="marker:none" fill="#c0bfbc"/><rect style="marker:none" width="84.667" height="29.104" x="52.917" y="148.696" rx="1.958" ry="1.958" fill="#deddda"/><rect style="marker:none" width="63.5" height="7.408" x="63.5" y="137.583" rx=".826" ry=".826"/><rect style="marker:none" width="26.458" height="15.875" x="82.021" y="179.917" rx="2.884" ry="2.884" fill="#deddda"/><rect style="marker:none" width="92.183" height="54.975" x="49.158" y="86.284" rx="1.574" ry="1.574" fill="#4a86cf"/><rect ry="1.013" rx="1.013" y="170.656" x="74.083" height="5.292" width="46.302" style="marker:none" fill="#241f31"/><rect style="marker:none" width="6.615" height="5.292" x="121.708" y="170.656" rx="1.013" ry="1.013" fill="#241f31"/><rect ry="1.013" rx="1.013" y="170.656" x="129.646" height="5.292" width="6.615" style="marker:none" fill="#241f31"/><rect style="marker:none" width="5.292" height="5.292" x="125.677" y="164.042" rx="1.013" ry="1.013" fill="#241f31"/><rect ry="1.013" rx="1.013" y="164.042" x="117.74" height="5.292" width="6.615" style="marker:none" fill="#241f31"/><rect style="marker:none" width="6.615" height="5.292" x="109.802" y="164.042" rx="1.013" ry="1.013" fill="#241f31"/><rect ry="1.013" rx="1.013" y="164.042" x="101.865" height="5.292" width="6.615" style="marker:none" fill="#241f31"/><rect style="marker:none" width="6.615" height="5.292" x="93.927" y="164.042" rx="1.013" ry="1.013" fill="#241f31"/><rect ry="1.013" rx="1.013" y="164.042" x="85.99" height="5.292" width="6.615" style="marker:none" fill="#241f31"/><rect style="marker:none" width="6.615" height="5.292" x="78.052" y="164.042" rx="1.013" ry="1.013" fill="#241f31"/><rect ry="1.013" rx="1.013" y="164.042" x="70.115" height="5.292" width="6.615" style="marker:none" fill="#241f31"/><rect style="marker:none" width="6.615" height="5.292" x="62.177" y="164.042" rx="1.013" ry="1.013" fill="#241f31"/><rect ry="1.013" rx="1.013" y="157.427" x="121.708" height="5.292" width="6.615" style="marker:none" fill="#241f31"/><rect style="marker:none" width="6.615" height="5.292" x="113.771" y="157.427" rx="1.013" ry="1.013" fill="#241f31"/><rect ry="1.013" rx="1.013" y="157.427" x="105.833" height="5.292" width="6.615" style="marker:none" fill="#241f31"/><rect style="marker:none" width="6.615" height="5.292" x="97.896" y="157.427" rx="1.013" ry="1.013" fill="#241f31"/><rect ry="1.013" rx="1.013" y="157.427" x="89.958" height="5.292" width="6.615" style="marker:none" fill="#241f31"/><rect style="marker:none" width="6.615" height="5.292" x="82.021" y="157.427" rx="1.013" ry="1.013" fill="#241f31"/><rect ry="1.013" rx="1.013" y="157.427" x="74.083" height="5.292" width="6.615" style="marker:none" fill="#241f31"/><rect style="marker:none" width="6.615" height="5.292" x="66.146" y="157.427" rx="1.013" ry="1.013" fill="#241f31"/><rect ry="1.013" rx="1.013" y="157.427" x="54.24" height="5.292" width="10.583" style="marker:none" fill="#241f31"/><rect style="marker:none" width="10.583" height="5.292" x="125.677" y="150.813" rx="1.013" ry="1.013" fill="#241f31"/><rect ry="1.013" rx="1.013" y="150.813" x="117.74" height="5.292" width="6.615" style="marker:none" fill="#241f31"/><rect style="marker:none" width="6.615" height="5.292" x="109.802" y="150.813" rx="1.013" ry="1.013" fill="#241f31"/><rect ry="1.013" rx="1.013" y="150.813" x="101.865" height="5.292" width="6.615" style="marker:none" fill="#241f31"/><rect style="marker:none" width="6.615" height="5.292" x="93.927" y="150.813" rx="1.013" ry="1.013" fill="#241f31"/><rect ry="1.013" rx="1.013" y="150.813" x="85.99" height="5.292" width="6.615" style="marker:none" fill="#241f31"/><rect style="marker:none" width="6.615" height="5.292" x="78.052" y="150.813" rx="1.013" ry="1.013" fill="#241f31"/><rect ry="1.013" rx="1.013" y="150.813" x="70.115" height="5.292" width="6.615" style="marker:none" fill="#241f31"/><rect style="marker:none" width="6.615" height="5.292" x="62.177" y="150.813" rx="1.013" ry="1.013" fill="#241f31"/><rect ry="1.013" rx="1.013" y="150.813" x="54.24" height="5.292" width="6.615" style="marker:none" fill="#241f31"/><rect ry="1.013" rx="1.013" y="164.042" x="54.24" height="5.292" width="6.615" style="marker:none" fill="#241f31"/><rect ry="1.013" rx="1.013" y="170.656" x="66.146" height="5.292" width="6.615" style="marker:none" fill="#241f31"/><rect style="marker:none" width="10.583" height="5.292" x="54.24" y="170.656" rx="1.013" ry="1.013" fill="#241f31"/><rect style="marker:none" width="6.615" height="5.292" x="129.646" y="157.427" rx="1.013" ry="1.013" fill="#241f31"/><rect ry="1.013" rx="1.013" y="157.427" x="132.292" height="11.906" width="3.969" style="marker:none" fill="#241f31"/></g><g transform="matrix(2.79965 0 0 2.79965 -478.642 20.579)"><rect style="marker:none" width="27.359" height="26.458" x="254.983" y="152.889" rx="7.673" ry="7.673" fill="none" stroke="#fff" stroke-width="4.233" stroke-linecap="round"/><circle r="21.299" cy="152.003" cx="251.486" style="marker:none" fill="#fff"/><path style="marker:none" d="M251.369 160.999a21.84 21.84 0 00-21.84 21.84 21.84 21.84 0 0021.84 21.84 21.84 21.84 0 0021.42-17.594h5.54c1.329 0 2.4-1.07 2.4-2.4 0-1.329-1.071-2.399-2.4-2.399h-5.139A21.84 21.84 0 00251.37 161z" fill-opacity=".102"/><path style="marker:none" fill="#fff" d="M230.187 148.96h42.333v32.015h-42.333z"/><circle style="marker:none" cx="251.486" cy="180.843" r="21.299" fill="#fff"/><g transform="matrix(.9094 0 0 .9094 34.094 81.74)" clip-path="url(#a)"><circle r="19.711" cy="77.264" cx="239.051" style="marker:none" fill="#deddda"/><circle style="marker:none" cx="239.051" cy="85.201" r="19.711" fill="#241f31"/></g></g><g opacity=".42" fill="none" stroke="#fff" stroke-width="1.323" stroke-linecap="round"><path d="M164.7 359.125h136.445M164.7 331.426h89.959M169.928 304.69h82.804M248.481 437.127v-41.275c0-5.781 3.526-9.25 10.28-9.25h41.496" stroke-width="13.62613266"/><path d="M164.564 358.875a13.625 13.625 0 01-11.8-6.813 13.625 13.625 0 010-13.625 13.625 13.625 0 0111.8-6.813M301.176 386.583a13.625 13.625 0 0011.8-6.813 13.625 13.625 0 000-13.625 13.625 13.625 0 00-11.8-6.812M251.077 331.666a13.625 13.625 0 0011.8-6.812 13.625 13.625 0 000-13.626 13.625 13.625 0 00-11.8-6.812M166.814 304.375a13.625 13.625 0 01-9.634-3.99 13.625 13.625 0 01-3.991-9.635" style="marker:none" stroke-width="13.62613266"/><path d="M153.011 289.05V252.8" stroke-width="13.62613266"/></g><g transform="matrix(.82452 0 0 .82452 -3855.55 5220.749)"><path d="M5296-6055.48l-42.94.01-49.56 59.995 120.222 81.742 51.283-70.814-70.662-49.897s-22.185 26.65-23.328 26.379l-22.515-.91z" fill="#dbbca7"/><path d="M5254.434-6010.39l33.788-45.09 41.162.116L5347-6077.48l67 52-82.5 107.5-60-44.5 45.442-63.033-12.599-8.931-16.91 21.437c-8.767 11.92-21.334 9.352-32.999 2.617z" fill="#865e3c"/><rect style="marker:none" width="22.104" height="101.533" x="-7990.461" y="-940.083" rx="11.052" ry="11.052" transform="rotate(125.325)" fill="#dbbca7"/><path d="M5304.344-6034.445l-16.91 21.44c-7.87 10.697-18.8 9.71-29.391 4.529l-1.355 1.62s18.577 11.54 30.058-2.462l19.135-24.037z" fill-opacity=".067"/><rect transform="rotate(125.325)" ry="11.052" rx="11.052" y="-940.083" x="-7968.357" height="101.533" width="22.104" style="marker:none" fill="#dbbca7"/><rect style="marker:none" width="22.104" height="101.533" x="-7946.252" y="-940.083" rx="11.052" ry="11.052" transform="rotate(125.325)" fill="#dbbca7"/><rect transform="rotate(125.325)" ry="11.052" rx="11.052" y="-940.083" x="-7924.148" height="101.533" width="22.104" style="marker:none" fill="#dbbca7"/><path d="M5206.128-5998.682l-2.682 3.233 124.2 85.914c4.75 2.25 9.656 2.032 12.343-.655-5.125 1.562-7.262-.299-10.574-2.174z" fill-opacity=".067"/><circle transform="rotate(30)" r="11.662" cy="-7781.16" cx="1577.628" style="marker:none" fill="#865e3c"/><path d="M5306.13-6020.496l-33.412 44.901 65.054 51.089 32.527-44.725z" fill="#dbbca7"/><path d="M5296.312-5962.486l5.101 5.016 38.582 29.36a11.015 11.015 0 0015.084-2.218 11.025 11.025 0 01-13.084.217z" style="marker:none" fill-opacity=".067"/><rect transform="rotate(30)" ry="11.866" rx="11.866" y="-7815.289" x="1588.613" height="41.737" width="23.733" style="marker:none" fill="#865e3c"/><rect transform="rotate(30)" style="marker:none" width="23.733" height="41.737" x="1612.345" y="-7815.289" rx="11.866" ry="11.866" fill="#865e3c"/><rect transform="rotate(30)" ry="11.866" rx="11.866" y="-7808.651" x="1636.078" height="35.099" width="23.733" style="marker:none" fill="#865e3c"/><path d="M5321.701-5998.472l5.102 5.015 38.582 29.36a11.015 11.015 0 0015.084-2.217 11.025 11.025 0 01-13.084.217zM5309.113-5980.369l5.101 5.016 38.582 29.36a11.015 11.015 0 0015.084-2.218 11.025 11.025 0 01-13.084.217z" style="marker:none" fill-opacity=".067"/><path style="marker:none" d="M5280.482-5967.092a11.88 11.88 0 00-2.992 3.436l-7 12.123a11.662 11.662 0 01-.207 1.871c.071-.133.13-.27.205-.402l9.002-15.592c.297-.513.636-.984.992-1.436zm-30.793 8.026a11.662 11.662 0 00-2.943 3.367 11.662 11.662 0 004.27 15.93 11.662 11.662 0 0014.986-2.9 11.662 11.662 0 01-12.986.9 11.662 11.662 0 01-4.27-15.93 11.662 11.662 0 01.943-1.367zm51.344 3.842c-.152.118-.298.246-.445.373a12.13 12.13 0 01-.545 1.062c.296-.513.634-.985.99-1.435zm-31.92 8.87a11.662 11.662 0 01-.168.317 11.662 11.662 0 01-1.97 2.516 11.837 11.837 0 005.857 11.666 11.828 11.828 0 0015.22-2.909 11.833 11.833 0 01-13.22.909 11.83 11.83 0 01-5.719-12.498zm21.928 8.157a11.887 11.887 0 01-2.543 3.06 11.837 11.837 0 004.887 15.149 11.828 11.828 0 0015.222-2.912 11.833 11.833 0 01-13.222.912 11.84 11.84 0 01-4.344-16.21zm27.223.592c-.106.082-.207.173-.31.26l-.677 1.171c.296-.511.632-.982.987-1.431zm-6.67 11.273a11.888 11.888 0 01-2.543 3.06 11.84 11.84 0 004.887 15.151 11.828 11.828 0 0015.216-2.906 11.836 11.836 0 01-13.216.906 11.842 11.842 0 01-4.344-16.21z" fill="#63452c"/></g><g transform="matrix(3.77953 0 0 3.77953 -175 -33)"><rect ry="11.642" rx="11.642" y="158.75" x="248.708" height="35.454" width="23.283" style="marker:none" fill-opacity=".102"/><rect style="marker:none" width="23.283" height="35.454" x="248.708" y="157.692" rx="11.642" ry="11.642" fill="#deddda"/><rect ry="11.642" rx="11.642" y="156.104" x="248.708" height="35.454" width="23.283" style="marker:none" fill="#fff"/><path d="M260.615 170.656v-14.552" fill="none" stroke="#c0bfbc" stroke-width=".265"/><rect ry="2.646" rx="2.646" y="160.073" x="257.969" height="13.229" width="5.292" style="marker:none" fill="#77767b"/><circle style="marker:none" cx="260.603" cy="162.003" r="1.455" fill="#c0bfbc" fill-opacity=".102"/></g></svg>