<svg xmlns="http://www.w3.org/2000/svg" width="1026" height="1026"><defs><clipPath id="b" clipPathUnits="userSpaceOnUse"><circle cx="343.916" cy="358.412" r="130.412" fill="#1a5fb4" stroke-width="10.529" stroke-linecap="round"/></clipPath><clipPath id="c" clipPathUnits="userSpaceOnUse"><circle cx="583" cy="597.497" r="108.672" fill="#1a5fb4" stroke-width="8.774" stroke-linecap="round"/></clipPath><clipPath id="f" clipPathUnits="userSpaceOnUse"><circle cx="450.318" cy="793.701" r="40.033" fill="#1a5fb4" stroke-width="3.232" stroke-linecap="round"/></clipPath><clipPath id="d" clipPathUnits="userSpaceOnUse"><circle cx="319.345" cy="652.461" r="38.151" fill="#1a5fb4" stroke-width="3.081" stroke-linecap="round"/></clipPath><clipPath id="e" clipPathUnits="userSpaceOnUse"><circle r="32.586" cy="649.544" cx="858.419" fill="#1a5fb4" stroke-width="2.631" stroke-linecap="round"/></clipPath><clipPath id="a" clipPathUnits="userSpaceOnUse"><circle r="73.728" cy="352.655" cx="751.521" fill="#1a5fb4" stroke-width="5.953" stroke-linecap="round"/></clipPath></defs><path d="M309.968 312.659L660.07 183.584l-28.157 169.9 121.47-2.171 104.221 293.4-77.663 203.547-158.233-210.917-347.95 191.708 43.143-178.853 306.346-17.228L380.13 384.476l-71.425 38.126 9.476 227.485" fill="none" stroke="#1a5fb4" stroke-width="7.722" stroke-linecap="round" stroke-linejoin="round" stroke-dasharray="7.722,30.88800000000000168"/><circle cx="751.521" cy="352.655" r="73.728" fill="#c64600"/><g clip-path="url(#a)"><path d="M712.162 362.519l14.738-3.332h51.826l13.738 3.196c8.075 2.163 15.122 6.114 15.122 16.107v51.573a3.1 3.1 0 01-3.106 3.106H700.398a3.1 3.1 0 01-3.106-3.106v-51.996c0-8.85 5.763-13.108 14.87-15.548z" fill="#e66100"/><rect width="51.706" height="105.086" x="726.894" y="299.394" rx="25.853" ry="25.853" fill="#ffdbac"/></g><path d="M744.77 307.98c-4.152-.023-8.987.075-11.718.558-5.461.966-14.373 2.996-18.373 5.689-12.962 8.724-.18 47.61-10.373 51.5-1.783.68-5.302 3.722-6.318 7.476-.624 2.304 3.55 2.967 6.138 3.89 6.084 2.17 31.398 5.983 31.398 5.983s4.122-4.65-.64-11.838c-7.984-12.051-4.733-39.769-4.733-39.769h44.668s3.907 27.718-5.046 39.703c-5.161 6.909-.516 11.904-.516 11.904s25.314-3.813 31.398-5.983c2.63-.938 6.511-1.47 6.025-3.855-.466-2.28-3.041-5.82-6.235-7.574-9.565-5.251 2.619-42.713-10.343-51.437-4-2.693-12.912-4.723-18.373-5.69-5.461-.966-19.339-.388-19.339-.388s-3.468-.145-7.62-.169z" fill-opacity=".104"/><g transform="matrix(1.51493 0 0 1.51493 -207.67 -227.611)" clip-path="url(#b)"><circle cx="343.916" cy="358.412" r="130.412" fill="#26a269"/><path d="M280.89 381.72l23.982-5.422h84.333l22.355 5.2c13.14 3.52 24.607 9.949 24.607 26.21v83.922c0 2.8-2.254 5.054-5.054 5.054H261.747a5.043 5.043 0 01-5.055-5.054v-84.61c0-14.4 9.378-21.33 24.197-25.3z" fill="#2ec27e"/><path d="M280.89 387.523l23.982-5.421h84.333l22.355 5.2c13.14 3.52 24.607 9.949 24.607 26.21v83.922c0 2.8-2.254 5.054-5.054 5.054H261.747a5.043 5.043 0 01-5.055-5.054v-84.61c0-14.4 9.378-21.33 24.197-25.3z" fill="#28aa6d"/><rect ry="42.069" rx="42.069" y="292.908" x="304.86" height="171" width="84.137" fill-opacity=".078"/><rect width="84.137" height="171" x="304.863" y="279" rx="42.069" ry="42.069" fill="#cf9a62"/><rect ry="42.069" rx="42.069" y="283.171" x="304.863" height="148.783" width="84.137" fill="#c68642"/><path d="M332.584 352.418c-5.914 0-11.654 4.843-10.673 10.676v12.295h-17.048v32.543c0 23.306 18.763 42.068 42.069 42.068S389 431.238 389 407.932v-32.543h-24.205v-12.295a10.653 10.653 0 00-10.676-10.676z" fill="#63452c"/><rect width="16.044" height="5.122" x="321.728" y="320.281" rx="2.561" ry="2.561" fill="#865e3c"/><rect ry="2.561" rx="2.561" y="320.281" x="350.577" height="5.122" width="16.044" fill="#865e3c"/><rect width="27.212" height="30.43" x="329.72" y="360.182" rx="5.054" ry="5.054" fill="#c68642"/><path d="M335.642 370.1a2.55 2.55 0 002.553 2.484h10.921a2.552 2.552 0 002.554-2.484h-16.028z" fill="#865e3c"/></g><g fill="#0c2c53"><path style="line-height:normal;font-variant-ligatures:normal;font-variant-position:normal;font-variant-caps:normal;font-variant-numeric:normal;font-variant-alternates:normal;font-variant-east-asian:normal;font-feature-settings:normal;font-variation-settings:normal;text-indent:0;text-align:start;text-decoration-line:none;text-decoration-style:solid;text-decoration-color:#000;text-transform:none;text-orientation:mixed;white-space:normal;shape-padding:0;shape-margin:0;inline-size:0;isolation:auto;mix-blend-mode:normal;solid-color:#000;solid-opacity:1" d="M319.402 170.335c-46.725 0-84.484 37.759-84.484 84.484v21.76c.725-.01 1.446-.024 2.175-.024h6.915v-21.736a75.13 75.13 0 0175.394-75.394h1.734a75.13 75.13 0 0175.394 75.394v23.144c3.11.408 6.148.894 9.09 1.468v-24.612c0-46.725-37.759-84.484-84.484-84.484z" color="#000" font-weight="400" font-family="sans-serif" overflow="visible" fill="#3d3846"/><path d="M255.444 318.373a34.07 34.07 0 01-29.505-17.035 34.07 34.07 0 010-34.07 34.07 34.07 0 0129.505-17.034v34.07zM375.553 318.373c12.172 0 26.472-6.494 32.558-17.035a34.07 34.07 0 000-34.07c-6.086-10.54-20.386-17.034-32.558-17.034z" fill="#3d3846"/><path d="M255.444 322.953a34.07 34.07 0 01-29.505-17.035 34.07 34.07 0 010-34.07 34.07 34.07 0 0129.505-17.034v34.07zM375.553 322.953c12.172 0 26.472-6.494 32.558-17.035a34.07 34.07 0 000-34.07c-6.086-10.54-20.386-17.034-32.558-17.034z" fill="#2d2933"/></g><circle r="139.854" cy="623.04" cx="613.02" fill="#f66151"/><circle r="73.728" cy="814.925" cx="281.937" fill="#b5835a"/><circle r="38.151" cy="652.461" cx="319.345" fill="#c061cb"/><circle cx="858.419" cy="649.544" r="32.586" fill="#1d7d51"/><g transform="matrix(1.28694 0 0 1.28694 -137.261 -145.896)" clip-path="url(#c)"><path d="M589.666 512.957a46.773 46.773 0 00-45.36 35.365h-.03l-31.415 127.67h153.602l-31.414-127.67h-.022a46.773 46.773 0 00-45.361-35.365z" fill="#3d3846"/><path d="M559.447 564.887v31.765a29.301 29.301 0 0029.366 29.366 29.301 29.301 0 0029.365-29.366V564.81z" fill="#e0ac69"/><circle cx="580.491" cy="576.559" r="3.29" fill="#63452c"/><rect width="5.501" height="9.717" x="592.35" y="571.014" rx="2.75" ry="2.75" fill="#63452c"/><rect style="font-variation-settings:normal" width="119.012" height="71.737" x="529.932" y="645.318" rx="26.073" ry="26.073" fill="#ed333b"/><path d="M579.216 620.908h18.72l-.19 33.279c0 9.167-18.648 9.167-18.648 0z" fill="#e0ac69"/></g><g clip-path="url(#d)"><rect width="33.151" height="43.945" x="302.732" y="654.962" rx="16.576" ry="16.576" fill="#613583" stroke="#613583" stroke-width="6" stroke-linecap="round"/><circle cx="319.308" cy="643.821" r="15.326" fill="#8d5524"/></g><circle cx="771.427" cy="839.93" r="38.151" fill="#134583"/><g transform="translate(452.082 187.47)" clip-path="url(#d)"><rect ry="16.576" rx="16.576" y="654.962" x="302.732" height="43.945" width="33.151" fill="#0a294e" stroke="#0a294e" stroke-width="6" stroke-linecap="round"/><circle r="12.619" cy="643.821" cx="319.308" fill="#3584e4"/></g><g clip-path="url(#e)"><ellipse cx="859.207" cy="674.006" rx="24.551" ry="22.161" fill="#26a269"/><path d="M859.207 629.627c-8.521 0-15.38 6.86-15.38 15.38v12.098c0 5.028 2.398 9.465 6.107 12.268v-25.045h18.545v25.047c3.71-2.803 6.109-7.24 6.109-12.27v-12.097c0-8.522-6.86-15.381-15.381-15.381z" fill="#f6d32d"/><circle cx="859.207" cy="645.537" r="11.627" fill="#f1c27d"/></g><circle r="27.021" cy="182.201" cx="656.007" fill="#c64600"/><g clip-path="url(#d)" transform="matrix(.70828 0 0 .70828 429.822 -279.923)" stroke-width="1.412"><path d="M319.308 654.414c11.86 0 21.407 10.044 21.407 22.52 0 1.191-.125 16.037-.357 16.957-2.199 8.727-14.056 6.07-21.097 6.065-7.091-.006-19.074 2.719-21.073-6.355-.187-.849-.287-15.599-.287-16.666 0-12.477 9.548-22.521 21.407-22.521z" fill="#ff7800"/><circle cx="319.308" cy="643.821" r="12.619" fill="#ffdbac"/></g><path d="M744.77 296.396c-4.152-.024-8.987.074-11.718.557-5.461.967-14.373 2.997-18.373 5.69-12.962 8.724-21.12 35.604-20.354 46.488.765 10.884 3.717 14.208 9.801 16.378s31.398 5.983 31.398 5.983-8.638-12.282-8.175-20.894c.463-8.61 0-22.713 0-22.713h50.083s-.463 14.102 0 22.713c.463 8.612-8.175 20.894-8.175 20.894s25.314-3.814 31.398-5.983c6.084-2.17 9.036-5.494 9.801-16.378.766-10.884-7.392-37.764-20.354-46.489-4-2.692-12.912-4.722-18.373-5.689-5.461-.966-19.339-.389-19.339-.389s-3.468-.145-7.62-.168z" fill="#3d3846"/><path d="M732.182 312.953c-11.085 0-20.118 9.033-20.118 20.117 0 11.085 9.033 20.118 20.118 20.118 11.084 0 20.117-9.033 20.117-20.118 0-11.084-9.033-20.117-20.117-20.117zm0 4.348c8.735 0 15.77 7.034 15.77 15.77 0 8.734-7.035 15.769-15.77 15.769a15.737 15.737 0 01-15.77-15.77c0-8.735 7.035-15.77 15.77-15.77zM772.416 312.953c-11.084 0-20.117 9.033-20.117 20.117 0 11.085 9.033 20.118 20.117 20.118 10.933 0 19.829-8.8 20.07-19.676l.002-.006a2.174 2.174 0 00.043-.436 2.174 2.174 0 00-.043-.427c-.234-10.884-9.134-19.69-20.072-19.69zm0 4.348a15.735 15.735 0 0115.768 15.77c0 8.734-7.033 15.769-15.768 15.769a15.737 15.737 0 01-15.77-15.77c0-8.735 7.035-15.77 15.77-15.77z" style="line-height:normal;font-variant-ligatures:normal;font-variant-position:normal;font-variant-caps:normal;font-variant-numeric:normal;font-variant-alternates:normal;font-variant-east-asian:normal;font-feature-settings:normal;font-variation-settings:normal;text-indent:0;text-align:start;text-decoration-line:none;text-decoration-style:solid;text-decoration-color:#000;text-transform:none;text-orientation:mixed;white-space:normal;shape-padding:0;shape-margin:0;inline-size:0;isolation:auto;mix-blend-mode:normal;solid-color:#000;solid-opacity:1" color="#000" font-weight="400" font-family="sans-serif" overflow="visible" fill="#241f31"/><path d="M-828.632 312.659l350.102-129.075-28.157 169.9 121.469-2.171 104.222 293.4-77.663 203.547-158.233-210.917-347.95 191.708 43.143-178.853 306.345-17.228-243.115-248.494-71.425 38.126 9.476 227.485" fill="none" stroke="#1a5fb4" stroke-width="7.722" stroke-linecap="round" stroke-dasharray="7.722,30.888"/><circle r="73.728" cy="352.655" cx="-387.079" fill="#144786"/><g transform="translate(-1138.6)" clip-path="url(#a)" fill="#3584e4"><path d="M712.162 362.519l14.738-3.332h51.826l13.738 3.196c8.075 2.163 15.122 6.114 15.122 16.107v51.573a3.1 3.1 0 01-3.106 3.106H700.398a3.1 3.1 0 01-3.106-3.106v-51.996c0-8.85 5.763-13.108 14.87-15.548z"/><rect ry="25.853" rx="25.853" y="299.394" x="726.894" height="105.086" width="51.706"/></g><g clip-path="url(#b)" transform="matrix(1.51493 0 0 1.51493 -1346.27 -227.611)"><circle r="130.412" cy="358.412" cx="343.916" fill="#1a5fb4"/><path d="M280.89 381.72l23.982-5.422h84.333l22.355 5.2c13.14 3.52 24.607 9.949 24.607 26.21v83.922c0 2.8-2.254 5.054-5.054 5.054H261.747a5.043 5.043 0 01-5.055-5.054v-84.61c0-14.4 9.378-21.33 24.197-25.3z" fill="#3584e4"/><rect ry="42.069" rx="42.069" y="279" x="304.863" height="171" width="84.137" fill="#3584e4"/><path d="M332.584 352.418c-5.914 0-11.654 4.843-10.673 10.676v12.295h-17.048v32.543c0 23.306 18.763 42.068 42.069 42.068S389 431.238 389 407.932v-32.543h-24.205v-12.295a10.653 10.653 0 00-10.676-10.676z" fill="#134787"/><rect ry="2.561" rx="2.561" y="320.281" x="321.728" height="5.122" width="16.044" fill="#1a5fb4"/><rect width="16.044" height="5.122" x="350.577" y="320.281" rx="2.561" ry="2.561" fill="#1a5fb4"/><rect ry="5.054" rx="5.054" y="360.182" x="329.72" height="30.43" width="27.212" fill="#3584e4"/><rect ry="2.561" rx="2.561" y="367.461" x="335.634" height="5.122" width="16.044" fill="#1a5fb4"/></g><g fill="#0c2c53"><path d="M-819.198 170.335c-46.725 0-84.484 37.759-84.484 84.484v21.76c.725-.01 1.446-.024 2.175-.024h6.915v-21.736a75.13 75.13 0 0175.394-75.394h1.734a75.13 75.13 0 0175.394 75.394v23.144c3.11.408 6.148.894 9.09 1.468v-24.612c0-46.725-37.759-84.484-84.484-84.484z" style="line-height:normal;font-variant-ligatures:normal;font-variant-position:normal;font-variant-caps:normal;font-variant-numeric:normal;font-variant-alternates:normal;font-variant-east-asian:normal;font-feature-settings:normal;font-variation-settings:normal;text-indent:0;text-align:start;text-decoration-line:none;text-decoration-style:solid;text-decoration-color:#000;text-transform:none;text-orientation:mixed;white-space:normal;shape-padding:0;shape-margin:0;inline-size:0;isolation:auto;mix-blend-mode:normal;solid-color:#000;solid-opacity:1" color="#000" font-weight="400" font-family="sans-serif" overflow="visible"/><path d="M-883.156 318.373a34.07 34.07 0 01-29.505-17.035 34.07 34.07 0 010-34.07 34.07 34.07 0 0129.505-17.034v34.07zM-763.047 318.373c12.172 0 26.472-6.494 32.558-17.035a34.07 34.07 0 000-34.07c-6.086-10.54-20.386-17.034-32.558-17.034z"/></g><circle cx="-525.58" cy="623.04" r="139.854" fill="#1a5fb4"/><circle cx="-856.663" cy="814.925" r="73.728" fill="#1a5fb4"/><circle cx="-819.255" cy="652.461" r="38.151" fill="#1a5fb4"/><circle r="32.586" cy="649.544" cx="-280.181" fill="#1a5fb4"/><g clip-path="url(#c)" transform="matrix(1.28694 0 0 1.28694 -1275.861 -145.896)"><path d="M589.666 512.957a46.773 46.773 0 00-45.36 35.365h-.03l-31.415 127.67h153.602l-31.414-127.67h-.022a46.773 46.773 0 00-45.361-35.365z" fill="#0c2c53"/><ellipse ry="47.557" rx="95.114" cy="693.443" cx="588.886" fill="#1c71d8"/><path d="M559.447 564.887v31.765a29.301 29.301 0 0029.366 29.366 29.301 29.301 0 0029.365-29.366v-31.015h-52.125a29.63 29.63 0 01-6.606-.75z" fill="#3584e4"/><circle r="3.29" cy="576.559" cx="580.491" fill="#0c2c53"/><rect ry="2.75" rx="2.75" y="571.014" x="592.35" height="9.717" width="5.501" fill="#0c2c53"/><path d="M579.216 620.908h18.72l6 34.99c0 9.167-31.055 9.01-31.055-.157z" fill="#3584e4"/></g><g transform="translate(-1138.6)" clip-path="url(#d)"><rect ry="16.576" rx="16.576" y="654.962" x="302.732" height="43.945" width="33.151" fill="#1c71d8" stroke="#1c71d8" stroke-width="6" stroke-linecap="round"/><circle r="15.326" cy="643.821" cx="319.308" fill="#0c2c53"/></g><circle r="38.151" cy="839.93" cx="-367.173" fill="#134583"/><g clip-path="url(#d)" transform="translate(-686.518 187.47)"><rect width="33.151" height="43.945" x="302.732" y="654.962" rx="16.576" ry="16.576" fill="#0a294e" stroke="#0a294e" stroke-width="6" stroke-linecap="round"/><circle cx="319.308" cy="643.821" r="12.619" fill="#3584e4"/></g><g transform="translate(-1138.6)" clip-path="url(#e)"><ellipse ry="22.161" rx="24.551" cy="674.006" cx="859.207" fill="#1c71d8"/><path d="M859.207 629.627c-8.521 0-15.38 6.86-15.38 15.38v12.098c0 5.028 2.398 9.465 6.107 12.268v-25.045h18.545v25.047c3.71-2.803 6.109-7.24 6.109-12.27v-12.097c0-8.522-6.86-15.381-15.381-15.381z" fill="#3584e4"/><circle r="11.627" cy="645.537" cx="859.207" fill="#62a0ea"/></g><circle cx="-482.593" cy="182.201" r="27.021" fill="#1a5fb4"/><g transform="matrix(.70828 0 0 .70828 -708.778 -279.923)" clip-path="url(#d)" stroke-width="1.412"><path d="M319.308 654.414c11.86 0 21.407 10.044 21.407 22.52 0 1.191-.125 16.037-.357 16.957-2.199 8.727-14.056 6.07-21.097 6.065-7.091-.006-19.074 2.719-21.073-6.355-.187-.849-.287-15.599-.287-16.666 0-12.477 9.548-22.521 21.407-22.521z" fill="#1c71d8"/><circle r="12.619" cy="643.821" cx="319.308" fill="#62a0ea"/></g><path d="M-393.83 296.396c-4.152-.024-8.987.074-11.718.557-5.461.967-14.373 2.997-18.373 5.69-12.962 8.724-21.12 35.604-20.354 46.488.765 10.884 3.717 14.208 9.801 16.378s31.398 5.983 31.398 5.983-8.638-12.282-8.175-20.894c.463-8.61 0-22.713 0-22.713h50.083s-.463 14.102 0 22.713c.463 8.612-8.176 20.894-8.176 20.894s25.315-3.814 31.399-5.983c6.084-2.17 9.036-5.494 9.801-16.378.766-10.884-7.392-37.764-20.354-46.489-4-2.692-12.912-4.722-18.373-5.689-5.461-.966-19.339-.389-19.339-.389s-3.468-.145-7.62-.168z" fill="#1a5fb4"/><path style="line-height:normal;font-variant-ligatures:normal;font-variant-position:normal;font-variant-caps:normal;font-variant-numeric:normal;font-variant-alternates:normal;font-variant-east-asian:normal;font-feature-settings:normal;font-variation-settings:normal;text-indent:0;text-align:start;text-decoration-line:none;text-decoration-style:solid;text-decoration-color:#000;text-transform:none;text-orientation:mixed;white-space:normal;shape-padding:0;shape-margin:0;inline-size:0;isolation:auto;mix-blend-mode:normal;solid-color:#000;solid-opacity:1" d="M-406.418 312.953c-11.085 0-20.118 9.033-20.118 20.117 0 11.085 9.033 20.118 20.118 20.118 11.084 0 20.117-9.033 20.117-20.118 0-11.084-9.033-20.117-20.117-20.117zm0 4.348c8.734 0 15.77 7.034 15.77 15.77 0 8.734-7.036 15.769-15.77 15.769a15.737 15.737 0 01-15.77-15.77c0-8.735 7.035-15.77 15.77-15.77z" color="#000" font-weight="400" font-family="sans-serif" overflow="visible" fill="#114078"/><path style="line-height:normal;font-variant-ligatures:normal;font-variant-position:normal;font-variant-caps:normal;font-variant-numeric:normal;font-variant-alternates:normal;font-variant-east-asian:normal;font-feature-settings:normal;font-variation-settings:normal;text-indent:0;text-align:start;text-decoration-line:none;text-decoration-style:solid;text-decoration-color:#000;text-transform:none;text-orientation:mixed;white-space:normal;shape-padding:0;shape-margin:0;inline-size:0;isolation:auto;mix-blend-mode:normal;solid-color:#000;solid-opacity:1" d="M-366.184 312.953c-11.084 0-20.117 9.033-20.117 20.117 0 11.085 9.033 20.118 20.117 20.118 10.933 0 19.829-8.8 20.07-19.676l.002-.006a2.174 2.174 0 00.043-.436 2.174 2.174 0 00-.043-.428c-.234-10.883-9.134-19.689-20.072-19.689zm0 4.348a15.735 15.735 0 0115.768 15.77c0 8.734-7.033 15.769-15.768 15.769a15.737 15.737 0 01-15.77-15.77c0-8.735 7.035-15.77 15.77-15.77z" color="#000" font-weight="400" font-family="sans-serif" overflow="visible" fill="#114078"/><path fill-opacity=".078" d="M582.907 580.978h75.387v4.465h-75.387z"/><g clip-path="url(#f)" transform="translate(-547.4 -646.81) scale(1.84167)"><rect width="33.545" height="60.717" x="434.588" y="765.686" rx="16.772" ry="16.772" fill="#e01b24"/><rect width="43.424" height="38.509" x="429.743" y="798.254" rx="10.755" ry="10.755" fill="#865e3c"/><path d="M447.094 794.284h8.688v8.688c0 3.258-8.688 3.258-8.688 0z" fill="#e0ac69"/><path d="M466.168 774.563a16.747 16.747 0 011.965 7.896l-.05 34.092c-4.41-1.341-9.054-5.425-9.054-10.285v-21.582c0-4.686 2.974-8.64 7.139-10.121zM436.553 774.563a16.747 16.747 0 00-1.965 7.896l.049 34.092c4.411-1.341 9.054-5.425 9.054-10.285v-21.582c0-4.686-2.973-8.64-7.138-10.121z" fill="#e01b24"/></g><g transform="translate(-1686 -646.81) scale(1.84167)" clip-path="url(#f)"><rect ry="16.772" rx="16.772" y="765.686" x="434.588" height="60.717" width="33.545" fill="#1c71d8"/><rect ry="10.755" rx="10.755" y="798.254" x="429.743" height="38.509" width="43.424" fill="#154c90"/><path d="M447.094 794.284h8.688v8.688c0 3.258-8.688 3.258-8.688 0z" fill="#62a0ea"/><path d="M466.168 774.563a16.747 16.747 0 011.965 7.896l-.05 34.092c-4.41-1.341-9.054-5.425-9.054-10.285v-21.582c0-4.686 2.974-8.64 7.139-10.121zM436.553 774.563a16.747 16.747 0 00-1.965 7.896l.049 34.092c4.411-1.341 9.054-5.425 9.054-10.285v-21.582c0-4.686-2.973-8.64-7.138-10.121z" fill="#1c71d8"/></g><path d="M-850.166 777.223a20.108 17.605 0 01-20.061 16.394 20.108 17.605 0 01-4.309-.408 20.807 20.807 0 00-.476 4.424 20.807 20.807 0 0020.806 20.806 20.807 20.807 0 0020.81-20.806 20.807 20.807 0 00-.054-1.45 20.108 17.605 0 01-16.668-17.345 20.108 17.605 0 01.084-1.59 20.807 20.807 0 00-.132-.025z" fill="#62a0ea"/><path d="M265.422 789.342a20.862 20.862 0 00-1.695 8.236 20.862 20.862 0 0020.86 20.861 20.862 20.862 0 0020.864-20.86 20.862 20.862 0 00-1.697-8.237h-38.332z" style="font-variation-settings:normal" fill="#e0ac69"/><path d="M265.422 789.342a20.862 20.862 0 00-1.508 5.455h41.35a20.862 20.862 0 00-1.51-5.455h-38.332z" style="font-variation-settings:normal" fill-opacity=".078"/></svg>