<svg xmlns="http://www.w3.org/2000/svg" height="1026" width="1026"><defs><clipPath clipPathUnits="userSpaceOnUse" id="b"><circle r="130.412" cy="358.412" cx="343.916" fill="#1a5fb4" stroke-width="10.529" stroke-linecap="round"/></clipPath><clipPath clipPathUnits="userSpaceOnUse" id="c"><circle r="108.672" cy="597.497" cx="583" fill="#1a5fb4" stroke-width="8.774" stroke-linecap="round"/></clipPath><clipPath clipPathUnits="userSpaceOnUse" id="f"><circle r="40.033" cy="793.701" cx="450.318" fill="#1a5fb4" stroke-width="3.232" stroke-linecap="round"/></clipPath><clipPath clipPathUnits="userSpaceOnUse" id="d"><circle r="38.151" cy="652.461" cx="319.345" fill="#1a5fb4" stroke-width="3.081" stroke-linecap="round"/></clipPath><clipPath clipPathUnits="userSpaceOnUse" id="e"><circle cx="858.419" cy="649.544" r="32.586" fill="#1a5fb4" stroke-width="2.631" stroke-linecap="round"/></clipPath><clipPath clipPathUnits="userSpaceOnUse" id="a"><circle cx="751.521" cy="352.655" r="73.728" fill="#1a5fb4" stroke-width="5.953" stroke-linecap="round"/></clipPath></defs><path d="M257.917 261.376l444.318-163.81L666.5 313.187l154.158-2.756 132.27 372.357-98.564 258.324L653.55 673.437 211.962 916.736l54.753-226.986 388.787-21.864-308.54-315.366-90.647 48.386 12.026 288.704" fill="none" stroke="#1a5fb4" stroke-width="9.8" stroke-linecap="round" stroke-linejoin="round" stroke-dasharray="9.80008,39.2003"/><circle r="93.569" cy="312.135" cx="818.297" fill="#5e5c64"/><g transform="translate(-135.467 -135.423) scale(1.26911)" clip-path="url(#a)"><path d="M712.162 362.519l14.738-3.332h51.826l13.738 3.196c8.075 2.163 15.122 6.114 15.122 16.107v51.573a3.1 3.1 0 01-3.106 3.106H700.398a3.1 3.1 0 01-3.106-3.106v-51.996c0-8.85 5.763-13.108 14.87-15.548z" fill="#e66100"/><rect ry="25.853" rx="25.853" y="299.394" x="726.894" height="105.086" width="51.706" fill="#ffdbac"/></g><path d="M809.729 255.438c-5.27-.03-11.406.095-14.871.708-6.931 1.227-18.241 3.803-23.318 7.22-16.45 11.072-.228 60.422-13.165 65.359-2.263.863-6.729 4.724-8.018 9.488-.792 2.925 4.504 3.766 7.79 4.937 7.721 2.753 39.848 7.594 39.848 7.594s5.23-5.901-.814-15.025c-10.13-15.294-6.006-50.47-6.006-50.47h56.689s4.958 35.176-6.404 50.387c-6.55 8.768-.655 15.108-.655 15.108s32.127-4.84 39.848-7.594c3.339-1.19 8.264-1.866 7.646-4.893-.59-2.893-3.86-7.387-7.913-9.612-12.138-6.664 3.324-54.207-13.126-65.279-5.077-3.417-16.387-5.993-23.318-7.22-6.93-1.227-24.542-.494-24.542-.494s-4.402-.184-9.672-.214z" fill-opacity=".104"/><g clip-path="url(#b)" transform="translate(-399.025 -424.287) scale(1.92261)"><circle r="130.412" cy="358.412" cx="343.916" fill="#3d3846"/><path d="M280.89 381.72l23.982-5.422h84.333l22.355 5.2c13.14 3.52 24.607 9.949 24.607 26.21v83.922c0 2.8-2.254 5.054-5.054 5.054H261.747a5.043 5.043 0 01-5.055-5.054v-84.61c0-14.4 9.378-21.33 24.197-25.3z" fill="#2ec27e"/><path d="M280.89 387.523l23.982-5.421h84.333l22.355 5.2c13.14 3.52 24.607 9.949 24.607 26.21v83.922c0 2.8-2.254 5.054-5.054 5.054H261.747a5.043 5.043 0 01-5.055-5.054v-84.61c0-14.4 9.378-21.33 24.197-25.3z" fill="#28aa6d"/><rect width="84.137" height="171" x="304.86" y="292.908" rx="42.069" ry="42.069" fill-opacity=".078"/><rect ry="42.069" rx="42.069" y="279" x="304.863" height="171" width="84.137" fill="#cf9a62"/><rect width="84.137" height="148.783" x="304.863" y="283.171" rx="42.069" ry="42.069" fill="#c68642"/><path d="M332.584 352.418c-5.914 0-11.654 4.843-10.673 10.676v12.295h-17.048v32.543c0 23.306 18.763 42.068 42.069 42.068S389 431.238 389 407.932v-32.543h-24.205v-12.295a10.653 10.653 0 00-10.676-10.676z" fill="#63452c"/><rect ry="2.561" rx="2.561" y="320.281" x="321.728" height="5.122" width="16.044" fill="#865e3c"/><rect width="16.044" height="5.122" x="350.577" y="320.281" rx="2.561" ry="2.561" fill="#865e3c"/><rect ry="5.054" rx="5.054" y="360.182" x="329.72" height="30.43" width="27.212" fill="#c68642"/><path d="M335.642 370.1a2.55 2.55 0 002.553 2.484h10.921a2.552 2.552 0 002.554-2.484z" fill="#865e3c"/></g><g fill="#0c2c53"><path d="M269.89 80.751c-59.3 0-107.22 47.92-107.22 107.22v27.615c.92-.012 1.835-.03 2.76-.03h8.776V187.97c0-53.108 42.576-95.684 95.684-95.684h2.2c53.108 0 95.684 42.576 95.684 95.684v29.372c3.946.518 7.802 1.135 11.535 1.863V187.97c0-59.3-47.92-107.22-107.219-107.22z" style="line-height:normal;font-variant-ligatures:normal;font-variant-position:normal;font-variant-caps:normal;font-variant-numeric:normal;font-variant-alternates:normal;font-variant-east-asian:normal;font-feature-settings:normal;font-variation-settings:normal;text-indent:0;text-align:start;text-decoration-line:none;text-decoration-style:solid;text-decoration-color:#000;text-transform:none;text-orientation:mixed;white-space:normal;shape-padding:0;shape-margin:0;inline-size:0;isolation:auto;mix-blend-mode:normal;solid-color:#000;solid-opacity:1" color="#000" font-weight="400" font-family="sans-serif" overflow="visible" fill="#241f31"/><path d="M188.72 268.628a43.238 43.238 0 01-37.446-21.619 43.238 43.238 0 010-43.238 43.238 43.238 0 0137.445-21.62v43.239zM341.152 268.628c15.447 0 33.595-8.241 41.319-21.619a43.238 43.238 0 000-43.238c-7.724-13.378-25.872-21.62-41.32-21.62z" fill="#3d3846"/><path d="M188.72 274.44a43.238 43.238 0 01-37.446-21.619 43.238 43.238 0 010-43.238 43.238 43.238 0 0137.445-21.62v43.239zM341.152 274.44c15.447 0 33.595-8.241 41.319-21.619a43.238 43.238 0 000-43.238c-7.724-13.378-25.872-21.62-41.32-21.62z" fill="#2d2933"/></g><circle cx="642.524" cy="655.284" r="177.49" fill="#9a9996"/><circle cx="222.342" cy="898.808" r="93.569" fill="#241f31"/><circle cx="269.817" cy="692.623" r="48.417" fill="#5e5c64"/><circle r="41.355" cy="688.921" cx="953.962" fill="#5e5c64"/><g clip-path="url(#c)" transform="matrix(1.63326 0 0 1.63326 -309.667 -320.582)"><path d="M589.666 512.957a46.773 46.773 0 00-45.36 35.365h-.03l-31.415 127.67h153.602l-31.414-127.67h-.022a46.773 46.773 0 00-45.361-35.365z" fill="#3d3846"/><path d="M559.447 564.887v31.765a29.301 29.301 0 0029.366 29.366 29.301 29.301 0 0029.365-29.366V564.81z" fill="#e0ac69"/><circle r="3.29" cy="576.559" cx="580.491" fill="#63452c"/><rect ry="2.75" rx="2.75" y="571.014" x="592.35" height="9.717" width="5.501" fill="#63452c"/><rect ry="26.073" rx="26.073" y="645.318" x="529.932" height="71.737" width="119.012" style="font-variation-settings:normal" fill="#ed333b"/><path d="M579.216 620.908h18.72l-.19 33.279c0 9.167-18.648 9.167-18.648 0z" fill="#e0ac69"/></g><g transform="translate(-135.467 -135.423) scale(1.26911)" clip-path="url(#d)"><rect ry="16.576" rx="16.576" y="654.962" x="302.732" height="43.945" width="33.151" fill="#613583" stroke="#613583" stroke-width="6" stroke-linecap="round"/><circle r="15.326" cy="643.821" cx="319.308" fill="#8d5524"/></g><circle r="48.417" cy="930.542" cx="843.559" fill="#241f31"/><g clip-path="url(#d)" transform="translate(438.275 102.496) scale(1.26911)"><rect width="33.151" height="43.945" x="302.732" y="654.962" rx="16.576" ry="16.576" fill="#0a294e" stroke="#0a294e" stroke-width="6" stroke-linecap="round"/><circle cx="319.308" cy="643.821" r="12.619" fill="#3584e4"/></g><g transform="translate(-135.467 -135.423) scale(1.26911)" clip-path="url(#e)"><ellipse ry="22.161" rx="24.551" cy="674.006" cx="859.207" fill="#26a269"/><path d="M859.207 629.627c-8.521 0-15.38 6.86-15.38 15.38v12.098c0 5.028 2.398 9.465 6.107 12.268v-25.045h18.545v25.047c3.71-2.803 6.109-7.24 6.109-12.27v-12.097c0-8.522-6.86-15.381-15.381-15.381z" fill="#f6d32d"/><circle r="11.627" cy="645.537" cx="859.207" fill="#f1c27d"/></g><circle cx="697.078" cy="95.81" r="34.293" fill="#5e5c64"/><g transform="matrix(.89888 0 0 .89888 410.025 -490.676)" clip-path="url(#d)" stroke-width="1.412"><path d="M319.308 654.414c11.86 0 21.407 10.044 21.407 22.52 0 1.191-.125 16.037-.357 16.957-2.199 8.727-14.056 6.07-21.097 6.065-7.091-.006-19.074 2.719-21.073-6.355-.187-.849-.287-15.599-.287-16.666 0-12.477 9.548-22.521 21.407-22.521z" fill="#ff7800"/><circle r="12.619" cy="643.821" cx="319.308" fill="#ffdbac"/></g><path d="M809.729 240.737c-5.27-.03-11.406.094-14.871.707-6.931 1.227-18.241 3.803-23.318 7.22-16.45 11.073-26.804 45.186-25.832 59 .971 13.812 4.718 18.031 12.439 20.784 7.721 2.754 39.848 7.594 39.848 7.594s-10.963-15.588-10.375-26.516c.587-10.93 0-28.826 0-28.826h63.56s-.587 17.897 0 28.826c.588 10.928-10.375 26.516-10.375 26.516s32.127-4.84 39.848-7.594c7.721-2.753 11.468-6.972 12.44-20.785.97-13.813-9.383-47.926-25.833-58.999-5.077-3.417-16.387-5.993-23.318-7.22-6.93-1.227-24.542-.494-24.542-.494s-4.402-.184-9.671-.213z" fill="#3d3846"/><path style="line-height:normal;font-variant-ligatures:normal;font-variant-position:normal;font-variant-caps:normal;font-variant-numeric:normal;font-variant-alternates:normal;font-variant-east-asian:normal;font-feature-settings:normal;font-variation-settings:normal;text-indent:0;text-align:start;text-decoration-line:none;text-decoration-style:solid;text-decoration-color:#000;text-transform:none;text-orientation:mixed;white-space:normal;shape-padding:0;shape-margin:0;inline-size:0;isolation:auto;mix-blend-mode:normal;solid-color:#000;solid-opacity:1" d="M793.753 261.75c-14.068 0-25.531 11.463-25.531 25.53 0 14.068 11.463 25.531 25.53 25.531 14.068 0 25.532-11.463 25.532-25.53 0-14.068-11.464-25.532-25.531-25.532zm0 5.517a19.972 19.972 0 0120.013 20.013 19.972 19.972 0 01-20.013 20.014 19.972 19.972 0 01-20.014-20.014 19.972 19.972 0 0120.014-20.013zM844.815 261.75c-14.068 0-25.531 11.463-25.531 25.53 0 14.068 11.463 25.531 25.53 25.531 13.876 0 25.165-11.167 25.472-24.97l.002-.007a2.759 2.759 0 00.055-.553 2.759 2.759 0 00-.055-.543c-.297-13.812-11.592-24.988-25.474-24.988zm0 5.517a19.97 19.97 0 0120.01 20.013 19.97 19.97 0 01-20.01 20.014A19.972 19.972 0 01824.8 287.28a19.972 19.972 0 0120.014-20.013z" color="#000" font-weight="400" font-family="sans-serif" overflow="visible" fill="#241f31"/><path fill-opacity=".078" d="M604.306 601.903h95.674v5.667h-95.674z"/><g transform="matrix(2.33729 0 0 2.33729 -830.18 -956.297)" clip-path="url(#f)"><rect ry="16.772" rx="16.772" y="765.686" x="434.588" height="60.717" width="33.545" fill="#e01b24"/><rect ry="10.755" rx="10.755" y="798.254" x="429.743" height="38.509" width="43.424" fill="#865e3c"/><path d="M447.094 794.284h8.688v8.688c0 3.258-8.688 3.258-8.688 0z" fill="#e0ac69"/><path d="M466.168 774.563a16.747 16.747 0 011.965 7.896l-.05 34.092c-4.41-1.341-9.054-5.425-9.054-10.285v-21.582c0-4.686 2.974-8.64 7.139-10.121zM436.553 774.563a16.747 16.747 0 00-1.965 7.896l.049 34.092c4.411-1.341 9.054-5.425 9.054-10.285v-21.582c0-4.686-2.973-8.64-7.138-10.121z" fill="#e01b24"/></g><path style="font-variation-settings:normal" d="M201.383 866.34a26.476 26.476 0 00-2.152 10.453 26.476 26.476 0 0026.475 26.475 26.476 26.476 0 0026.478-26.475 26.476 26.476 0 00-2.154-10.453z" fill="#e0ac69"/><path style="font-variation-settings:normal" d="M201.383 866.34a26.476 26.476 0 00-1.914 6.923h52.477a26.476 26.476 0 00-1.916-6.923z" fill-opacity=".078"/></svg>