<svg xmlns="http://www.w3.org/2000/svg" xmlns:xlink="http://www.w3.org/1999/xlink" width="1026" height="1026"><defs><linearGradient gradientTransform="translate(113.519 56.543)" gradientUnits="userSpaceOnUse" y2="338.381" x2="627" y1="338.381" x1="429.246" id="j" xlink:href="#a"/><linearGradient id="f"><stop offset="0" stop-color="#e01b24"/><stop offset=".047" stop-color="#ea545b"/><stop offset=".164" stop-color="#e01b24"/><stop offset="1" stop-color="#e01b24"/></linearGradient><linearGradient id="d"><stop offset="0" stop-color="#f6f5f4"/><stop offset="1" stop-color="#c3bbb5"/></linearGradient><linearGradient id="b"><stop offset="0" stop-color="#e8e8e6"/><stop offset="1" stop-color="#deddda"/></linearGradient><linearGradient id="a"><stop offset="0" stop-color="#e4e4e4"/><stop offset=".124" stop-color="#fff"/><stop offset=".31" stop-color="#eee"/><stop offset="1" stop-color="#fff"/></linearGradient><linearGradient gradientTransform="translate(171 -57)" gradientUnits="userSpaceOnUse" y2="797.406" x2="598.5" y1="797.406" x1="399" id="m" xlink:href="#e"/><linearGradient id="e"><stop offset="0" stop-color="#9141ac"/><stop offset=".824" stop-color="#9141ac"/><stop offset=".921" stop-color="#9e4cbb"/><stop offset="1" stop-color="#793690"/></linearGradient><linearGradient gradientTransform="translate(113.519 56.543)" gradientUnits="userSpaceOnUse" y2="274.157" x2="429.342" y1="274.157" x1="364.586" id="i" xlink:href="#b"/><linearGradient gradientTransform="matrix(-.03667 .05186 .03667 .05186 180.124 169.116)" y2="-127.399" x2="158.518" y1="-97.698" x1="128.817" gradientUnits="userSpaceOnUse" id="k" xlink:href="#c"/><linearGradient id="c"><stop offset="0" stop-color="#d0bb8e"/><stop offset="1" stop-color="#fff"/></linearGradient><linearGradient gradientTransform="translate(113.519 56.543)" gradientUnits="userSpaceOnUse" y2="302.657" x2="429.291" y1="302.657" x1="361.861" id="h" xlink:href="#d"/><linearGradient gradientTransform="translate(114 -57)" gradientUnits="userSpaceOnUse" y2="855" x2="598.5" y1="855" x1="342" id="l" xlink:href="#f"/><clipPath id="g" clipPathUnits="userSpaceOnUse"><circle style="marker:none" cx="239.051" cy="77.264" r="19.711" fill="#9141ac" stroke-width=".529" stroke-linecap="round"/></clipPath></defs><path d="M313.019 170.543c-47.367 0-85.5 38.133-85.5 85.5s38.133 85.5 85.5 85.5h285c47.367 0 85.5-38.133 85.5-85.5s-38.133-85.5-85.5-85.5zm171 228c-47.367 0-85.5 38.133-85.5 85.5 0 10.003 1.707 19.592 4.836 28.5h-90.336c-47.367 0-85.5 38.133-85.5 85.5s38.133 85.5 85.5 85.5h166c-47.367 0-85.5 38.133-85.5 85.5s38.133 85.5 85.5 85.5h285c47.367 0 85.5-38.133 85.5-85.5s-38.133-85.5-85.5-85.5h-109c-31.578 0-57-25.422-57-57s25.422-57 57-57h114c47.367 0 85.5-38.133 85.5-85.5s-38.133-85.5-85.5-85.5z" fill="#c061cb" fill-opacity=".948"/><path d="M485.65 858.445a25 25 0 00-24.992 26.778 24.993 24.993 0 0124.992-23.334h211.616a25.003 25.003 0 0112.709-3.444zm199.332 26.778c-.038.569-.064 1.143-.064 1.722 0 9.233 4.948 17.263 12.344 21.61h12.713a24.993 24.993 0 01-24.993-23.332z" style="font-variation-settings:normal;marker:none" fill="#241f31" fill-opacity=".881"/><path style="font-variation-settings:normal;marker:none" fill-opacity=".102" d="M341.519 341.543h399v228h-399z"/><path d="M443.831 253.426H341.52l.59 259.117h105.937c52.875 0 64.473 33.039 64.473 57h30.062l-.184-220.676c-.044-52.875-45.691-95.441-98.566-95.441z" fill="#deddda"/><path d="M443.831 227.543H341.52l.59 259.117h105.937c52.875 0 94.351 25.883 94.351 75.644v-239.32c0-52.874-45.691-95.441-98.566-95.441z" fill="#eeeeed"/><g transform="matrix(-4.0324 0 0 4.0324 1207.298 -412.86)"><rect ry="7.673" rx="7.673" y="152.889" x="254.983" height="26.458" width="27.359" style="marker:none" fill="none" stroke="#fff" stroke-width="4.233" stroke-linecap="round"/><circle style="marker:none" cx="251.486" cy="152.003" r="21.299" fill="#fff"/><path d="M251.369 160.999a21.84 21.84 0 00-21.84 21.84 21.84 21.84 0 0021.84 21.84 21.84 21.84 0 0021.42-17.594h5.54c1.329 0 2.4-1.07 2.4-2.4 0-1.329-1.071-2.399-2.4-2.399h-5.139A21.84 21.84 0 00251.37 161z" style="marker:none" fill-opacity=".102"/><path style="marker:none" fill="#fff" d="M230.187 148.96h42.333v32.015h-42.333z"/><circle r="21.299" cy="180.843" cx="251.486" style="marker:none" fill="#fff"/><g clip-path="url(#g)" transform="matrix(.9094 0 0 .9094 34.094 81.74)"><circle style="marker:none" cx="239.051" cy="77.264" r="19.711" fill="#deddda"/><circle r="19.711" cy="85.201" cx="239.051" style="marker:none" fill="#241f31"/></g></g><path d="M638.206 253.426H740.52l-.59 259.117H633.992c-52.875 0-64.473 33.039-64.473 57h-26.938l.184-220.676c.044-52.875 42.567-95.441 95.441-95.441z" fill="#deddda"/><path d="M542.326 547.857c-17.438-65.08-29.807-92.314-143.807-92.314v-285c114 0 119.13 87.314 144.291 147.056z" fill="url(#h)"/><path d="M542.326 547.857c0-65.122-29.807-149.314-86.807-149.314v-285c57 0 87.291 140.712 87.291 204.056z" fill="url(#i)"/><path d="M638.206 227.543H740.52l-.59 259.117H633.992c-52.875 0-91.227 25.883-91.227 75.644v-239.32c0-52.874 42.567-95.441 95.441-95.441z" fill="url(#j)"/><path d="M684.173 210.961a38.218 38.218 0 0113.988 52.207 38.218 38.218 0 01-52.206 13.988 38.218 38.218 0 01-13.989-52.206 38.218 38.218 0 0152.207-13.989m-38.218 54.596a38.218 38.218 0 0152.207 13.99 38.218 38.218 0 01-13.989 52.206 38.218 38.218 0 01-52.206-13.99 38.218 38.218 0 0113.988-52.206m28.173 60.397a38.218 38.218 0 0138.218-38.218 38.218 38.218 0 0138.218 38.218 38.218 38.218 0 01-38.218 38.218 38.218 38.218 0 01-38.218-38.218m66.391 5.799a38.218 38.218 0 01-13.989-52.207 38.218 38.218 0 0152.207-13.988 38.218 38.218 0 0113.988 52.206 38.218 38.218 0 01-52.206 13.989m38.218-54.597a38.218 38.218 0 01-52.206-13.989 38.218 38.218 0 0113.988-52.206 38.218 38.218 0 0152.207 13.989 38.218 38.218 0 01-13.989 52.206m-28.173-60.395a38.218 38.218 0 01-38.218 38.217 38.218 38.218 0 01-38.218-38.218 38.218 38.218 0 0138.218-38.217 38.218 38.218 0 0138.218 38.218" style="marker:none" fill-opacity=".101"/><g transform="matrix(1.5599 0 0 1.5599 -893.906 -395.722)"><circle style="marker:none" cx="1029.5" cy="387.512" r="24.5" fill="#fff"/><circle transform="rotate(60)" r="24.5" cy="-715.317" cx="880.655" style="marker:none" fill="#fff"/><circle style="marker:none" cx="-148.844" cy="-1137.829" r="24.5" transform="rotate(120)" fill="#fff"/><circle transform="scale(-1)" r="24.5" cy="-457.511" cx="-1029.5" style="marker:none" fill="#fff"/><circle style="marker:none" cx="-880.655" cy="645.318" r="24.5" transform="rotate(-120)" fill="#fff"/><circle transform="rotate(-60)" r="24.5" cy="1067.829" cx="148.844" style="marker:none" fill="#fff"/><circle r="24.5" cy="421.512" cx="1029.5" style="marker:none" fill="#f5c211"/></g><g transform="matrix(14.30063 0 0 14.30063 -1547.656 -2172.914)"><path d="M170.003 179.85l-1.993 4.853h3.986z" style="marker:none" fill="url(#k)"/><path style="marker:none" d="M170.003 179.814l-.797 1.892h1.595z" fill="#424048"/><path d="M171.598 184.703h-3.189v15.047h3.189z" fill="#f6d32d"/><path d="M169.184 184.703h-1.174v15.057l1.174-.01z" fill="#f9f06b"/><path d="M170.823 184.703h1.173v15.057l-1.173-.01z" fill="#e5a50a"/><rect style="marker:none" width="3.969" height="3.969" x="168.01" y="199.76" rx="1.554" ry="1.554" fill="#f66151"/><path d="M169.565 199.76c-.056 0-.111.003-.166.01a1.55 1.55 0 011.39 1.545v.86a1.55 1.55 0 01-1.39 1.545c.055.006.11.01.166.01h.86c.86 0 1.554-.694 1.554-1.555v-.86c0-.861-.693-1.555-1.554-1.555z" style="marker:none" fill="#ed333b"/><rect ry="0" rx="0" y="199.76" x="168.01" height="1.323" width="3.969" style="marker:none" fill="#f6f5f4"/><rect style="marker:none" width="1.191" height="1.323" x="170.789" y="199.76" rx="0" ry="0" fill="#deddda"/></g><path d="M119 684V513c0-10.052.554-23.286 11.702-23.286 10.18 0 10.223 11.515 10.223 23.286v25.572" fill="none" stroke="#77767b" stroke-width="10"/><path style="font-variation-settings:normal;marker:none" d="M478.5 694a28.43 28.43 0 00-28.441 26.75H450v170.367l.107-.012A28.438 28.438 0 00478.5 922h228a28.438 28.438 0 01-28.5-28.5 28.434 28.434 0 0122.664-27.906L706.5 865V694z" fill-opacity=".102"/><path style="font-variation-settings:normal" d="M337 680.464l114-114c10.892-10.891 6.478-21.006 0-27.485-8.956-8.956-19.665-6.605-26.27 0" fill="none" stroke="#77767b" stroke-width="10" stroke-opacity=".975"/><path style="font-variation-settings:normal;marker:none" d="M170.98 627A57 57 0 00114 684h228a57 57 0 00-57-57 57 57 0 00-57 56.98A57 57 0 00171 627a57 57 0 00-.02 0z" opacity=".706" fill="#99c1f1"/><path d="M484.5 684a28.43 28.43 0 00-28.441 26.75H456v170.367l.107-.012A28.438 28.438 0 00484.5 912h228a28.438 28.438 0 01-28.5-28.5 28.434 28.434 0 0122.664-27.906L712.5 855V684z" style="font-variation-settings:normal;marker:none" fill="url(#l)"/><path d="M741 687.178a28.43 28.43 0 0128.441 26.75h.059v130.367l-.107-.012A28.438 28.438 0 01741 875.178H551a28.438 28.438 0 0028.5-28.5 28.434 28.434 0 00-22.664-27.907l-5.836-.593v-131z" style="font-variation-settings:normal;marker:none" fill-opacity=".102"/><path style="font-variation-settings:normal;marker:none" d="M484.5 855a28.438 28.438 0 00-28.5 28.5 28.438 28.438 0 0028.5 28.5h227.847v-3.44C686.555 908.053 684 895.93 684 883.5c0-10.835 6.879-25.15 28.347-25.27V855z" fill="#e01b24"/><path style="font-variation-settings:normal;marker:none" d="M741 626.406a28.43 28.43 0 0128.441 26.75h.059v170.367l-.107-.011A28.438 28.438 0 01741 854.407H570a28.438 28.438 0 0028.5-28.5A28.434 28.434 0 00575.836 798l-5.836-.594v-171z" fill="url(#m)"/><path d="M741 797.406a28.438 28.438 0 0128.5 28.5 28.438 28.438 0 01-28.5 28.5H570.317v-3.439c25.792-.509 28.347-12.631 28.347-25.06 0-10.836-6.879-25.152-28.347-25.27v-3.23z" style="font-variation-settings:normal;marker:none" fill="#613583"/><path d="M742.135 801.252a24.6 24.6 0 0124.654 24.654 24.6 24.6 0 01-24.654 24.654H570.257a24.6 24.6 0 0024.654-24.654 24.6 24.6 0 00-24.654-24.654z" style="font-variation-settings:normal;marker:none" fill="#fff" fill-opacity=".881"/><path style="font-variation-settings:normal;marker:none" fill="#78757d" d="M114 677.406h228V684H114z"/><path d="M485.65 858.444a25 25 0 00-25.056 25.056 25 25 0 0025.055 25.056h224.325A25.001 25.001 0 01684.92 883.5a25.001 25.001 0 0125.055-25.056z" style="font-variation-settings:normal;marker:none" fill="#fff"/><path d="M485.65 858.445c-7.65 0-15.65 3.961-20.166 9.961 7-7 17.841-6.593 19.78-6.593h212.134a24.983 24.983 0 0112.577-3.368zM742.135 801.252c7.65 0 15.65 3.961 20.167 9.961-7-7-17.841-6.594-19.781-6.594H583.079a24.983 24.983 0 00-12.576-3.367z" style="font-variation-settings:normal;marker:none" fill="#c0bfbc" fill-opacity=".368"/></svg>