<svg xmlns="http://www.w3.org/2000/svg" width="800" height="800"><g transform="translate(0 -322.52)"><g transform="matrix(1.46652 0 0 1.46652 -5767.52 10137.899)" fill="#f8e45c" fill-opacity=".957"><rect ry="20.506" rx="20.506" y="-6263.278" x="4065.124" height="41.012" width="261.63" style="marker:none"/><rect style="marker:none" width="261.63" height="41.012" x="4149.124" y="-6240.278" rx="20.506" ry="20.506"/><rect ry="20.506" rx="20.506" y="-6226.278" x="4028.124" height="41.012" width="261.63" style="marker:none"/></g><g transform="matrix(1.53139 0 0 1.53139 -1294.741 525.79)"><path style="marker:none" d="M1084 65.616a27.16 27.16 0 00-27.063 24.9l-16 192A27.16 27.16 0 001068 311.93h96a27.16 27.16 0 0027.063-29.412l-16-192a27.16 27.16 0 00-27.063-24.9h-32z" fill-opacity=".102"/><path d="M1084 61.125a27.16 27.16 0 00-27.063 24.9l-16 192A27.16 27.16 0 001068 307.438h96a27.16 27.16 0 0027.063-29.413l-16-192a27.16 27.16 0 00-27.063-24.9h-32z" fill="#deddda"/><rect ry="32" rx="32" y="-104" x="908" height="352" width="416" style="marker:none" fill="#f6f5f4"/><path style="marker:none" d="M936.534-103.79h358.932a28.795 28.795 0 0128.859 28.859v264.73h-416.65V-74.93a28.795 28.795 0 0128.859-28.859z" fill="#241f31"/></g><path style="marker:none" d="M446.112 591.108a42.172 42.172 0 0159.64 0M318.312 591.108a42.172 42.172 0 0159.64 0" fill="none" stroke="#fff" stroke-width="14.665" stroke-linecap="round"/><circle style="marker:none" cx="411.169" cy="696.87" r="19.421" fill="none" stroke="#fff" stroke-width="14.665" stroke-linecap="round"/></g></svg>