<svg xmlns="http://www.w3.org/2000/svg" xmlns:xlink="http://www.w3.org/1999/xlink" height="1026" width="1026"><defs><linearGradient xlink:href="#a" id="i" x1="364.586" y1="274.157" x2="429.342" y2="274.157" gradientUnits="userSpaceOnUse" gradientTransform="translate(106.855 14.58) scale(1.0962)"/><linearGradient id="c"><stop stop-color="#d0bb8e" offset="0"/><stop stop-color="#fff" offset="1"/></linearGradient><linearGradient id="d"><stop stop-color="#f6f5f4" offset="0"/><stop stop-color="#c3bbb5" offset="1"/></linearGradient><linearGradient id="a"><stop stop-color="#e8e8e6" offset="0"/><stop stop-color="#deddda" offset="1"/></linearGradient><linearGradient id="b"><stop stop-color="#e4e4e4" offset="0"/><stop stop-color="#fff" offset=".124"/><stop stop-color="#eee" offset=".31"/><stop stop-color="#fff" offset="1"/></linearGradient><linearGradient xlink:href="#b" id="j" x1="429.246" y1="338.381" x2="627" y2="338.381" gradientUnits="userSpaceOnUse" gradientTransform="translate(106.855 14.58) scale(1.0962)"/><linearGradient id="f"><stop stop-color="#e01b24" offset="0"/><stop stop-color="#ea545b" offset=".047"/><stop stop-color="#e01b24" offset=".164"/><stop stop-color="#e01b24" offset="1"/></linearGradient><linearGradient xlink:href="#c" id="k" gradientUnits="userSpaceOnUse" x1="128.817" y1="-97.698" x2="158.518" y2="-127.399" gradientTransform="scale(-.05186 .07334) rotate(45 -4520.11 -3039.735)"/><linearGradient id="e"><stop stop-color="#9141ac" offset="0"/><stop stop-color="#9141ac" offset=".824"/><stop stop-color="#9e4cbb" offset=".921"/><stop stop-color="#793690" offset="1"/></linearGradient><linearGradient xlink:href="#d" id="h" x1="361.861" y1="302.657" x2="429.291" y2="302.657" gradientUnits="userSpaceOnUse" gradientTransform="translate(106.855 14.58) scale(1.0962)"/><linearGradient xlink:href="#e" id="m" x1="399" y1="797.406" x2="598.5" y2="797.406" gradientUnits="userSpaceOnUse" gradientTransform="translate(169.865 -109.886) scale(1.0962)"/><linearGradient xlink:href="#f" id="l" x1="342" y1="855" x2="598.5" y2="855" gradientUnits="userSpaceOnUse" gradientTransform="translate(107.382 -109.886) scale(1.0962)"/><clipPath clipPathUnits="userSpaceOnUse" id="g"><circle stroke-linecap="round" stroke-width=".529" fill="#9141ac" r="19.711" cy="77.264" cx="239.051" style="marker:none"/></clipPath></defs><path d="M325.546 139.546c-51.923 0-93.725 41.801-93.725 93.725 0 51.924 41.802 93.725 93.725 93.725h312.417c51.924 0 93.725-41.801 93.725-93.725 0-51.924-41.801-93.725-93.725-93.725zm187.45 249.933c-51.923 0-93.725 41.802-93.725 93.725 0 10.966 1.871 21.478 5.301 31.242h-99.026c-51.923 0-93.725 41.801-93.725 93.725 0 51.924 41.802 93.725 93.725 93.725h181.97c-51.924 0-93.726 41.801-93.726 93.725 0 51.924 41.802 93.725 93.725 93.725h312.417c51.923 0 93.725-41.801 93.725-93.725 0-51.924-41.802-93.725-93.725-93.725H700.446c-34.616 0-62.483-27.868-62.483-62.483 0-34.616 27.867-62.484 62.483-62.484h124.967c51.923 0 93.725-41.801 93.725-93.725 0-51.923-41.802-93.725-93.725-93.725z" fill-opacity=".948" fill="#5e5c64"/><path fill-opacity=".881" fill="#241f31" style="font-variation-settings:normal;marker:none" d="M514.785 893.624a27.406 27.406 0 00-27.397 29.353 27.397 27.397 0 0127.397-25.578h231.972a27.408 27.408 0 0113.932-3.775zm218.507 29.353c-.042.624-.07 1.254-.07 1.889 0 10.12 5.423 18.923 13.53 23.688h13.936a27.397 27.397 0 01-27.396-25.577z"/><path d="M356.788 326.996h437.383v249.933H356.788z" fill-opacity=".102" style="font-variation-settings:normal;marker:none"/><path fill="#deddda" d="M468.943 230.402H356.788l.647 284.044h116.128c57.961 0 70.675 36.217 70.675 62.483h32.954l-.201-241.904c-.049-57.961-50.087-104.623-108.048-104.623z"/><path fill="#eeeeed" d="M468.943 202.03H356.788l.647 284.043h116.128c57.961 0 103.428 28.373 103.428 82.922V306.652c0-57.96-50.087-104.623-108.048-104.623z"/><g transform="matrix(-4.42031 0 0 4.42031 1305.853 -499.98)"><rect stroke-linecap="round" stroke-width="4.233" stroke="#fff" fill="none" style="marker:none" width="27.359" height="26.458" x="254.983" y="152.889" rx="7.673" ry="7.673"/><circle fill="#fff" r="21.299" cy="152.003" cx="251.486" style="marker:none"/><path fill-opacity=".102" style="marker:none" d="M251.369 160.999a21.84 21.84 0 00-21.84 21.84 21.84 21.84 0 0021.84 21.84 21.84 21.84 0 0021.42-17.594h5.54c1.329 0 2.4-1.07 2.4-2.4a2.395 2.395 0 00-2.4-2.399h-5.139A21.84 21.84 0 00251.37 161z"/><path d="M230.187 148.96h42.333v32.015h-42.333z" fill="#fff" style="marker:none"/><circle fill="#fff" style="marker:none" cx="251.486" cy="180.843" r="21.299"/><g transform="translate(34.094 81.74) scale(.9094)" clip-path="url(#g)"><circle fill="#deddda" r="19.711" cy="77.264" cx="239.051" style="marker:none"/><circle fill="#241f31" style="marker:none" cx="239.051" cy="85.201" r="19.711"/></g></g><path fill="#deddda" d="M682.016 230.402h112.155l-.646 284.044H677.396c-57.96 0-70.675 36.217-70.675 62.483h-29.529l.202-241.904c.048-57.961 46.661-104.623 104.622-104.623z"/><path fill="url(#h)" d="M576.912 553.158c-19.116-71.34-32.674-101.195-157.64-101.195V139.546c124.966 0 130.59 95.714 158.17 161.203z"/><path fill="url(#i)" d="M576.912 553.158c0-71.387-32.674-163.679-95.157-163.679V77.063c62.483 0 95.688 154.248 95.688 223.686z"/><path fill="url(#j)" d="M682.016 202.03h112.155l-.646 284.043H677.396c-57.96 0-100.002 28.373-100.002 82.922V306.652c0-57.96 46.661-104.623 104.622-104.623z"/><path fill-opacity=".101" style="marker:none" d="M732.404 183.853a41.894 41.894 0 0115.335 57.228 41.894 41.894 0 01-57.229 15.335 41.894 41.894 0 01-15.334-57.229 41.894 41.894 0 0157.228-15.334M690.511 243.7a41.894 41.894 0 0157.228 15.334 41.894 41.894 0 01-15.334 57.23 41.894 41.894 0 01-57.229-15.335 41.894 41.894 0 0115.335-57.229m30.883 66.207a41.894 41.894 0 0141.894-41.895 41.894 41.894 0 0141.894 41.895 41.894 41.894 0 01-41.894 41.894 41.894 41.894 0 01-41.894-41.894m72.777 6.356a41.894 41.894 0 01-15.334-57.228 41.894 41.894 0 0157.228-15.335 41.894 41.894 0 0115.335 57.23 41.894 41.894 0 01-57.229 15.333m41.895-59.849a41.894 41.894 0 01-57.229-15.334 41.894 41.894 0 0115.335-57.229 41.894 41.894 0 0157.228 15.335 41.894 41.894 0 01-15.334 57.228m-30.884-66.205a41.894 41.894 0 01-41.894 41.894 41.894 41.894 0 01-41.894-41.894 41.894 41.894 0 0141.894-41.894 41.894 41.894 0 0141.894 41.894"/><g transform="translate(-997.483 -481.192) scale(1.70997)"><circle fill="#fff" r="24.5" cy="387.512" cx="1029.5" style="marker:none"/><circle fill="#fff" style="marker:none" cx="880.655" cy="-715.317" r="24.5" transform="rotate(60)"/><circle fill="#fff" transform="rotate(120)" r="24.5" cy="-1137.829" cx="-148.844" style="marker:none"/><circle fill="#fff" style="marker:none" cx="-1029.5" cy="-457.511" r="24.5" transform="scale(-1)"/><circle fill="#fff" transform="rotate(-120)" r="24.5" cy="645.318" cx="-880.655" style="marker:none"/><circle fill="#fff" style="marker:none" cx="148.844" cy="1067.829" r="24.5" transform="rotate(-60)"/><circle fill="#f5c211" style="marker:none" cx="1029.5" cy="421.512" r="24.5"/></g><g transform="translate(-1714.123 -2429.347) scale(15.67634)"><path fill="url(#k)" style="marker:none" d="M170.003 179.85l-1.993 4.853h3.986z"/><path fill="#424048" d="M170.003 179.814l-.797 1.892h1.595z" style="marker:none"/><path fill="#f6d32d" d="M171.598 184.703h-3.189v15.047h3.189z"/><path fill="#f9f06b" d="M169.184 184.703h-1.174v15.057l1.174-.01z"/><path fill="#e5a50a" d="M170.823 184.703h1.173v15.057l-1.173-.01z"/><rect fill="#f66151" ry="1.554" rx="1.554" y="199.76" x="168.01" height="3.969" width="3.969" style="marker:none"/><path fill="#ed333b" style="marker:none" d="M169.565 199.76a1.31 1.31 0 00-.166.01 1.55 1.55 0 011.39 1.545v.86a1.55 1.55 0 01-1.39 1.545c.055.006.11.01.166.01h.86c.86 0 1.554-.694 1.554-1.555v-.86c0-.861-.693-1.555-1.554-1.555z"/><rect fill="#f6f5f4" style="marker:none" width="3.969" height="1.323" x="168.01" y="199.76" rx="0" ry="0"/><rect fill="#deddda" ry="0" rx="0" y="199.76" x="170.789" height="1.323" width="1.191" style="marker:none"/></g><path stroke-width="10.962" stroke="#77767b" fill="none" d="M112.863 702.397v-187.45c0-11.018.607-25.526 12.827-25.526 11.16 0 11.207 12.623 11.207 25.526v28.032"/><path fill-opacity=".102" d="M506.946 713.36c-16.663 0-30.191 12.916-31.177 29.323h-.064v186.756l.117-.013a31.85 31.85 0 00-.117 2.625c0 17.308 13.934 31.241 31.241 31.241H756.88c-17.308 0-31.242-13.933-31.242-31.241a31.17 31.17 0 0124.844-30.591l6.398-.65V713.36z" style="font-variation-settings:normal;marker:none"/><path stroke-opacity=".975" stroke-width="10.962" stroke="#77767b" fill="none" d="M351.834 698.522l124.967-124.967c11.94-11.94 7.101-23.028 0-30.13-9.818-9.817-21.557-7.24-28.798 0" style="font-variation-settings:normal"/><path fill="#99c1f1" opacity=".706" d="M169.844 639.914a62.483 62.483 0 00-62.462 62.483h249.933a62.483 62.483 0 00-62.483-62.483 62.483 62.483 0 00-62.483 62.462 62.483 62.483 0 00-62.484-62.462 62.483 62.483 0 00-.021 0z" style="font-variation-settings:normal;marker:none"/><path fill="url(#l)" style="font-variation-settings:normal;marker:none" d="M513.524 702.397c-16.663 0-30.192 12.917-31.178 29.324h-.064v186.756l.118-.013a31.85 31.85 0 00-.118 2.625c0 17.308 13.934 31.242 31.242 31.242h249.933c-17.308 0-31.242-13.934-31.242-31.242a31.17 31.17 0 0124.844-30.59l6.398-.652v-187.45z"/><path fill-opacity=".102" style="font-variation-settings:normal;marker:none" d="M794.698 705.88c16.663 0 30.192 12.917 31.178 29.324h.064v142.908l-.118-.013c.072.867.118 1.74.118 2.625 0 17.308-13.934 31.242-31.242 31.242H586.421c17.308 0 31.241-13.934 31.241-31.242a31.17 31.17 0 00-24.844-30.59l-6.397-.651V705.88z"/><path fill="#e01b24" d="M513.524 889.847c-17.308 0-31.242 13.934-31.242 31.242s13.934 31.241 31.242 31.241h249.765v-3.77c-28.273-.557-31.074-13.846-31.074-27.471 0-11.877 7.54-27.57 31.074-27.701v-3.54z" style="font-variation-settings:normal;marker:none"/><path fill="url(#m)" d="M794.698 639.263c16.663 0 30.192 12.917 31.178 29.323h.064v186.757l-.118-.013c.072.866.118 1.74.118 2.625 0 17.308-13.934 31.241-31.242 31.241h-187.45c17.308 0 31.242-13.933 31.242-31.241a31.17 31.17 0 00-24.844-30.591l-6.397-.651v-187.45z" style="font-variation-settings:normal;marker:none"/><path fill="#613583" style="font-variation-settings:normal;marker:none" d="M794.698 826.713c17.308 0 31.242 13.934 31.242 31.242s-13.934 31.241-31.242 31.241H607.596v-3.77c28.273-.557 31.074-13.846 31.074-27.471 0-11.878-7.54-27.57-31.074-27.702v-3.54z"/><path fill-opacity=".881" fill="#fff" style="font-variation-settings:normal;marker:none" d="M795.943 830.929a26.967 26.967 0 0127.026 27.026 26.967 26.967 0 01-27.026 27.025H607.53a26.967 26.967 0 0027.026-27.025 26.967 26.967 0 00-27.026-27.026z"/><path d="M107.382 695.169h249.933v7.228H107.382z" fill="#78757d" style="font-variation-settings:normal;marker:none"/><path fill="#fff" style="font-variation-settings:normal;marker:none" d="M514.784 893.623a27.406 27.406 0 00-27.466 27.466 27.406 27.406 0 0027.466 27.466h245.904a27.406 27.406 0 01-27.466-27.466 27.406 27.406 0 0127.466-27.466z"/><path fill-opacity=".368" fill="#c0bfbc" style="font-variation-settings:normal;marker:none" d="M514.785 893.624c-8.387 0-17.156 4.342-22.107 10.92 7.673-7.674 19.558-7.229 21.684-7.229h232.54a27.386 27.386 0 0113.786-3.691zm281.158-62.695c8.386 0 17.156 4.342 22.107 10.92-7.674-7.674-19.558-7.229-21.685-7.229h-174.78a27.386 27.386 0 00-13.785-3.691z"/></svg>