<svg xmlns="http://www.w3.org/2000/svg" height="1026" width="1026"><g transform="matrix(3.77953 0 0 3.77953 420 36.125)"><rect style="marker:none" width="95.25" height="58.208" x="47.625" y="84.667" rx="2.884" ry="2.884"/><rect ry="2.884" rx="2.884" y="145.256" x="47.625" height="58.208" width="95.25" style="marker:none" fill-opacity=".102"/><rect style="marker:none" width="95.25" height="58.208" x="47.625" y="144.198" rx="2.884" ry="2.884" fill="#deddda"/><rect ry="2.884" rx="2.884" y="142.875" x="47.625" height="58.208" width="95.25" style="marker:none" fill="#f6f5f4"/><rect style="marker:none" width="84.667" height="29.104" x="52.917" y="148.167" rx="1.958" ry="1.958" fill="#c0bfbc"/><rect ry="1.958" rx="1.958" y="148.696" x="52.917" height="29.104" width="84.667" style="marker:none" fill="#deddda"/><rect ry=".826" rx=".826" y="137.583" x="63.5" height="7.408" width="63.5" style="marker:none"/><rect ry="2.884" rx="2.884" y="179.917" x="82.021" height="15.875" width="26.458" style="marker:none" fill="#deddda"/><rect ry="1.574" rx="1.574" y="86.284" x="49.158" height="54.975" width="92.183" style="marker:none" fill="#4a86cf"/><rect style="marker:none" width="46.302" height="5.292" x="74.083" y="170.656" rx="1.013" ry="1.013" fill="#241f31"/><rect ry="1.013" rx="1.013" y="170.656" x="121.708" height="5.292" width="6.615" style="marker:none" fill="#241f31"/><rect style="marker:none" width="6.615" height="5.292" x="129.646" y="170.656" rx="1.013" ry="1.013" fill="#241f31"/><rect ry="1.013" rx="1.013" y="164.042" x="125.677" height="5.292" width="5.292" style="marker:none" fill="#241f31"/><rect style="marker:none" width="6.615" height="5.292" x="117.74" y="164.042" rx="1.013" ry="1.013" fill="#241f31"/><rect ry="1.013" rx="1.013" y="164.042" x="109.802" height="5.292" width="6.615" style="marker:none" fill="#241f31"/><rect style="marker:none" width="6.615" height="5.292" x="101.865" y="164.042" rx="1.013" ry="1.013" fill="#241f31"/><rect ry="1.013" rx="1.013" y="164.042" x="93.927" height="5.292" width="6.615" style="marker:none" fill="#241f31"/><rect style="marker:none" width="6.615" height="5.292" x="85.99" y="164.042" rx="1.013" ry="1.013" fill="#241f31"/><rect ry="1.013" rx="1.013" y="164.042" x="78.052" height="5.292" width="6.615" style="marker:none" fill="#241f31"/><rect style="marker:none" width="6.615" height="5.292" x="70.115" y="164.042" rx="1.013" ry="1.013" fill="#241f31"/><rect ry="1.013" rx="1.013" y="164.042" x="62.177" height="5.292" width="6.615" style="marker:none" fill="#241f31"/><rect style="marker:none" width="6.615" height="5.292" x="121.708" y="157.427" rx="1.013" ry="1.013" fill="#241f31"/><rect ry="1.013" rx="1.013" y="157.427" x="113.771" height="5.292" width="6.615" style="marker:none" fill="#241f31"/><rect style="marker:none" width="6.615" height="5.292" x="105.833" y="157.427" rx="1.013" ry="1.013" fill="#241f31"/><rect ry="1.013" rx="1.013" y="157.427" x="97.896" height="5.292" width="6.615" style="marker:none" fill="#241f31"/><rect style="marker:none" width="6.615" height="5.292" x="89.958" y="157.427" rx="1.013" ry="1.013" fill="#241f31"/><rect ry="1.013" rx="1.013" y="157.427" x="82.021" height="5.292" width="6.615" style="marker:none" fill="#241f31"/><rect style="marker:none" width="6.615" height="5.292" x="74.083" y="157.427" rx="1.013" ry="1.013" fill="#241f31"/><rect ry="1.013" rx="1.013" y="157.427" x="66.146" height="5.292" width="6.615" style="marker:none" fill="#241f31"/><rect style="marker:none" width="10.583" height="5.292" x="54.24" y="157.427" rx="1.013" ry="1.013" fill="#241f31"/><rect ry="1.013" rx="1.013" y="150.813" x="125.677" height="5.292" width="10.583" style="marker:none" fill="#241f31"/><rect style="marker:none" width="6.615" height="5.292" x="117.74" y="150.813" rx="1.013" ry="1.013" fill="#241f31"/><rect ry="1.013" rx="1.013" y="150.813" x="109.802" height="5.292" width="6.615" style="marker:none" fill="#241f31"/><rect style="marker:none" width="6.615" height="5.292" x="101.865" y="150.813" rx="1.013" ry="1.013" fill="#241f31"/><rect ry="1.013" rx="1.013" y="150.813" x="93.927" height="5.292" width="6.615" style="marker:none" fill="#241f31"/><rect style="marker:none" width="6.615" height="5.292" x="85.99" y="150.813" rx="1.013" ry="1.013" fill="#241f31"/><rect ry="1.013" rx="1.013" y="150.813" x="78.052" height="5.292" width="6.615" style="marker:none" fill="#241f31"/><rect style="marker:none" width="6.615" height="5.292" x="70.115" y="150.813" rx="1.013" ry="1.013" fill="#241f31"/><rect ry="1.013" rx="1.013" y="150.813" x="62.177" height="5.292" width="6.615" style="marker:none" fill="#241f31"/><rect style="marker:none" width="6.615" height="5.292" x="54.24" y="150.813" rx="1.013" ry="1.013" fill="#241f31"/><rect style="marker:none" width="6.615" height="5.292" x="54.24" y="164.042" rx="1.013" ry="1.013" fill="#241f31"/><rect style="marker:none" width="6.615" height="5.292" x="66.146" y="170.656" rx="1.013" ry="1.013" fill="#241f31"/><rect ry="1.013" rx="1.013" y="170.656" x="54.24" height="5.292" width="10.583" style="marker:none" fill="#241f31"/><rect ry="1.013" rx="1.013" y="157.427" x="129.646" height="5.292" width="6.615" style="marker:none" fill="#241f31"/><rect style="marker:none" width="3.969" height="11.906" x="132.292" y="157.427" rx="1.013" ry="1.013" fill="#241f31"/></g><path fill="#1a5fb4" d="M783.189 362.236H788v207.778h-4.811z"/><rect ry="12.122" rx="12.122" y="517.756" x="806" height="24.244" width="80.23" fill="#1a5fb4"/><rect ry="0" rx="0" y="496" x="808.658" height="4" width="52" fill="#1a5fb4"/><rect width="52" height="4" x="808.658" y="486" rx="0" ry="0" fill="#1a5fb4"/><rect ry="0" rx="0" y="476" x="808.658" height="4" width="52" fill="#1a5fb4"/><rect width="52" height="4" x="874.594" y="496" rx="0" ry="0" fill="#1a5fb4"/><rect ry="0" rx="0" y="486" x="874.594" height="4" width="52" fill="#1a5fb4"/><rect width="52" height="4" x="874.594" y="476" rx="0" ry="0" fill="#1a5fb4"/><rect width="558.855" height="626.344" x="126.145" y="142.965" rx="13.249" ry="13.249" fill="#deddda"/><rect ry="13.249" rx="13.249" y="138.965" x="126.145" height="626.344" width="558.855" fill="#f6f5f4"/><g transform="translate(-916.916 38.036)"><rect ry="3" rx="3" width="499" height="331.998" x="1076.391" y="235.591" fill="#fff" stroke="#d0d0d0" stroke-linecap="round"/><path d="M1075.976 318.642h500M1075.912 401.628h500M1075.914 484.629h500" fill="none" stroke="#d3d7cf"/><g transform="translate(-8560.27 -6507.832) scale(7.21546)" stroke-width=".524"><rect style="marker:none" width="8.87" height="8.839" x="1394.254" y="970.526" rx=".864" ry=".864" color="#000" overflow="visible" fill="#fff" stroke="#d3d7cf" stroke-width=".277"/><g fill="#2e3436"><path style="line-height:normal;-inkscape-font-specification:Sans;text-indent:0;text-align:start;text-decoration-line:none;text-transform:none;marker:none" d="M1397.902 975.127a.132.132 0 00-.083.058l-.264.397a.132.132 0 10.215.149l.264-.397a.132.132 0 00-.132-.207zm1.852 0a.132.132 0 00-.082.207l.264.397a.132.132 0 10.215-.15l-.265-.396a.132.132 0 00-.132-.058z" color="#bebebe" font-weight="400" font-family="Sans" overflow="visible"/><g color="#000"><path style="line-height:normal;-inkscape-font-specification:'Bitstream Vera Sans';text-indent:0;text-align:start;text-decoration-line:none;text-transform:none;marker:none" d="M1398.588 973.01v1.472l-.339-.339a.268.268 0 00-.19-.074h-.264v.264c0 .07.024.14.074.19l.794.794.074.075h.232l.074-.075.794-.794c.05-.05.074-.12.074-.19v-.264h-.264c-.07 0-.14.024-.19.074l-.34.34v-1.473z" font-weight="400" font-family="Bitstream Vera Sans" overflow="visible"/><path style="marker:none" d="M1397.53 975.656v1.058h2.646v-1.058zm.885.38h.016a.138.138 0 01.157.133v.016h.53v-.016a.137.137 0 01.132-.134c.07 0 .133.064.132.134v.016c0 .145-.12.265-.264.265h-.53a.267.267 0 01-.264-.265v-.016a.136.136 0 01.09-.133z" overflow="visible" fill-rule="evenodd"/></g></g></g><g transform="matrix(7.1144 0 0 7.1144 -10101.943 -6288.433)"><rect style="marker:none" width="8.731" height="8.731" x="1631.023" y="941.658" rx=".794" ry=".794" color="#000" overflow="visible" fill="#fff" stroke="#d3d7cf" stroke-width=".265"/><g fill="#2e3436"><path d="M1634.331 944.7v2.647h.265c.046 0 .092-.01.132-.033l1.852-1.059a.26.26 0 00.124-.231.26.26 0 00-.124-.232l-1.852-1.058a.264.264 0 00-.132-.033h-.025z" style="line-height:normal;-inkscape-font-specification:'Bitstream Vera Sans';text-indent:0;text-align:start;text-decoration-line:none;text-transform:none;marker:none" color="#000" font-weight="400" font-family="Bitstream Vera Sans" overflow="visible"/></g></g><path fill="#5e5c64" d="M1106.094 260.84h292.809v13.77h-292.809z"/><path fill="#c0bfbc" d="M1106.094 284.004h152.992v13.77h-152.992z"/><path fill="#5e5c64" d="M1106.094 338.422h292.809v13.77h-292.809z"/><path fill="#c0bfbc" d="M1106.094 361.587h152.992v13.77h-152.992z"/><path fill="#5e5c64" d="M1106.094 424.125h292.809v13.77h-292.809z"/><path fill="#c0bfbc" d="M1106.094 447.29h152.992v13.77h-152.992z"/><path fill="#5e5c64" d="M1106.094 507.156h292.809v13.77h-292.809z"/><path fill="#c0bfbc" d="M1106.094 530.321h152.992v13.77h-152.992z"/><g transform="matrix(7.1144 0 0 7.1144 -10101.943 -6370.646)"><rect ry=".794" rx=".794" y="941.658" x="1631.023" height="8.731" width="8.731" style="marker:none" color="#000" overflow="visible" fill="#fff" stroke="#d3d7cf" stroke-width=".265"/><g transform="matrix(.28112 0 0 .28112 1430.458 951.52)"><path style="marker:none" color="#bebebe" overflow="visible" fill="none" d="M720.988-27h16v16h-16z"/><path d="M732.395-25.035a3.75 3.75 0 00-2.64.984l-.755.674-.756-.674a3.75 3.75 0 10-4.988 5.602L729-13.332l5.744-5.117a3.75 3.75 0 00-2.35-6.586z" style="line-height:normal;font-variant-ligatures:normal;font-variant-position:normal;font-variant-caps:normal;font-variant-numeric:normal;font-variant-alternates:normal;font-feature-settings:normal;text-indent:0;text-align:start;text-decoration-line:none;text-decoration-style:solid;text-decoration-color:#000;text-transform:none;text-orientation:mixed;white-space:normal;shape-padding:0;isolation:auto;mix-blend-mode:normal;solid-color:#000;solid-opacity:1" color="#000" font-weight="400" font-family="sans-serif" overflow="visible" fill="#2e3436" fill-rule="evenodd"/></g></g><g transform="matrix(7.1144 0 0 7.1144 -10101.943 -6452.646)"><rect style="marker:none" width="8.731" height="8.731" x="1631.023" y="941.658" rx=".794" ry=".794" color="#000" overflow="visible" fill="#fff" stroke="#d3d7cf" stroke-width=".265"/><g fill="#2e3436"><path d="M1634.331 944.7v2.647h.265c.046 0 .092-.01.132-.033l1.852-1.059a.26.26 0 00.124-.231.26.26 0 00-.124-.232l-1.852-1.058a.264.264 0 00-.132-.033h-.025z" style="line-height:normal;-inkscape-font-specification:'Bitstream Vera Sans';text-indent:0;text-align:start;text-decoration-line:none;text-transform:none;marker:none" color="#000" font-weight="400" font-family="Bitstream Vera Sans" overflow="visible"/></g></g><g transform="matrix(7.1144 0 0 7.1144 -10524.138 -6562.463)"><rect style="marker:none" width="8.731" height="8.731" x="1631.023" y="941.939" rx=".794" ry=".794" color="#000" overflow="visible" fill="#d3d7cf" stroke="#d3d7cf" stroke-width=".265"/><rect ry=".794" rx=".794" y="941.658" x="1631.023" height="8.731" width="8.731" style="marker:none" color="#000" overflow="visible" fill="#fff" stroke="#d3d7cf" stroke-width=".265"/></g><g transform="matrix(7.1144 0 0 7.1144 -10100.103 -6561.498)"><rect style="marker:none" width="8.731" height="8.731" x="1631.023" y="941.658" rx=".794" ry=".794" color="#000" overflow="visible" fill="#fff" stroke="#d3d7cf" stroke-width=".265"/><g fill="#2e3436"><path d="M1634.331 944.7v2.647h.265c.046 0 .092-.01.132-.033l1.852-1.059a.26.26 0 00.124-.231.26.26 0 00-.124-.232l-1.852-1.058a.264.264 0 00-.132-.033h-.025z" style="line-height:normal;-inkscape-font-specification:'Bitstream Vera Sans';text-indent:0;text-align:start;text-decoration-line:none;text-transform:none;marker:none" color="#000" font-weight="400" font-family="Bitstream Vera Sans" overflow="visible"/></g></g><g color="#bebebe"><path style="marker:none" overflow="visible" fill="none" d="M1094.915 153.964h32v32h-32z"/><path style="marker:none" overflow="visible" fill="#2e3436" d="M1100.915 159.964h20v4h-20zM1100.915 167.964h20v4h-20zM1100.915 175.964h20v4h-20z"/></g></g><path d="M505.561 170c-11.021 0-19.892 11.538-19.892 25.87v117.67c0 14.33 8.871 24.263 19.892 24.243h68.96l42.71 42.713 42.713-42.713h66.397c11.021 0 19.894-9.913 19.894-24.244V195.87c0-14.331-8.873-25.869-19.894-25.869z" fill="#e01b24"/><path d="M505.561 169.75c-11.021 0-19.892 7.788-19.892 22.12v117.67c0 14.33 8.871 24.243 19.892 24.243h68.96l42.71 42.713 42.713-42.713h66.397c11.021 0 19.894-9.913 19.894-24.244V191.87c0-14.331-8.873-22.119-19.894-22.119z" fill="#ed333b"/><path d="M594.056 214.191a30.725 30.725 0 00-30.725 30.725 30.725 30.725 0 009.26 21.984l-.342.176 45.545 45.545 45.545-45.545-.115-.058a30.725 30.725 0 009.38-22.102 30.725 30.725 0 00-30.724-30.725 30.725 30.725 0 00-23.912 11.434 30.725 30.725 0 00-23.912-11.434z" fill="#fff"/><path d="M932.978 375.353h1.032c.255.01.51.128.687.312l2.281 2.281 2.313-2.28c.266-.231.447-.306.687-.313h1v1c0 .286-.034.55-.25.75l-2.28 2.28 2.25 2.25c.187.19.28.454.28.72v1h-1c-.265 0-.53-.093-.718-.282l-2.282-2.28-2.28 2.28a1.015 1.015 0 01-.72.282h-1v-1c0-.266.094-.53.282-.72l2.281-2.25-2.281-2.28a.909.909 0 01-.282-.75zM763.67 375.353h1.032c.255.01.51.128.687.312l2.282 2.281 2.312-2.28c.266-.231.447-.306.688-.313h1v1c0 .286-.035.55-.25.75l-2.282 2.28 2.25 2.25c.189.19.282.454.282.72v1h-1c-.266 0-.531-.093-.72-.282l-2.28-2.28-2.282 2.28a1.015 1.015 0 01-.718.282h-1v-1c0-.266.093-.53.28-.72l2.282-2.25-2.281-2.28a.909.909 0 01-.281-.75z" style="line-height:normal;-inkscape-font-specification:'Andale Mono';text-indent:0;text-align:start;text-decoration-line:none;text-transform:none;marker:none" color="#bebebe" font-weight="400" font-family="Andale Mono" overflow="visible" fill="#1a5fb4"/><rect ry="28.344" rx="28.344" y="686.938" x="438.086" height="56.688" width="215.773" fill="#3584e4"/><rect ry="0" rx="0" y="709.016" x="482.125" height="14.98" width="68.258" fill="#99c1f1"/><rect width="45.492" height="14.98" x="562.508" y="709.016" rx="0" ry="0" fill="#99c1f1"/><rect width="69.342" height="6" x="808.658" y="454" rx="0" ry="0" fill="#1a5fb4"/><rect ry="0" rx="0" y="454" x="882" height="6" width="27.756" fill="#1a5fb4"/><path fill="#4a86cf" d="M824 526.516h21.425V534H824zM848.212 526.516H858V534h-9.788z"/></svg>