<svg xmlns="http://www.w3.org/2000/svg" width="1026" height="1026"><g transform="translate(420 187.98) scale(3.77953)"><rect ry="2.884" rx="2.884" y="84.667" x="47.625" height="58.208" width="95.25" style="marker:none"/><rect style="marker:none" width="95.25" height="58.208" x="47.625" y="145.256" rx="2.884" ry="2.884" fill-opacity=".102"/><rect ry="2.884" rx="2.884" y="144.198" x="47.625" height="58.208" width="95.25" style="marker:none" fill="#deddda"/><rect style="marker:none" width="95.25" height="58.208" x="47.625" y="142.875" rx="2.884" ry="2.884" fill="#f6f5f4"/><rect ry="1.958" rx="1.958" y="148.167" x="52.917" height="29.104" width="84.667" style="marker:none" fill="#c0bfbc"/><rect style="marker:none" width="84.667" height="29.104" x="52.917" y="148.696" rx="1.958" ry="1.958" fill="#deddda"/><rect style="marker:none" width="63.5" height="7.408" x="63.5" y="137.583" rx=".826" ry=".826"/><rect style="marker:none" width="26.458" height="15.875" x="82.021" y="179.917" rx="2.884" ry="2.884" fill="#deddda"/><rect style="marker:none" width="92.183" height="54.975" x="49.158" y="86.284" rx="1.574" ry="1.574" fill="#4a86cf"/><rect ry="1.013" rx="1.013" y="170.656" x="74.083" height="5.292" width="46.302" style="marker:none" fill="#241f31"/><rect style="marker:none" width="6.615" height="5.292" x="121.708" y="170.656" rx="1.013" ry="1.013" fill="#241f31"/><rect ry="1.013" rx="1.013" y="170.656" x="129.646" height="5.292" width="6.615" style="marker:none" fill="#241f31"/><rect style="marker:none" width="5.292" height="5.292" x="125.677" y="164.042" rx="1.013" ry="1.013" fill="#241f31"/><rect ry="1.013" rx="1.013" y="164.042" x="117.74" height="5.292" width="6.615" style="marker:none" fill="#241f31"/><rect style="marker:none" width="6.615" height="5.292" x="109.802" y="164.042" rx="1.013" ry="1.013" fill="#241f31"/><rect ry="1.013" rx="1.013" y="164.042" x="101.865" height="5.292" width="6.615" style="marker:none" fill="#241f31"/><rect style="marker:none" width="6.615" height="5.292" x="93.927" y="164.042" rx="1.013" ry="1.013" fill="#241f31"/><rect ry="1.013" rx="1.013" y="164.042" x="85.99" height="5.292" width="6.615" style="marker:none" fill="#241f31"/><rect style="marker:none" width="6.615" height="5.292" x="78.052" y="164.042" rx="1.013" ry="1.013" fill="#241f31"/><rect ry="1.013" rx="1.013" y="164.042" x="70.115" height="5.292" width="6.615" style="marker:none" fill="#241f31"/><rect style="marker:none" width="6.615" height="5.292" x="62.177" y="164.042" rx="1.013" ry="1.013" fill="#241f31"/><rect ry="1.013" rx="1.013" y="157.427" x="121.708" height="5.292" width="6.615" style="marker:none" fill="#241f31"/><rect style="marker:none" width="6.615" height="5.292" x="113.771" y="157.427" rx="1.013" ry="1.013" fill="#241f31"/><rect ry="1.013" rx="1.013" y="157.427" x="105.833" height="5.292" width="6.615" style="marker:none" fill="#241f31"/><rect style="marker:none" width="6.615" height="5.292" x="97.896" y="157.427" rx="1.013" ry="1.013" fill="#241f31"/><rect ry="1.013" rx="1.013" y="157.427" x="89.958" height="5.292" width="6.615" style="marker:none" fill="#241f31"/><rect style="marker:none" width="6.615" height="5.292" x="82.021" y="157.427" rx="1.013" ry="1.013" fill="#241f31"/><rect ry="1.013" rx="1.013" y="157.427" x="74.083" height="5.292" width="6.615" style="marker:none" fill="#241f31"/><rect style="marker:none" width="6.615" height="5.292" x="66.146" y="157.427" rx="1.013" ry="1.013" fill="#241f31"/><rect ry="1.013" rx="1.013" y="157.427" x="54.24" height="5.292" width="10.583" style="marker:none" fill="#241f31"/><rect style="marker:none" width="10.583" height="5.292" x="125.677" y="150.813" rx="1.013" ry="1.013" fill="#241f31"/><rect ry="1.013" rx="1.013" y="150.813" x="117.74" height="5.292" width="6.615" style="marker:none" fill="#241f31"/><rect style="marker:none" width="6.615" height="5.292" x="109.802" y="150.813" rx="1.013" ry="1.013" fill="#241f31"/><rect ry="1.013" rx="1.013" y="150.813" x="101.865" height="5.292" width="6.615" style="marker:none" fill="#241f31"/><rect style="marker:none" width="6.615" height="5.292" x="93.927" y="150.813" rx="1.013" ry="1.013" fill="#241f31"/><rect ry="1.013" rx="1.013" y="150.813" x="85.99" height="5.292" width="6.615" style="marker:none" fill="#241f31"/><rect style="marker:none" width="6.615" height="5.292" x="78.052" y="150.813" rx="1.013" ry="1.013" fill="#241f31"/><rect ry="1.013" rx="1.013" y="150.813" x="70.115" height="5.292" width="6.615" style="marker:none" fill="#241f31"/><rect style="marker:none" width="6.615" height="5.292" x="62.177" y="150.813" rx="1.013" ry="1.013" fill="#241f31"/><rect ry="1.013" rx="1.013" y="150.813" x="54.24" height="5.292" width="6.615" style="marker:none" fill="#241f31"/><rect ry="1.013" rx="1.013" y="164.042" x="54.24" height="5.292" width="6.615" style="marker:none" fill="#241f31"/><rect ry="1.013" rx="1.013" y="170.656" x="66.146" height="5.292" width="6.615" style="marker:none" fill="#241f31"/><rect style="marker:none" width="10.583" height="5.292" x="54.24" y="170.656" rx="1.013" ry="1.013" fill="#241f31"/><rect style="marker:none" width="6.615" height="5.292" x="129.646" y="157.427" rx="1.013" ry="1.013" fill="#241f31"/><rect ry="1.013" rx="1.013" y="157.427" x="132.292" height="11.906" width="3.969" style="marker:none" fill="#241f31"/></g><path fill="#1a5fb4" d="M783.189 514.091H788v207.778h-4.811z"/><rect width="80.23" height="24.244" x="806" y="669.611" rx="12.122" ry="12.122" fill="#1a5fb4"/><rect width="52" height="4" x="808.658" y="647.856" rx="0" ry="0" fill="#1a5fb4"/><rect ry="0" rx="0" y="637.856" x="808.658" height="4" width="52" fill="#1a5fb4"/><rect width="52" height="4" x="808.658" y="627.856" rx="0" ry="0" fill="#1a5fb4"/><rect ry="0" rx="0" y="647.856" x="874.594" height="4" width="52" fill="#1a5fb4"/><rect width="52" height="4" x="874.594" y="637.856" rx="0" ry="0" fill="#1a5fb4"/><rect ry="0" rx="0" y="627.856" x="874.594" height="4" width="52" fill="#1a5fb4"/><rect ry="14.554" rx="14.554" y="59.82" x="67.148" height="688.067" width="613.928" fill="#deddda"/><rect width="613.928" height="688.067" x="67.148" y="55.426" rx="14.554" ry="14.554" fill="#f6f5f4"/><g transform="translate(-1078.7 -55.449) scale(1.09855)"><rect y="235.591" x="1076.391" height="331.998" width="499" rx="3" ry="3" fill="#fff" stroke="#d0d0d0" stroke-linecap="round"/><path d="M1075.976 318.642h500m-500.064 82.986h500m-499.998 83.001h500" fill="none" stroke="#d3d7cf"/><g transform="translate(-8560.27 -6507.832) scale(7.21546)" stroke-width=".524"><rect ry=".864" rx=".864" y="970.526" x="1394.254" height="8.839" width="8.87" style="marker:none" color="#000" overflow="visible" fill="#fff" stroke="#d3d7cf" stroke-width=".277"/><g fill="#2e3436"><path d="M1397.902 975.127a.132.132 0 00-.083.058l-.264.397a.132.132 0 10.215.149l.264-.397a.132.132 0 00-.132-.207zm1.852 0a.132.132 0 00-.082.207l.264.397a.132.132 0 10.215-.15l-.265-.396a.132.132 0 00-.132-.058z" style="line-height:normal;-inkscape-font-specification:Sans;text-indent:0;text-align:start;text-decoration-line:none;text-transform:none;marker:none" color="#bebebe" font-weight="400" font-family="Sans" overflow="visible"/><g color="#000"><path d="M1398.588 973.01v1.472l-.339-.339a.268.268 0 00-.19-.074h-.264v.264c0 .07.024.14.074.19l.794.794.074.075h.232l.074-.075.794-.794c.05-.05.074-.12.074-.19v-.264h-.264c-.07 0-.14.024-.19.074l-.34.34v-1.473z" style="line-height:normal;-inkscape-font-specification:'Bitstream Vera Sans';text-indent:0;text-align:start;text-decoration-line:none;text-transform:none;marker:none" font-weight="400" font-family="Bitstream Vera Sans" overflow="visible"/><path d="M1397.53 975.656v1.058h2.646v-1.058zm.885.38h.016a.138.138 0 01.157.133v.016h.53v-.016a.137.137 0 01.132-.134c.07 0 .133.064.132.134v.016c0 .145-.12.265-.264.265h-.53a.267.267 0 01-.264-.265v-.016a.136.136 0 01.09-.133z" style="marker:none" overflow="visible" fill-rule="evenodd"/></g></g></g><g transform="translate(-10101.943 -6288.433) scale(7.1144)"><rect ry=".794" rx=".794" y="941.658" x="1631.023" height="8.731" width="8.731" style="marker:none" color="#000" overflow="visible" fill="#fff" stroke="#d3d7cf" stroke-width=".265"/><path style="line-height:normal;-inkscape-font-specification:'Bitstream Vera Sans';text-indent:0;text-align:start;text-decoration-line:none;text-transform:none;marker:none" d="M1634.331 944.7v2.647h.265c.046 0 .092-.01.132-.033l1.852-1.059a.26.26 0 00.124-.231.26.26 0 00-.124-.232l-1.852-1.058a.264.264 0 00-.132-.033h-.025z" color="#000" font-weight="400" font-family="Bitstream Vera Sans" overflow="visible" fill="#2e3436"/></g><path fill="#5e5c64" d="M1106.094 260.84h292.809v13.77h-292.809z"/><path fill="#c0bfbc" d="M1106.094 284.004h152.992v13.77h-152.992z"/><path fill="#5e5c64" d="M1106.094 338.422h292.809v13.77h-292.809z"/><path fill="#c0bfbc" d="M1106.094 361.587h152.992v13.77h-152.992z"/><path fill="#5e5c64" d="M1106.094 424.125h292.809v13.77h-292.809z"/><path fill="#c0bfbc" d="M1106.094 447.29h152.992v13.77h-152.992z"/><path fill="#5e5c64" d="M1106.094 507.156h292.809v13.77h-292.809z"/><path fill="#c0bfbc" d="M1106.094 530.321h152.992v13.77h-152.992z"/><g transform="translate(-10101.943 -6370.646) scale(7.1144)"><rect style="marker:none" width="8.731" height="8.731" x="1631.023" y="941.658" rx=".794" ry=".794" color="#000" overflow="visible" fill="#fff" stroke="#d3d7cf" stroke-width=".265"/><path style="marker:none" color="#bebebe" overflow="visible" fill="none" d="M1633.142 943.93h4.498v4.498h-4.498z"/><path style="line-height:normal;font-variant-ligatures:normal;font-variant-position:normal;font-variant-caps:normal;font-variant-numeric:normal;font-variant-alternates:normal;font-feature-settings:normal;text-indent:0;text-align:start;text-decoration-line:none;text-decoration-style:solid;text-decoration-color:#000;text-transform:none;text-orientation:mixed;white-space:normal;shape-padding:0;isolation:auto;mix-blend-mode:normal;solid-color:#000;solid-opacity:1" d="M1636.349 944.482a1.054 1.054 0 00-.742.277l-.213.19-.212-.19a1.054 1.054 0 10-1.402 1.575l1.614 1.438 1.615-1.438a1.054 1.054 0 00-.66-1.852z" color="#000" font-weight="400" font-family="sans-serif" overflow="visible" fill="#2e3436" fill-rule="evenodd"/></g><g transform="translate(-10101.943 -6452.646) scale(7.1144)"><rect ry=".794" rx=".794" y="941.658" x="1631.023" height="8.731" width="8.731" style="marker:none" color="#000" overflow="visible" fill="#fff" stroke="#d3d7cf" stroke-width=".265"/><path style="line-height:normal;-inkscape-font-specification:'Bitstream Vera Sans';text-indent:0;text-align:start;text-decoration-line:none;text-transform:none;marker:none" d="M1634.331 944.7v2.647h.265c.046 0 .092-.01.132-.033l1.852-1.059a.26.26 0 00.124-.231.26.26 0 00-.124-.232l-1.852-1.058a.264.264 0 00-.132-.033h-.025z" color="#000" font-weight="400" font-family="Bitstream Vera Sans" overflow="visible" fill="#2e3436"/></g><g transform="translate(-10524.138 -6562.463) scale(7.1144)" color="#000" stroke="#d3d7cf" stroke-width=".265"><rect ry=".794" rx=".794" y="941.939" x="1631.023" height="8.731" width="8.731" style="marker:none" overflow="visible" fill="#d3d7cf"/><rect style="marker:none" width="8.731" height="8.731" x="1631.023" y="941.658" rx=".794" ry=".794" overflow="visible" fill="#fff"/></g><g transform="translate(-10100.103 -6561.498) scale(7.1144)"><rect ry=".794" rx=".794" y="941.658" x="1631.023" height="8.731" width="8.731" style="marker:none" color="#000" overflow="visible" fill="#fff" stroke="#d3d7cf" stroke-width=".265"/><path style="line-height:normal;-inkscape-font-specification:'Bitstream Vera Sans';text-indent:0;text-align:start;text-decoration-line:none;text-transform:none;marker:none" d="M1634.331 944.7v2.647h.265c.046 0 .092-.01.132-.033l1.852-1.059a.26.26 0 00.124-.231.26.26 0 00-.124-.232l-1.852-1.058a.264.264 0 00-.132-.033h-.025z" color="#000" font-weight="400" font-family="Bitstream Vera Sans" overflow="visible" fill="#2e3436"/></g><g color="#bebebe"><path style="marker:none" overflow="visible" fill="none" d="M1094.915 153.964h32v32h-32z"/><path style="marker:none" overflow="visible" fill="#2e3436" d="M1100.915 159.964h20v4h-20zm0 8h20v4h-20zm0 8h20v4h-20z"/></g></g><path d="M483.955 89.52c-12.108 0-21.853 12.674-21.853 28.418v129.266c0 15.743 9.745 26.655 21.853 26.633h75.754l46.92 46.922 46.922-46.922h72.94c12.107 0 21.855-10.89 21.855-26.633V117.938c0-15.744-9.748-28.418-21.855-28.418z" fill="#e01b24"/><path d="M483.955 89.245c-12.108 0-21.853 8.555-21.853 24.299v129.265c0 15.744 9.745 26.634 21.853 26.634h75.754l46.92 46.922 46.922-46.922h72.94c12.107 0 21.855-10.89 21.855-26.634V113.544c0-15.744-9.748-24.3-21.855-24.3z" fill="#ed333b"/><path d="M581.17 138.066a33.752 33.752 0 00-33.753 33.752 33.752 33.752 0 0010.172 24.151l-.375.193 50.033 50.033 50.033-50.033-.126-.064a33.752 33.752 0 0010.305-24.28 33.752 33.752 0 00-33.752-33.752 33.752 33.752 0 00-26.269 12.56 33.752 33.752 0 00-26.269-12.56z" fill="#fff"/><path style="line-height:normal;-inkscape-font-specification:'Andale Mono';text-indent:0;text-align:start;text-decoration-line:none;text-transform:none;marker:none" d="M932.978 527.208h1.032c.255.011.51.129.687.313l2.281 2.281 2.313-2.281c.266-.23.447-.306.687-.313h1v1c0 .287-.034.55-.25.75l-2.28 2.282 2.25 2.25c.187.188.28.453.28.718v1h-1c-.265 0-.53-.093-.718-.281l-2.282-2.281-2.28 2.281a1.015 1.015 0 01-.72.281h-1v-1c0-.265.094-.53.282-.718l2.281-2.25-2.281-2.282a.909.909 0 01-.282-.75zm-169.308 0h1.032c.255.011.51.129.687.313l2.282 2.281 2.312-2.281c.266-.23.447-.306.688-.313h1v1c0 .287-.035.55-.25.75l-2.282 2.282 2.25 2.25c.189.188.282.453.282.718v1h-1c-.266 0-.531-.093-.72-.281l-2.28-2.281-2.282 2.281a1.015 1.015 0 01-.718.281h-1v-1c0-.265.093-.53.28-.718l2.282-2.25-2.281-2.282a.909.909 0 01-.281-.75z" color="#bebebe" font-weight="400" font-family="Andale Mono" overflow="visible" fill="#1a5fb4"/><rect width="237.037" height="62.274" x="409.83" y="657.399" rx="31.137" ry="31.137" fill="#3584e4"/><rect width="74.984" height="16.457" x="458.209" y="681.652" rx="0" ry="0" fill="#99c1f1"/><rect ry="0" rx="0" y="681.652" x="546.513" height="16.457" width="49.975" fill="#99c1f1"/><rect ry="0" rx="0" y="605.856" x="808.658" height="6" width="69.342" fill="#1a5fb4"/><rect width="27.756" height="6" x="882" y="605.856" rx="0" ry="0" fill="#1a5fb4"/><path fill="#4a86cf" d="M824 678.372h21.425v7.484H824zm24.212 0H858v7.484h-9.788z"/></svg>