<?xml version="1.0" encoding="UTF-8" standalone="no"?>
<!-- Created with Inkscape (http://www.inkscape.org/) -->

<svg
   xmlns:dc="http://purl.org/dc/elements/1.1/"
   xmlns:cc="http://creativecommons.org/ns#"
   xmlns:rdf="http://www.w3.org/1999/02/22-rdf-syntax-ns#"
   xmlns:svg="http://www.w3.org/2000/svg"
   xmlns="http://www.w3.org/2000/svg"
   xmlns:xlink="http://www.w3.org/1999/xlink"
   xmlns:sodipodi="http://sodipodi.sourceforge.net/DTD/sodipodi-0.dtd"
   xmlns:inkscape="http://www.inkscape.org/namespaces/inkscape"
   width="92.23938"
   height="499.48682"
   id="svg2"
   version="1.1"
   inkscape:version="0.92.4 (5da689c313, 2019-01-14)"
   sodipodi:docname="gtkbg.svg">
  <defs
     id="defs4">
    <linearGradient
       id="linearGradient4582">
      <stop
         style="stop-color:#729fcf;stop-opacity:1;"
         offset="0"
         id="stop4584" />
      <stop
         style="stop-color:#98bde5;stop-opacity:1;"
         offset="1"
         id="stop4586" />
    </linearGradient>
    <inkscape:path-effect
       effect="skeletal"
       id="path-effect3757"
       is_visible="true"
       pattern="M -6.009945,16.026519 V 26.02652 l 10,-5 z"
       copytype="single_stretched"
       prop_scale="1"
       scale_y_rel="false"
       spacing="0"
       normal_offset="0"
       tang_offset="0"
       prop_units="false"
       vertical_pattern="false"
       fuse_tolerance="0" />
    <inkscape:path-effect
       effect="spiro"
       id="path-effect3755"
       is_visible="true" />
    <inkscape:path-effect
       effect="skeletal"
       id="path-effect3737"
       is_visible="true"
       pattern="m 1.0016543,13.021547 v 10 l 9.9999997,-5 z"
       copytype="single_stretched"
       prop_scale="1"
       scale_y_rel="false"
       spacing="0"
       normal_offset="0"
       tang_offset="0"
       prop_units="false"
       vertical_pattern="false"
       fuse_tolerance="0" />
    <inkscape:path-effect
       effect="spiro"
       id="path-effect3735"
       is_visible="true" />
    <inkscape:path-effect
       effect="skeletal"
       id="path-effect3731"
       is_visible="true"
       pattern="m 2.0033155,17.028177 v 10 l 10.0000005,-5 z"
       copytype="single_stretched"
       prop_scale="1"
       scale_y_rel="false"
       spacing="0"
       normal_offset="0"
       tang_offset="0"
       prop_units="false"
       vertical_pattern="false"
       fuse_tolerance="0" />
    <inkscape:path-effect
       effect="spiro"
       id="path-effect3729"
       is_visible="true" />
    <inkscape:path-effect
       effect="spiro"
       id="path-effect2830"
       is_visible="true" />
    <inkscape:path-effect
       effect="spiro"
       id="path-effect2826"
       is_visible="true" />
    <inkscape:perspective
       sodipodi:type="inkscape:persp3d"
       inkscape:vp_x="0 : 526.18109 : 1"
       inkscape:vp_y="0 : 1000 : 0"
       inkscape:vp_z="744.09448 : 526.18109 : 1"
       inkscape:persp3d-origin="372.04724 : 350.78739 : 1"
       id="perspective10" />
    <inkscape:perspective
       id="perspective2844"
       inkscape:persp3d-origin="0.5 : 0.33333333 : 1"
       inkscape:vp_z="1 : 0.5 : 1"
       inkscape:vp_y="0 : 1000 : 0"
       inkscape:vp_x="0 : 0.5 : 1"
       sodipodi:type="inkscape:persp3d" />
    <inkscape:perspective
       id="perspective3638"
       inkscape:persp3d-origin="0.5 : 0.33333333 : 1"
       inkscape:vp_z="1 : 0.5 : 1"
       inkscape:vp_y="0 : 1000 : 0"
       inkscape:vp_x="0 : 0.5 : 1"
       sodipodi:type="inkscape:persp3d" />
    <inkscape:perspective
       id="perspective13"
       inkscape:persp3d-origin="300 : 400 : 1"
       inkscape:vp_z="700 : 600 : 1"
       inkscape:vp_y="0 : 1000 : 0"
       inkscape:vp_x="-50 : 600 : 1"
       sodipodi:type="inkscape:persp3d" />
    <inkscape:perspective
       id="perspective4568"
       inkscape:persp3d-origin="0.5 : 0.33333333 : 1"
       inkscape:vp_z="1 : 0.5 : 1"
       inkscape:vp_y="0 : 1000 : 0"
       inkscape:vp_x="0 : 0.5 : 1"
       sodipodi:type="inkscape:persp3d" />
    <linearGradient
       inkscape:collect="always"
       xlink:href="#linearGradient4582"
       id="linearGradient4588"
       x1="145.71429"
       y1="193.79076"
       x2="331.42856"
       y2="193.79076"
       gradientUnits="userSpaceOnUse"
       gradientTransform="translate(487.8222,429.93695)" />
  </defs>
  <sodipodi:namedview
     id="base"
     pagecolor="#ffffff"
     bordercolor="#666666"
     borderopacity="1.0"
     inkscape:pageopacity="0.0"
     inkscape:pageshadow="2"
     inkscape:zoom="0.9983453"
     inkscape:cx="-7.518007"
     inkscape:cy="257.80603"
     inkscape:document-units="px"
     inkscape:current-layer="layer1"
     showgrid="false"
     showguides="true"
     inkscape:guide-bbox="true"
     inkscape:window-width="1366"
     inkscape:window-height="706"
     inkscape:window-x="0"
     inkscape:window-y="25"
     inkscape:window-maximized="1"
     fit-margin-top="0"
     fit-margin-left="0"
     fit-margin-right="0"
     fit-margin-bottom="0" />
  <metadata
     id="metadata7">
    <rdf:RDF>
      <cc:Work
         rdf:about="">
        <dc:format>image/svg+xml</dc:format>
        <dc:type
           rdf:resource="http://purl.org/dc/dcmitype/StillImage" />
        <dc:title></dc:title>
      </cc:Work>
    </rdf:RDF>
  </metadata>
  <g
     inkscape:label="Layer 1"
     inkscape:groupmode="layer"
     id="layer1"
     transform="translate(-220.43949,-194.28202)">
    <rect
       style="fill:#eeeeee;fill-opacity:1;stroke:none"
       id="rect3725"
       width="217.35966"
       height="580.9613"
       x="174.28839"
       y="166.897" />
    <circle
       style="fill:#729fcf;fill-opacity:1;stroke:none"
       id="path2834"
       transform="matrix(0.45188492,0,0,0.45188492,-84.403623,82.657801)"
       inkscape:export-filename="/home/eboyjr/.gvfs/sftp for eboyjr on 192.168.2.8/var/www/gtk/images/gtkbg.png"
       inkscape:export-xdpi="90"
       inkscape:export-ydpi="90"
       cx="238.57143"
       cy="193.79076"
       r="92.85714" />
    <circle
       transform="matrix(0.35455586,0,0,0.35455586,-8.8941434,133.15122)"
       style="fill:#7fe719;fill-opacity:1;stroke:none"
       id="path2834-0"
       inkscape:export-filename="/home/eboyjr/.gvfs/sftp for eboyjr on 192.168.2.8/var/www/gtk/images/gtkbg.png"
       inkscape:export-xdpi="90"
       inkscape:export-ydpi="90"
       cx="238.57143"
       cy="193.79076"
       r="92.85714" />
    <circle
       transform="matrix(0.27113095,0,0,0.27113095,-29.015443,199.67108)"
       style="fill:#e40000;fill-opacity:1;stroke:none"
       id="path2834-0-1"
       inkscape:export-filename="/home/eboyjr/.gvfs/sftp for eboyjr on 192.168.2.8/var/www/gtk/images/gtkbg.png"
       inkscape:export-xdpi="90"
       inkscape:export-ydpi="90"
       cx="238.57143"
       cy="193.79076"
       r="92.85714" />
    <g
       id="g35">
      <path
         inkscape:connector-curvature="0"
         inkscape:export-ydpi="90"
         inkscape:export-xdpi="90"
         inkscape:export-filename="/home/eboyjr/.gvfs/sftp for eboyjr on 192.168.2.8/var/www/gtk/images/gtkbg.png"
         inkscape:original-d="m 240.3978,196.94672 c 0,0 25.04143,32.05304 14.0232,104.17237 -11.01823,72.11934 -30.04972,71.11768 -18.02983,123.20387 12.01989,52.08619 44.07293,43.07127 38.06298,118.19558 -6.00994,75.12431 27.04475,72.11933 8.01326,105.17403 -19.03149,33.0547 -32.05304,39.06464 -32.05304,39.06464"
         inkscape:path-effect="#path-effect3735;#path-effect3737"
         id="path3733"
         d="m 245.05224,195.12019 -9.30888,3.65306 c 12.94594,32.04347 18.07623,67.35824 14.73012,101.92448 -1.9596,20.42159 -6.86165,40.69848 -10.94204,61.276 0,0 0,1e-5 0,1e-5 -4.07929,20.41972 -7.32514,41.4197 -5.89357,62.51313 1.47662,21.04203 7.57103,41.32123 15.0951,60.70513 7.59566,19.60238 16.60706,38.50039 24.27725,57.88181 0,10e-6 0,2e-5 0,2e-5 6.60026,16.69574 12.21337,33.86297 14.4832,51.60686 2.26533,17.73768 1.11501,36.17572 -5.48703,52.824 -6.25917,15.80007 -17.41606,29.69443 -31.59203,39.25253 14.35883,-9.28113 25.86915,-23.01242 32.51407,-38.87677 6.99507,-16.7167 8.56437,-35.39819 6.59563,-53.44006 -1.96459,-18.03872 -7.29267,-35.54181 -13.62598,-52.47714 -10e-6,-10e-6 -10e-6,-10e-6 -10e-6,-2e-5 -7.34319,-19.65775 -15.99345,-38.74595 -23.12941,-58.28994 -7.04313,-19.32561 -12.64286,-39.26961 -13.62419,-59.51424 -1.03217,-20.2905 2.57934,-40.64855 6.96875,-60.81184 0,-1e-5 0,-1e-5 0,-2e-5 4.45238,-20.31245 9.78142,-40.6935 12.2553,-61.80674 4.16291,-35.78173 -0.41776,-72.60564 -13.31628,-106.42026 z"
         style="fill:#e40000;fill-opacity:1;fill-rule:evenodd;stroke:none" />
      <path
         inkscape:connector-curvature="0"
         inkscape:export-ydpi="90"
         inkscape:export-xdpi="90"
         inkscape:export-filename="/home/eboyjr/.gvfs/sftp for eboyjr on 192.168.2.8/var/www/gtk/images/gtkbg.png"
         inkscape:original-d="m 298.49391,199.9517 c 0,0 -70.11602,122.20221 -55.09116,171.28343 15.02487,49.08121 81.13426,99.16408 67.11105,146.24198 -14.0232,47.0779 -52.08618,87.1442 -48.07956,115.19061 4.00663,28.04641 22.03647,45.07458 15.02487,61.1011"
         inkscape:path-effect="#path-effect3729;#path-effect3731"
         id="path3727"
         d="m 301.11638,204.20877 -5.24494,-8.51414 c -28.66722,18.02054 -50.43493,46.35506 -60.46116,78.46842 -10.00985,32.11863 -8.14663,67.59482 5.0222,98.31496 5.50586,12.8061 12.78988,24.62201 20.49212,35.95672 0,0 10e-6,0 10e-6,10e-6 7.72926,11.38927 15.88445,22.3627 23.30171,33.74061 7.39322,11.35418 14.09603,23.15625 18.68327,35.76662 4.57973,12.60514 7.07399,26.08327 5.88213,39.3663 0,10e-6 -10e-6,2e-5 -10e-6,3e-5 -0.88895,10.14178 -3.93358,20.08309 -7.98518,29.57152 -4.10061,9.59294 -9.23071,18.76968 -14.46013,27.90479 0,10e-6 -1e-5,2e-5 -1e-5,3e-5 -5.23051,9.13085 -10.53321,18.28345 -14.98368,27.88176 0,1e-5 -10e-6,1e-5 -10e-6,2e-5 -4.41242,9.51063 -7.9587,19.51872 -9.50841,29.90962 -3.19135,21.4545 2.60951,44.03101 15.60483,61.19279 -12.68112,-17.39524 -17.97568,-39.94005 -14.44493,-61.00943 1.70718,-10.21209 5.39332,-20.01157 9.92343,-29.34561 4.57526,-9.42167 10.01166,-18.41684 15.40928,-27.45921 10e-6,0 10e-6,-10e-6 10e-6,-2e-5 5.40604,-9.05063 10.74487,-18.21333 15.1081,-27.91281 4.3222,-9.59873 7.63608,-19.7938 8.78087,-30.39579 0,-10e-6 0,-10e-6 0,-10e-6 1.47214,-13.88912 -0.82858,-27.97626 -5.36209,-41.1077 -4.52645,-13.12744 -11.16614,-25.37626 -18.47641,-37.02863 -7.31934,-11.68044 -15.29842,-22.83889 -22.73042,-34.23097 0,-1e-5 -1e-5,-2e-5 -1e-5,-3e-5 -7.39088,-11.34425 -14.28408,-22.96167 -19.29393,-35.28637 -12.02383,-29.48611 -13.11118,-63.30106 -3.13772,-93.31238 9.95709,-30.01658 30.98113,-56.26077 57.88108,-72.4711 z"
         style="fill:#729fcf;fill-opacity:1;fill-rule:evenodd;stroke:none" />
      <path
         inkscape:connector-curvature="0"
         inkscape:export-ydpi="90"
         inkscape:export-xdpi="90"
         inkscape:export-filename="/home/eboyjr/.gvfs/sftp for eboyjr on 192.168.2.8/var/www/gtk/images/gtkbg.png"
         inkscape:original-d="m 255.42265,197.94838 c 0,0 46.07624,77.12762 36.05967,142.23535 -10.01657,65.10774 -73.12099,122.20221 -68.11271,164.27182 5.00829,42.06962 73.121,122.20221 68.11271,152.25193 -5.00829,30.04973 -15.02486,34.05636 -15.02486,34.05636"
         inkscape:path-effect="#path-effect3755;#path-effect3757"
         id="path3753"
         d="m 258.82233,194.28202 -6.79936,7.33272 c 18.40008,16.73152 31.92376,38.99073 38.29612,63.17527 6.37993,24.18262 5.6227,50.35175 -2.22242,74.24712 -4.55271,13.92655 -11.51558,27.12016 -19.17318,39.94513 0,1e-5 -1e-5,2e-5 -1e-5,3e-5 -7.7154,12.90054 -16.18953,25.48503 -23.95441,38.61221 -7.75104,13.08527 -14.77882,26.80905 -19.35268,41.47924 -4.58285,14.67561 -6.55739,30.39199 -4.13513,45.66617 2.30972,14.32806 8.36097,27.68993 15.79061,39.90021 1e-5,10e-6 1e-5,2e-5 2e-5,3e-5 7.42021,12.21174 16.18582,23.42694 24.52538,34.85207 10e-6,0 10e-6,10e-6 2e-5,2e-5 8.33355,11.42849 16.31742,23.17266 21.95884,36.07227 0,10e-6 0,2e-5 1e-5,2e-5 5.63556,12.89588 8.90202,27.0945 7.38141,41.10242 -1.34655,12.44861 -6.52202,24.50461 -14.6801,34.0969 8.33299,-9.44075 13.77591,-21.45313 15.36964,-34.01584 1.78771,-14.13417 -1.22759,-28.5965 -6.71387,-41.7626 -5.48153,-13.16498 -13.32048,-25.19096 -21.4808,-36.80666 -1e-5,-1e-5 -1e-5,-2e-5 -2e-5,-3e-5 -8.15439,-11.61917 -16.68261,-22.94736 -23.74945,-35.09164 -7.05691,-12.14492 -12.71501,-25.22199 -14.62499,-38.91589 -2.07376,-14.58276 0.14461,-29.60218 4.78765,-43.67608 4.65256,-14.08102 11.76234,-27.3021 19.61826,-40.06603 7.88982,-12.80107 16.58009,-25.20593 24.65238,-38.15288 0,-1e-5 10e-6,-2e-5 10e-6,-3e-5 8.03362,-12.86459 15.44844,-26.36046 20.55171,-40.94584 8.74029,-25.07762 10.08916,-52.71047 3.76271,-78.64748 -6.33403,-25.93509 -20.29448,-49.97611 -39.80835,-68.40083 z"
         style="fill:#7fe719;fill-opacity:1;fill-rule:evenodd;stroke:none" />
    </g>
    <circle
       style="fill:url(#linearGradient4588);fill-opacity:1;stroke:none"
       id="path2834-7"
       transform="matrix(0.45188492,0,0,0.45188492,-29.677549,274.64909)"
       inkscape:export-filename="/home/eboyjr/.gvfs/sftp for eboyjr on 192.168.2.8/var/www/gtk/images/gtkbg.png"
       inkscape:export-xdpi="90"
       inkscape:export-ydpi="90"
       cx="238.57143"
       cy="193.79076"
       r="92.85714" />
  </g>
</svg>
