<?xml version="1.0" encoding="UTF-8" standalone="no"?>
<svg
   xmlns:dc="http://purl.org/dc/elements/1.1/"
   xmlns:cc="http://creativecommons.org/ns#"
   xmlns:rdf="http://www.w3.org/1999/02/22-rdf-syntax-ns#"
   xmlns:svg="http://www.w3.org/2000/svg"
   xmlns="http://www.w3.org/2000/svg"
   xmlns:xlink="http://www.w3.org/1999/xlink"
   xmlns:sodipodi="http://sodipodi.sourceforge.net/DTD/sodipodi-0.dtd"
   xmlns:inkscape="http://www.inkscape.org/namespaces/inkscape"
   width="50"
   height="50"
   id="svg2"
   sodipodi:version="0.32"
   inkscape:version="0.45+0.46pre0"
   sodipodi:docname="cairo.svg"
   inkscape:output_extension="org.inkscape.output.svg.inkscape"
   version="1.0"
   inkscape:export-filename="/home/andreas/imendio/gtk-web-new/images/cairo.png"
   inkscape:export-xdpi="90"
   inkscape:export-ydpi="90">
  <metadata
     id="metadata64">
    <rdf:RDF>
      <cc:Work
         rdf:about="">
        <dc:format></dc:format>
        <dc:type
           rdf:resource="" />
        <dc:title></dc:title>
        <dc:date></dc:date>
        <dc:creator>
          <cc:Agent>
            <dc:title></dc:title>
          </cc:Agent>
        </dc:creator>
        <dc:rights>
          <cc:Agent>
            <dc:title></dc:title>
          </cc:Agent>
        </dc:rights>
        <dc:publisher>
          <cc:Agent>
            <dc:title></dc:title>
          </cc:Agent>
        </dc:publisher>
        <dc:identifier></dc:identifier>
        <dc:source></dc:source>
        <dc:relation></dc:relation>
        <dc:language></dc:language>
        <dc:subject>
          <rdf:Bag />
        </dc:subject>
        <dc:coverage></dc:coverage>
        <dc:description></dc:description>
        <dc:contributor>
          <cc:Agent>
            <dc:title></dc:title>
          </cc:Agent>
        </dc:contributor>
        <cc:license
           rdf:resource="" />
      </cc:Work>
    </rdf:RDF>
  </metadata>
  <sodipodi:namedview
     inkscape:window-height="735"
     inkscape:window-width="1098"
     inkscape:pageshadow="2"
     inkscape:pageopacity="0.0"
     guidetolerance="10.0"
     gridtolerance="10.0"
     objecttolerance="10.0"
     borderopacity="1.0"
     bordercolor="#666666"
     pagecolor="#ffffff"
     id="base"
     showgrid="false"
     inkscape:zoom="8.0557491"
     inkscape:cx="44.823312"
     inkscape:cy="17.424896"
     inkscape:window-x="275"
     inkscape:window-y="168"
     inkscape:current-layer="svg2" />
  <defs
     id="cairo-artwork_defs">
    <inkscape:perspective
       sodipodi:type="inkscape:persp3d"
       inkscape:vp_x="-50 : 600 : 1"
       inkscape:vp_y="0 : 1000 : 0"
       inkscape:vp_z="700 : 600 : 1"
       inkscape:persp3d-origin="300 : 400 : 1"
       id="perspective66" />
    <g
       id="scarab"
       style="fill:#3b80ae">
      <g
         transform="translate(-150,-170)"
         id="g6">
        <path
           id="scarab_head"
           d="M 205.599,94.567 C 205.599,82.899 180.685,73.438 149.971,73.438 C 119.248,73.438 94.347,82.898 94.347,94.567 C 94.347,104.77 119.248,101.913 149.971,101.913 C 180.685,101.913 205.599,104.233 205.599,94.567 z" />
        <path
           id="scarab_torso"
           d="M 136.423,161.506 C 136.423,161.506 149.174,174.083 149.97,174.868 C 152.232,172.636 163.515,161.506 163.515,161.506 C 170.65,154.47 250.626,155.107 254.581,155.143 C 254.112,148.845 253.327,142.671 252.256,136.624 C 237.073,117.345 209.445,104.399 177.771,104.399 L 122.253,104.399 C 90.508,104.399 62.814,117.41 47.655,136.769 C 46.601,142.769 45.826,148.897 45.359,155.143 C 49.321,155.106 129.288,154.47 136.423,161.506 z" />
        <path
           id="scarab_spine"
           d="M 149.97,301.187 C 151.975,276.458 158.356,197.704 158.375,197.466 C 158.285,197.247 151.897,181.888 149.97,177.252 C 148.034,181.907 141.654,197.247 141.562,197.466 C 141.582,197.704 147.965,276.458 149.97,301.187 z" />
        <path
           id="scarab_wing_left"
           d="M 140.403,197.149 L 149.265,175.839 L 135.579,162.34 C 129.929,156.767 68.505,156.105 45.32,156.321 L 45.314,155.699 C 45.16,157.843 45.043,160.001 44.964,162.174 C 44.888,164.381 55.356,166.88 55.356,168.891 C 55.356,171.21 44.899,173.975 44.997,176.522 C 47.99,249.871 93.527,308.153 149.369,308.57 L 140.349,197.28 L 140.403,197.149 z" />
        <path
           id="scarab_wing_right"
           d="M 244.585,168.891 C 244.585,166.88 255.052,164.385 254.976,162.176 C 254.897,160.002 254.781,157.844 254.625,155.697 L 254.621,156.321 C 231.435,156.105 170.013,156.766 164.361,162.338 L 150.673,175.84 L 159.588,197.278 L 150.571,308.568 C 206.425,308.151 251.949,249.87 254.944,176.519 C 255.04,173.976 244.585,171.209 244.585,168.891 z" />
        <path
           id="scarab_leg_front_left"
           d="M 44.506,141.12 C 40.371,140.264 39.611,139.58 36.571,138.2 C 26.981,134.836 26.195,132.719 20.491,126.34 C 13.065,118.034 7.83,106.198 3.391,96.877 C -0.185,89.352 -0.593,80.468 0.531,72.604 C 1.522,65.669 7.675,59.735 12.605,53.684 C 18.449,46.493 22.961,38.862 30.529,32.33 C 38.265,25.648 53.732,22.521 56.697,12.682 C 57.86,8.819 54.334,1.766 61.482,0 C 61.116,4.703 65.121,8.477 63.879,13.575 C 62.75,18.202 59.511,19.386 54.268,22.674 C 46.704,27.42 35.902,31.453 29.52,36.639 C 22.345,42.466 25.151,50.41 18.951,56.696 C 16.95,58.726 11.05,61.402 9.814,63.526 C 7.953,66.725 9.517,73.098 9.698,76.646 C 10.123,84.93 15.286,90.89 19.253,98.691 C 23.405,106.832 25.682,114.1 32.664,121.21 C 36.847,125.472 44.093,126.012 48.874,131.857 L 45.319,136.043 L 44.506,141.12 z" />
        <path
           id="scarab_leg_middle_left"
           d="M 43.94,191.922 L 43.131,184.576 C 33.625,179.997 32.792,174.804 22.393,172.11 C -1.335,165.959 1.032,183.36 6.861,198.483 C 12.537,213.209 15.098,228.713 21.206,243.278 C 24.011,249.966 28.125,256.491 35.504,258.405 C 35.876,249.97 34.587,247.754 29.391,241.486 C 24.996,236.193 26.065,228.938 23.319,222.982 C 19.738,215.178 19.123,207.336 16.04,199.48 C 14.677,196.001 7.71,185.514 9.588,181.619 C 12.771,175.016 18.766,181.536 21.767,183.696 C 25.985,186.732 28.234,185.919 33.448,186.594 C 34.041,186.673 37.005,188.756 43.94,191.922 z" />
        <path
           id="scarab_leg_back_left"
           d="M 65.839,257.063 L 63.068,252.226 C 56.388,261.154 56.075,268.454 53.012,275.573 C 47.735,287.836 52.855,304.424 62.866,313.249 C 68.918,318.624 78.773,322.867 85.988,326.385 C 96.023,331.277 106.101,337.671 117.324,339.781 C 119.806,340.247 126.122,341.076 124.017,336.259 C 123.042,334.022 115.926,331.668 113.871,330.525 C 105.559,325.902 97.494,320.001 89.729,314.349 C 80.231,307.487 68.886,303.163 61.418,293.665 C 58.364,289.78 57.874,288.743 58.602,284.275 C 59.295,280.012 59.946,275.101 60.843,270.836 C 61.855,266.029 63.274,261.378 65.839,257.063 z" />
        <path
           id="scarab_leg_front_right"
           d="M 255.487,141.12 C 259.621,140.264 260.383,139.58 263.423,138.2 C 273.006,134.836 273.792,132.719 279.494,126.34 C 286.922,118.034 292.155,106.198 296.609,96.877 C 300.183,89.352 300.592,80.468 299.469,72.604 C 298.477,65.669 292.312,59.735 287.382,53.684 C 281.539,46.493 277.026,38.862 269.463,32.33 C 261.728,25.648 246.261,22.521 243.296,12.682 C 242.135,8.819 245.66,1.766 238.511,0 C 238.877,4.703 234.874,8.477 236.115,13.575 C 237.246,18.202 240.483,19.386 245.726,22.674 C 253.289,27.42 264.093,31.453 270.473,36.639 C 277.643,42.466 274.835,50.41 281.036,56.696 C 283.037,58.726 288.937,61.402 290.175,63.526 C 292.034,66.725 290.47,73.098 290.288,76.646 C 289.864,84.93 284.7,90.89 280.735,98.691 C 276.583,106.832 274.304,114.1 267.331,121.21 C 263.147,125.472 255.902,126.012 251.12,131.857 L 254.676,136.043 L 255.487,141.12 z" />
        <path
           id="scarab_leg_middle_right"
           d="M 256.053,191.922 L 256.863,184.576 C 266.37,179.997 267.203,174.804 277.593,172.11 C 301.334,165.959 298.967,183.36 293.127,198.483 C 287.451,213.209 284.889,228.713 278.78,243.278 C 275.976,249.966 271.869,256.491 264.489,258.405 C 264.118,249.97 265.407,247.754 270.602,241.486 C 274.992,236.193 273.921,228.938 276.668,222.982 C 280.248,215.178 280.865,207.336 283.946,199.48 C 285.309,196.001 292.276,185.514 290.399,181.619 C 287.215,175.016 281.22,181.536 278.218,183.696 C 274.001,186.732 271.76,185.919 266.546,186.594 C 265.951,186.673 262.986,188.756 256.053,191.922 z" />
        <path
           id="scarab_leg_back_right"
           d="M 234.155,257.063 L 236.926,252.226 C 243.605,261.154 243.917,268.454 246.983,275.573 C 252.257,287.836 247.137,304.424 237.129,313.249 C 231.074,318.624 221.226,322.867 214.012,326.385 C 203.978,331.277 193.885,337.671 182.661,339.781 C 180.18,340.247 173.872,341.076 175.97,336.259 C 176.946,334.022 184.062,331.668 186.116,330.525 C 194.428,325.902 202.508,320.001 210.271,314.349 C 219.769,307.487 231.109,303.163 238.576,293.665 C 241.631,289.78 242.119,288.743 241.394,284.275 C 240.698,280.012 240.048,275.101 239.15,270.836 C 238.137,266.029 236.718,261.378 234.155,257.063 z" />
      </g>
    </g>
<!-- scaled by 0.72, shifted around to hit pixel boundaries -->    <g
       id="cairo_text_small"
       transform="translate(0,-71)">
      <g
         transform="scale(8.5e-2,8.5e-2)"
         id="g20">
        <g
           transform="translate(-1139,-208.5)"
           id="g22">
<!-- 63 (c), advance 444, 0 horiBearing 38,522 -->          <path
             transform="translate(-151,0)"
             d="M 412,433 C 385,422 336,413 298,413 C 142,413 38,525 38,680 C 38,826 144,947 298,947 C 332,947 377,944 416,926 L 409,842 C 380,861 340,871 308,871 C 187,871 138,771 138,680 C 138,583 197,489 302,489 C 332,489 368,496 404,511 L 412,433"
             id="path24" />
<!-- 61 (a), advance 556, 0 horiBearing 46,522 -->          <path
             transform="translate(379.5,0)"
             d="M 109,541 C 147,509 204,489 257,489 C 351,489 383,534 383,622 C 346,620 320,620 283,620 C 186,620 46,660 46,788 C 46,899 123,947 233,947 C 319,947 369,900 391,869 L 393,869 L 393,938 L 481,938 C 479,920 477,893 477,835 L 477,624 C 477,485 418,413 272,413 C 207,413 151,433 104,461 L 109,541 M 383,737 C 383,813 334,871 241,871 C 198,871 146,842 146,788 C 146,698 272,690 323,690 C 343,690 363,692 383,692 L 383,737"
             id="path26" />
<!-- 69 (i), advance 278, 0 horiBearing 86,730 -->          <path
             transform="translate(1000,0)"
             d="M 92,938 L 186,938 L 186,420.3 L 92,420.3 L 92,938 M 88,261 C 88,232.83348 110.83348,210 139,210 C 167.16652,210 190,232.83348 190,261 C 190,289.16652 167.16652,312 139,312 C 110.83348,312 88,289.16652 88,261"
             id="path28" />
<!-- 72 (r), advance 389, 0 horiBearing 80,522 -->          <path
             transform="translate(1341.5,0)"
             d="M 80,938 L 174,938 L 174,703 C 174,575 229,495 313,495 C 329,495 348,497 365,504 L 365,420 C 345,416 331,413 303,413 C 249,413 195,451 170,504 L 168,504 L 168,420.3 L 80,420.3 L 80,938"
             id="path30" />
<!-- 6f (o), advance 611, 0 horiBearing 46,522 -->          <path
             transform="translate(1826,0)"
             d="M 46,680 C 46,826 152,947 306,947 C 459,947 565,826 565,680 C 565,525 461,413 306,413 C 150,413 46,525 46,680 M 146,680 C 146,583 205,489 306,489 C 406,489 465,583 465,680 C 465,771 416,871 306,871 C 195,871 146,771 146,680"
             id="path32" />
<!-- bounds: 38, 205 <-> 2232, 947 -->        </g>
      </g>
    </g>
    <g
       id="scarab_and_dung">
      <g
         id="dung"
         transform="translate(-12.5,0)"
         style="fill:none;stroke:#000000;stroke-width:1">
        <circle
           cx="12.5"
           cy="12.5"
           r="12"
           id="circle36"
           sodipodi:cx="12.5"
           sodipodi:cy="12.5"
           sodipodi:rx="12"
           sodipodi:ry="12" />
        <g
           id="hacker"
           transform="translate(6,6)">
          <g
             id="grid">
<!-- (0,0) - (12,12) -->            <rect
               x="0.5"
               y="0.5"
               width="12"
               height="12"
               id="rect40" />
            <rect
               x="4.5"
               y="0.5"
               width="4"
               height="12"
               id="rect42" />
            <rect
               x="0.5"
               y="4.5"
               width="12"
               height="4"
               id="rect44" />
          </g>
          <g
             id="glider"
             style="fill:#000000;stroke:none">
            <circle
               cx="6.5"
               cy="2.5"
               r="0.89999998"
               id="circle47"
               sodipodi:cx="6.5"
               sodipodi:cy="2.5"
               sodipodi:rx="0.89999998"
               sodipodi:ry="0.89999998" />
            <circle
               cx="10.5"
               cy="6.5"
               r="0.89999998"
               id="circle49"
               sodipodi:cx="10.5"
               sodipodi:cy="6.5"
               sodipodi:rx="0.89999998"
               sodipodi:ry="0.89999998" />
            <circle
               cx="2.5"
               cy="10.5"
               r="0.89999998"
               id="circle51"
               sodipodi:cx="2.5"
               sodipodi:cy="10.5"
               sodipodi:rx="0.89999998"
               sodipodi:ry="0.89999998" />
            <circle
               cx="6.5"
               cy="10.5"
               r="0.89999998"
               id="circle53"
               sodipodi:cx="6.5"
               sodipodi:cy="10.5"
               sodipodi:rx="0.89999998"
               sodipodi:ry="0.89999998" />
            <circle
               cx="10.5"
               cy="10.5"
               r="0.89999998"
               id="circle55"
               sodipodi:cx="10.5"
               sodipodi:cy="10.5"
               sodipodi:rx="0.89999998"
               sodipodi:ry="0.89999998" />
          </g>
        </g>
      </g>
      <use
         xlink:href="#scarab"
         transform="matrix(0.2,0,0,0.2,0,47)"
         id="use57"
         x="0"
         y="0"
         width="287"
         height="81" />
    </g>
  </defs>
<!--use xlink:href="#scarab_and_dung" transform="translate(30.5,0)" /-->  <use
     xlink:href="#scarab_and_dung"
     transform="matrix(-0.6154737,0,0,0.6154737,25.039852,0.124135)"
     id="use61"
     x="0"
     y="0"
     width="287"
     height="81" />
</svg>
